Orelega-Regular.sfdir
StartChar: exclam
Encoding: 33 33 1
Width: 800
VWidth: 0
Flags: HW
HStem: -20 640<179.115 620.885>
VStem: 80 640<79.1152 520.885 1589.65 2460.88>
LayerCount: 2
Fore
SplineSet
80 300 m 0
 80 477 223 620 400 620 c 0
 577 620 720 477 720 300 c 0
 720 123 577 -20 400 -20 c 0
 223 -20 80 123 80 300 c 0
400 2560 m 0
 577 2560 720 2417 720 2240 c 0
 720 1929 580 1303 484 960 c 1
 316 960 l 1
 220 1303 80 1929 80 2240 c 0
 80 2417 223 2560 400 2560 c 0
EndSplineSet
Validated: 1
EndChar
StartChar: numbersign
Encoding: 35 35 3
Width: 1920
VWidth: 0
UnlinkRmOvrlpSave: 1
Flags: HW
HStem: 0 21G<360 761.935 1240 1641.94> 520 320<80 2160> 1640 320<80 2160> 2460 20G<598.065 1000 1478.06 1880>
LayerCount: 2
Fore
SplineSet
539.999023438 2480 m 1
 799.999023438 2480 l 1
 560.000976562 0 l 1
 300.000976562 0 l 1
 539.999023438 2480 l 1
1359.99902344 2480 m 1
 1619.99902344 2480 l 1
 1380.00097656 0 l 1
 1120.00097656 0 l 1
 1359.99902344 2480 l 1
1840 1920 m 1
 1840 1680 l 1
 80 1680 l 1
 80 1920 l 1
 1840 1920 l 1
1840 800 m 1
 1840 560 l 1
 80 560 l 1
 80 800 l 1
 1840 800 l 1
EndSplineSet
EndChar
StartChar: dollar
Encoding: 36 36 4
Width: 1880
VWidth: 0
UnlinkRmOvrlpSave: 1
Flags: HW
HStem: -40 320<586.975 1311.83> 320 320<223 400> 1840 320<1680 1857> 2200 320<833.382 1522.16>
VStem: 80 640<463 860.885> 80 320<463 640> 120 640<1707.46 2105.19> 920 320<-160 2640> 1360 640<1619.12 2017> 1400 640<382.596 772.537> 1680 320<1840 2017>
LayerCount: 2
Fore
SplineSet
800 2640 m 1
 1040 2640 l 1
 1040 -160 l 1
 800 -160 l 1
 800 2640 l 1
719.99609375 640 m 0
 719.99609375 463.26953125 576.727539062 320 399.99609375 320 c 0
 223.264648438 320 79.99609375 463.26953125 79.99609375 640 c 0
 79.99609375 816.731445312 223.264648438 960 399.99609375 960 c 0
 576.727539062 960 719.99609375 816.731445312 719.99609375 640 c 0
1119.99609375 1840 m 0
 1119.99609375 2016.73144531 1263.26464844 2160 1439.99609375 2160 c 0
 1616.72753906 2160 1759.99609375 2016.73144531 1759.99609375 1840 c 0
 1759.99609375 1663.26855469 1616.72753906 1520 1439.99609375 1520 c 0
 1263.26464844 1520 1119.99609375 1663.26855469 1119.99609375 1840 c 0
399.99609375 1840 m 3
 399.99609375 1320 1799.9921875 1480.0390625 1799.9921875 640 c 3
 1799.9921875 199.830078125 1400 -40 959.99609375 -40 c 0
 599.99609375 -40 79.9921875 131.478515625 79.9921875 640 c 1
 319.9921875 640 l 1
 319.9921875 400 560 200 880 200 c 0
 1240 200 1519.99609375 320 1519.99609375 640 c 3
 1519.99609375 1200 119.9921875 1039.96289062 119.9921875 1840 c 3
 119.9921875 2280.16992188 520 2520 919.99609375 2520 c 0
 1279.99609375 2520 1759.9921875 2348.52148438 1759.9921875 1840 c 1
 1519.99609375 1840 l 1
 1519.99609375 2160 1280 2280 960 2280 c 0
 617.576171875 2280 399.99609375 2145.59472656 399.99609375 1840 c 3
EndSplineSet
EndChar
StartChar: ampersand
Encoding: 38 38 6
Width: 2456
VWidth: 0
UnlinkRmOvrlpSave: 1
Flags: HW
HStem: -40 520<1958.11 2270.9> -40 360<942.688 1496.31> 1200 320<1640 1795.93> 2200 320<1066.65 1265.88>
VStem: 80 640<560.938 1151.66> 480 560<1637.42 2191.64> 1280 480<1764.38 2188.88> 1860 379<663.709 1136.05> 2280 320<488.812 720>
LayerCount: 2
Fore
SplineSet
800 1920 m 0
 808.65625 1639.98730469 975.565429688 1299.15625 1200 1000 c 0
 1456.47558594 658.135742188 1789.33984375 280 1960 280 c 0
 2018.68359375 280 2040 360 2040 560 c 2
 2040 720 l 1
 2280 720 l 1
 2280 560 l 2
 2280 357.276367188 2240.00683594 -40 1880 -40 c 0
 1640 -40 1278.59082031 374.423828125 960 800 c 0
 654.8671875 1207.59960938 480 1576.62890625 480 1920 c 0
 480 2280 640 2520 1000 2520 c 0
 1304 2520 1480 2360 1480 2000 c 1
 1240 2040 l 1
 1240 2240 1120 2280 1000 2280 c 0
 880 2280 793.8203125 2119.90429688 800 1920 c 0
1720 1840 m 0
 1720 2016.73144531 1863.26855469 2160 2040 2160 c 0
 2216.73144531 2160 2360 2016.73144531 2360 1840 c 0
 2360 1663.26855469 2216.73144531 1520 2040 1520 c 0
 1863.26855469 1520 1720 1663.26855469 1720 1840 c 0
1240 2040 m 1
 1480 2000 l 1
 1480 1760 1280 1560 920 1360 c 0
 870.549804688 1332.52832031 760 1280 680 1240 c 0
 520 1160 400 921.788085938 400 720 c 0
 400 360 680 240 960 240 c 0
 1160 240 1331.33203125 379.10546875 1420.828125 480 c 0
 1504.20800781 573.997070312 1776.23242188 513.856445312 1600 320 c 0
 1444.68847656 149.153320312 1207.88769531 -40 880 -40 c 0
 360 -40 80 240 80 720 c 0
 80 1080 360 1320 600 1440 c 0
 680 1480 799.897460938 1537.08398438 840 1560 c 0
 1120 1720 1240 1880 1240 2040 c 1
2317.12792969 2000 m 1
 2369.87988281 1908.63183594 2376 1807.36035156 2376 1708.39355469 c 0
 2376 1460.75 2153.16015625 1227.53417969 1840 1200 c 1
 1960 1040 1920 560 1680 400 c 1
 1520 600 l 1
 1680 680 1720 1120 1400 1200 c 1
 1400 1440 l 1
 1760 1440 l 2
 1970.40820312 1440 2160 1560 2160 1720 c 1
 2317.12792969 2000 l 1
EndSplineSet
EndChar
StartChar: quotesingle
Encoding: 39 39 7
Width: 720
VWidth: 0
Flags: HW
HStem: 1280 1280<221.288 498.712>
VStem: 80 560<1598.95 2482.81>
LayerCount: 2
Fore
SplineSet
360 2560 m 0
 514.639648438 2560 640 2434.63964844 640 2280 c 4
 640 2057.55078125 520 1600 440 1280 c 1
 280 1280 l 1
 200 1600 80 2057.55078125 80 2280 c 4
 80 2434.63964844 205.360351562 2560 360 2560 c 0
EndSplineSet
EndChar
StartChar: parenleft
Encoding: 40 40 8
Width: 1080
VWidth: 0
Flags: HW
HStem: -800 320<1101.73 1240> 2320 320<1101.73 1240>
VStem: 80 680<279.798 1560.2>
LayerCount: 2
Fore
SplineSet
1000 -560 m 1
 1000 -800 l 1
 397.240234375 -800 80 144.647460938 80 920 c 0
 80 1695.35253906 397.240234375 2640 1000 2640 c 1
 1000 2400 l 3
 649.973632812 2400 400 1690.67871094 400 920 c 0
 400 149.321289062 649.99609375 -560 1000 -560 c 1
EndSplineSet
EndChar
StartChar: plus
Encoding: 43 43 11
Width: 1680
VWidth: 0
Flags: HW
HStem: 1080 320<80 680 1000 1600>
VStem: 680 320<480 1080 1400 2000>
LayerCount: 2
Fore
SplineSet
720 2000 m 1
 960 2000 l 5
 960 1360 l 5
 1600 1360 l 1
 1600 1120 l 1
 960 1120 l 5
 960 480 l 5
 720 480 l 1
 720 1120 l 1
 80 1120 l 1
 80 1360 l 1
 720 1360 l 1
 720 2000 l 1
EndSplineSet
EndChar
StartChar: comma
Encoding: 44 44 12
Width: 800
VWidth: 0
Flags: HW
HStem: -640 1260
VStem: 80 649<87.5346 509.526>
LayerCount: 2
Fore
SplineSet
400 620 m 0
 544.76953125 619.825195312 671.404296875 522.482421875 708.9296875 382.71875 c 0
 722.588867188 331.84375 729.038085938 280.391601562 729.038085938 228.887695312 c 0
 729.038085938 -107.057617188 454.66796875 -445.223632812 117.3046875 -640 c 1
 40 -560 l 1
 337.00390625 -321.915039062 361.809570312 -150.348632812 365.5859375 -17.765625 c 1
 203.266601562 -0.20703125 80.1923828125 136.733398438 80 300 c 0
 80 476.731445312 223.268554688 620 400 620 c 0
EndSplineSet
EndChar
StartChar: hyphen
Encoding: 45 45 13
Width: 1240
VWidth: 0
Flags: HW
HStem: 800 320<80 1160>
VStem: 80 1080<800 1120>
LayerCount: 2
Fore
SplineSet
80 840 m 5
 80 1080 l 1
 1160 1080 l 1
 1160 840 l 5
 80 840 l 5
EndSplineSet
EndChar
StartChar: slash
Encoding: 47 47 15
Width: 1900
VWidth: 0
Flags: HW
HStem: 0 21G<85.4238 466.964> 2460 20G<1505.87 1886.42>
LayerCount: 2
Fore
SplineSet
1521.1640625 2480 m 1
 1810.6640625 2480 l 1
 378.8359375 0 l 1
 89.3359375 0 l 1
 1521.1640625 2480 l 1
EndSplineSet
EndChar
StartChar: zero
Encoding: 48 48 16
Width: 1920
VWidth: 0
Flags: HW
HStem: -46 320<932.81 1307.19> 2200 320<932.81 1307.19>
VStem: 80 680<700.098 1773.9> 1480 680<703.199 1770.8>
LayerCount: 2
Fore
SplineSet
960 2519.85742188 m 3
 1446.00878906 2519.85742188 1840 2012.35742188 1840 1237 c 3
 1840 461.642578125 1446.00878906 -45.8564453125 960 -45.8564453125 c 3
 473.995117188 -45.8564453125 80.0087890625 461.6484375 80.0087890625 1237 c 3
 80.0087890625 2012.35253906 473.995117188 2519.85742188 960 2519.85742188 c 3
959.998046875 2279.85742188 m 3
 610.938476562 2279.85742188 400.008789062 2026.59179688 400.008789062 1237 c 3
 400.008789062 447.408203125 610.954101562 194.143554688 959.998046875 194.143554688 c 3
 1309.04199219 194.143554688 1520 462.306640625 1520 1237 c 3
 1520 2011.69433594 1309.05761719 2279.85742188 959.998046875 2279.85742188 c 3
EndSplineSet
EndChar
StartChar: one
Encoding: 49 49 17
Width: 1920
VWidth: 0
Flags: HW
HStem: 0 320<-20640 -20240 -19600 -19200> 1840 320<-20640 -20263.2> 2460 20G<-20160 -19600>
VStem: -20240 640<320 1840>
LayerCount: 2
Fore
SplineSet
936 2480 m 5
 1120 2480 l 5
 1120 240 l 5
 1480 240 l 5
 1480 0 l 5
 440 0 l 5
 440 240 l 5
 800 240 l 5
 800 1920 l 5
 440 1920 l 5
 440 2160 l 5
 472 2160 l 6
 658.41796875 2160 801.055664062 2246.26855469 936 2480 c 5
EndSplineSet
EndChar
StartChar: two
Encoding: 50 50 18
Width: 1920
VWidth: 0
UnlinkRmOvrlpSave: 1
Flags: HW
HStem: 0 480<741.25 1632.16> 2200 320<656.089 1212.35>
VStem: 173 667<1543 1897> 200 277<1663.5 2105.5> 1360 680<1427.85 2051.87> 1680 360<509.48 960>
LayerCount: 2
Fore
SplineSet
170 0 m 1
 298 216 l 1
 458 228.799804688 l 2
 542.076171875 235.206054688 656.896484375 240 738 240 c 2
 1370 240 l 2
 1490 240 1530 440.743164062 1530 560 c 2
 1530 960 l 1
 1730 960 l 1
 1730 0 l 1
 170 0 l 1
232.872070312 1640 m 4
 32.8193359375 1986.50195312 270 2520 910 2520 c 4
 1510 2520 1710 2160 1710 1800 c 4
 1710 1320 1250 997.120117188 930 752 c 0
 716.984375 588.830078125 504.045898438 437.349609375 458 160 c 1
 458 132.85546875 l 1
 170 0 l 1
 170 520 410 680 770 960 c 0
 994.87890625 1134.90625 1390 1440 1390 1800 c 4
 1390 2120 1270 2280 830 2280 c 4
 590.487304688 2280 398 2168.69726562 398 1960 c 4
 232.872070312 1640 l 4
190 1800 m 4
 190 1976.73144531 333.268554688 2120 510 2120 c 4
 686.731445312 2120 830 1976.73144531 830 1800 c 4
 830 1623.26855469 686.731445312 1480 510 1480 c 4
 333.268554688 1480 190 1623.26855469 190 1800 c 4
EndSplineSet
EndChar
StartChar: three
Encoding: 51 51 19
Width: 1920
VWidth: 0
UnlinkRmOvrlpSave: 1
Flags: HW
HStem: -40 320<676.089 1232.35> 1080 960<363 717> 1080 320<860 1010.43> 1200 64<1220 1460> 2200 320<676.089 1208.8>
VStem: 193 667<583 937 1543 1897> 220 277<374.5 816.5 1663.5 2105.5> 1340 680<1547.48 2079> 1380 680<428.133 955.257>
LayerCount: 2
Fore
SplineSet
210 1800 m 0
 210 1976.73144531 353.268554688 2120 530 2120 c 0
 706.731445312 2120 850 1976.73144531 850 1800 c 0
 850 1623.26855469 706.731445312 1480 530 1480 c 0
 353.268554688 1480 210 1623.26855469 210 1800 c 0
252.872070312 1640 m 0
 17.8662109375 2047.04199219 330 2520 930 2520 c 0
 1570 2520 1730 2160 1730 1800 c 0
 1730 1400 1290 1200 1050 1200 c 1
 730 1360 l 1
 1250 1360 1410 1560 1410 1800 c 0
 1410 2160 1250 2280 890 2280 c 0
 570 2280 452.958007812 2160.32128906 410 2000 c 0
 252.872070312 1640 l 0
210 680 m 0
 210 856.731445312 353.268554688 1000 530 1000 c 0
 706.731445312 1000 850 856.731445312 850 680 c 0
 850 503.268554688 706.731445312 360 530 360 c 0
 353.268554688 360 210 503.268554688 210 680 c 0
252.872070312 840 m 4
 410 480 l 4
 462.564453125 283.826171875 570 200 890 200 c 0
 1178.43554688 200 1410 320 1410 680 c 0
 1410 960 1250 1120 730 1120 c 1
 730 1360 l 1
 1050 1264 l 1
 1530 1264 1730 1080 1730 680 c 0
 1730 280 1490 -40 930 -40 c 0
 370 -40 17.8662109375 432.958007812 252.872070312 840 c 4
EndSplineSet
EndChar
StartChar: four
Encoding: 52 52 20
Width: 1920
VWidth: 0
Flags: HW
HStem: 0 320<-3360 -2960 -2320 -2000> 640 320<-3640 -2960 -2320 -2000> 1820 20G<-2645 -2320> 2460 20G<-3340 -2680>
VStem: -3320 640<2005.09 2480> -2960 640<320 640 960 1437.36> -2613 293<1663.14 1840>
LayerCount: 2
Fore
SplineSet
940 2480 m 1
 1260 2480 l 1
 1260 1920 860 1240 460 880 c 1
 1140 880 l 1
 1140 1520 l 1
 1220 1600 1312.9296875 1760 1340 1840 c 1
 1460 1840 l 1
 1460 880 l 1
 1780 880 l 1
 1780 640 l 1
 1460 640 l 1
 1460 240 l 1
 1780 240 l 1
 1780 0 l 1
 740 0 l 1
 740 240 l 1
 1140 240 l 1
 1140 640 l 1
 140 640 l 1
 140 880 l 1
 620 1360 860 1840 940 2480 c 1
EndSplineSet
EndChar
StartChar: five
Encoding: 53 53 21
Width: 1920
VWidth: 0
UnlinkRmOvrlpSave: 1
Flags: HW
HStem: -40 320<-7834.29 -7278.03> 1223 346<-7839.3 -6941.38> 1880 520<-7784.19 -6829.07> 2460 20G<-8075.13 -7690.38 -6640.38 -6523.71>
VStem: -8290.38 277<510.5 848.5> -7130.38 680<428.292 1071.79>
LayerCount: 2
Fore
SplineSet
227.809570312 680 m 4
 227.809570312 856.731445312 371.078125 1000 547.809570312 1000 c 4
 724.541015625 1000 867.809570312 856.731445312 867.809570312 680 c 4
 867.809570312 503.268554688 724.541015625 360 547.809570312 360 c 4
 371.078125 360 227.809570312 503.268554688 227.809570312 680 c 4
270.681640625 840 m 4
 435.809570312 560 l 4
 450.21484375 337.622070312 616.620117188 200 907.809570312 200 c 4
 1227.80957031 200 1427.80957031 400 1427.80957031 680 c 4
 1427.80957031 1120 1227.80957031 1280 507.809570312 1200 c 5
 267.809570312 1280 l 5
 475.809570312 1392 l 5
 1207.81445312 1579.18066406 1747.80957031 1320 1747.80957031 680 c 4
 1747.80957031 320 1547.80957031 -40 947.809570312 -40 c 4
 347.809570312 -40 35.67578125 432.958007812 270.681640625 840 c 4
267.810546875 1278.21972656 m 5
 432.545898438 2480.0234375 l 5
 670.322265625 2447.43066406 l 5
 505.586914062 1245.62695312 l 5
 267.810546875 1278.21972656 l 5
587.809570312 2320 m 5
 432.545898438 2480.0234375 l 5
 747.809570312 2480 l 5
 867.809570312 2440 987.809570312 2400 1187.80957031 2400 c 7
 1387.80957031 2400 1547.80957031 2440 1667.80957031 2480 c 5
 1707.80957031 2360 l 5
 1627.80957031 2240 1507.80957031 2080 1187.80957031 2080 c 7
 947.744140625 2080 747.809570312 2160 587.809570312 2320 c 5
EndSplineSet
EndChar
StartChar: six
Encoding: 54 54 22
Width: 1920
VWidth: 0
UnlinkRmOvrlpSave: 1
Flags: HW
HStem: -40 320<-12130.4 -11724.5> 1240 320<-12168 -11729.1> 2200 320<-12055.9 -11498>
VStem: -11620 680<424.716 1122.77>
LayerCount: 2
Fore
SplineSet
1059.99609375 2000 m 0
 1059.99609375 2176.73144531 1203.26464844 2320 1379.99609375 2320 c 0
 1556.72753906 2320 1699.99609375 2176.73144531 1699.99609375 2000 c 0
 1699.99609375 1823.26855469 1556.72753906 1680 1379.99609375 1680 c 0
 1203.26464844 1680 1059.99609375 1823.26855469 1059.99609375 2000 c 0
979.99609375 2520 m 1
 1019.99609375 2280 l 3
 699.967167678 2280 419.99609375 1966.16113281 419.99609375 1237.140625 c 0
 419.99609375 456 619.99609375 200 979.99609375 200 c 1
 979.99609375 -45.7109375 l 1
 379.951171875 -45.7080078125 100.00390625 376 100.00390625 1237.140625 c 0
 100.00390625 2012.49316406 499.99609375 2520 979.99609375 2520 c 1
437.124023438 800 m 1
 379.99609375 1080 l 1
 459.99609375 1360 779.99609375 1520 1059.99609375 1520 c 0
 1563.91796875 1520 1819.99609375 1280 1819.99609375 760 c 0
 1819.99609375 320 1499.99609375 -40 979.99609375 -40 c 1
 979.99609375 200 l 1
 1268.43164062 200 1499.99609375 480 1499.99609375 760 c 0
 1499.99609375 1200 1259.99609375 1280 1019.99609375 1280 c 0
 800.018554688 1280 539.99609375 1160 437.124023438 800 c 1
1699.99609375 2000 m 4
 1499.99609375 2120 l 0
 1499.99609375 2200 1219.99609375 2280 1019.99609375 2280 c 3
 979.99609375 2520 l 5
 1459.99609375 2520 1699.99609375 2320 1699.99609375 2000 c 4
EndSplineSet
EndChar
StartChar: seven
Encoding: 55 55 23
Width: 1920
VWidth: 0
Flags: HW
HStem: 0 21G<-14800 -14160> 2000 480<-14832.2 -13813.8>
VStem: -15240 360<1520 1970.52> -14800 640<0 651.505>
LayerCount: 2
Fore
SplineSet
190 2480 m 5
 1750 2480 l 5
 1750 2216 l 5
 1046 1416 950 760 950 0 c 5
 630 0 l 5
 630 787.515625 772.9609375 1486.9609375 1462 2176 c 5
 1336.09765625 2163.8125 1264.47070312 2160 1110 2160 c 6
 550 2160 l 6
 430 2160 390 1959.25683594 390 1840 c 6
 390 1520 l 5
 190 1520 l 5
 190 2480 l 5
EndSplineSet
EndChar
StartChar: eight
Encoding: 56 56 24
Width: 1920
VWidth: 0
UnlinkRmOvrlpSave: 1
Flags: HW
HStem: -40 320<-20446.8 -19830.6> 1820 20G<-19676.1 -19196.1> 1840 21G<-19676.1 -19196.1> 2200 320<-20325.7 -19790.6>
VStem: -21076.1 520<384.752 832.312> -21036.1 640<1329.31 2105.19> -19756.1 640<356.766 772.58> -19676.1 480<1604.58 2073.35>
LayerCount: 2
Fore
SplineSet
661.936523438 1256 m 4
 861.936523438 1160 l 4
 541.936523438 1000 461.936523438 840 461.936523438 640 c 1
 181.936523438 640 l 1
 181.936523438 880 383.229492188 1181.3203125 661.936523438 1256 c 4
1221.93652344 1264 m 4
 1021.93652344 1360 l 4
 1341.93652344 1520 1421.93652344 1640 1421.93652344 1840 c 1
 1701.93652344 1840 l 1
 1701.93652344 1600 1500.64355469 1338.6796875 1221.93652344 1264 c 4
501.936523438 1840 m 3
 501.936523438 1320 1738.03417969 1480.03125 1738.03417969 640 c 3
 1738.03417969 199.833984375 1377.06445312 -40 979.985351562 -40 c 0
 655.10546875 -40 185.831054688 131.478515625 185.831054688 640 c 1
 461.936523438 640 l 1
 461.936523438 400 619.010742188 200 907.79296875 200 c 0
 1232.67285156 200 1461.93652344 320 1461.93652344 640 c 3
 1461.93652344 1200 221.928710938 1039.96972656 221.928710938 1840 c 3
 221.928710938 2280.16601562 582.913085938 2520 943.887695312 2520 c 0
 1268.76660156 2520 1701.93652344 2348.52148438 1701.93652344 1840 c 1
 1421.93652344 1840 l 1
 1421.93652344 2160 1268.77050781 2280 979.98828125 2280 c 0
 670.970703125 2280 501.936523438 2145.59472656 501.936523438 1840 c 3
EndSplineSet
EndChar
StartChar: less
Encoding: 60 60 28
Width: 1680
VWidth: 0
UnlinkRmOvrlpSave: 1
Flags: HW
LayerCount: 2
Fore
SplineSet
1600 1947 m 1
 1600 1667 l 1
 840 1379 l 2
 678 1318 483 1239 240 1198 c 5
 80 1147 l 1
 80 1387 l 1
 1600 1947 l 1
1600 533 m 1
 80 1093 l 1
 80 1333 l 1
 240 1282 l 1
 483 1241 678 1162 840 1101 c 2
 1600 813 l 1
 1600 533 l 1
EndSplineSet
EndChar
StartChar: equal
Encoding: 61 61 29
Width: 1680
VWidth: 0
Flags: HW
HStem: 720 320<80 1600> 1440 320<80 1600>
LayerCount: 2
Fore
SplineSet
80 1720 m 1
 1600 1720 l 1
 1600 1480 l 1
 80 1480 l 1
 80 1720 l 1
80 1000 m 1
 1600 1000 l 1
 1600 760 l 1
 80 760 l 1
 80 1000 l 1
EndSplineSet
EndChar
StartChar: question
Encoding: 63 63 31
Width: 1720
VWidth: 0
UnlinkRmOvrlpSave: 1
Flags: HW
HStem: -20 640<739.115 1180.88> 1840 320<223 400> 2240 320<543.223 1099.75>
VStem: 80 640<1619.12 2017> 80 320<1840 2017> 640 640<79.1152 520.885> 786 254<922.95 1048.2> 1240 600<1627.66 2105.34>
LayerCount: 2
Back
SplineSet
80 1840 m 3xf0
 80 2017 223 2160 400 2160 c 3xe8
 577 2160 720 2017 720 1840 c 3xf0
 720 1663 577 1520 400 1520 c 3xe8
 223 1520 80 1663 80 1840 c 3xf0
80 1840 m 0xf0
 80 2240 360 2560 960 2560 c 3
 1560 2560 1840 2320 1840 1840 c 7
 1840 1200 1040 1160 1040 920 c 1
 840 920 l 1
 802 983 786 1042 786 1096 c 0
 786 1386 1240 1571 1240 1840 c 3
 1240 2040 1120 2240 840 2240 c 0
 600 2240 400 2120 400 1840 c 0xeb
 80 1840 l 0xf0
640 300 m 0xe4
 640 477 783 620 960 620 c 0
 1137 620 1280 477 1280 300 c 0
 1280 123 1137 -20 960 -20 c 0
 783 -20 640 123 640 300 c 0xe4
EndSplineSet
Fore
SplineSet
80 1840 m 0
 80 2016.73144531 223.268554688 2160 400 2160 c 0
 576.731445312 2160 720 2016.73144531 720 1840 c 0
 720 1663.26855469 576.731445312 1520 400 1520 c 0
 223.268554688 1520 80 1663.26855469 80 1840 c 0
80 1840 m 0
 80 2240 360 2560 880 2560 c 0
 1400 2560 1640 2320 1640 1840 c 0
 1640 1280 922.278320312 1246.04589844 980 920 c 5
 800 920 l 1
 617.721679688 1317.34960938 1320 1400 1320 1840 c 0
 1320 2160 1160 2320 800 2320 c 0
 440 2320 240 2120 240 1840 c 0
 80 1840 l 0
560 300 m 0
 560 476.73046875 703.268554688 620 880 620 c 0
 1056.73144531 620 1200 476.73046875 1200 300 c 0
 1200 123.268554688 1056.73144531 -20 880 -20 c 0
 703.268554688 -20 560 123.268554688 560 300 c 0
EndSplineSet
EndChar
StartChar: at
Encoding: 64 64 32
Width: 3440
VWidth: 0
UnlinkRmOvrlpSave: 1
Flags: HW
HStem: -800 320<1178.9 2162.91> -40 360<1270 1865.94> 0 320<2480 2985.53> 1820 20G<2401.56 2680> 2320 320<1298.07 2470.49>
VStem: 80 320<357.159 1469.04> 789 602<520.97 1340.43> 2120 640<-577 -179.115> 2120 76<908 1121.72 1137.73 1520> 2196 44<920 1192> 3160 320<561.21 1649.47>
LayerCount: 2
Fore
SplineSet
2080 -400 m 0
 2080 -223.268554688 2223.26855469 -80 2400 -80 c 0
 2576.73144531 -80 2720 -223.268554688 2720 -400 c 0
 2720 -576.731445312 2576.73144531 -720 2400 -720 c 0
 2223.26855469 -720 2080 -576.731445312 2080 -400 c 0
3120 1120 m 1
 3120 1492.015625 3029.65136719 1792.59960938 2863.65625 2009.88085938 c 0
 2748.34179688 2160.82324219 2595.15625 2275.16894531 2398.41796875 2348.75097656 c 0
 2240.94921875 2407.64648438 2054.96386719 2440 1840 2440 c 0
 1437.26269531 2440 1093.21777344 2320.921875 835.920898438 2115.08496094 c 0
 657.1171875 1972.04199219 518.573242188 1786.28027344 429.892578125 1563.4609375 c 0
 358.938476562 1385.1796875 320 1182.79296875 320 960 c 0
 320 499.956054688 435.424804688 150.395507812 625.719726562 -94.873046875 c 0
 757.973632812 -265.333984375 927.901367188 -388.631835938 1131.13867188 -465.982421875 c 0
 1293.77148438 -527.879882812 1478.18066406 -560 1680 -560 c 1
 1680 -800 l 1
 1452.34570312 -800 1238.90625 -763.837890625 1045.88378906 -690.375 c 0
 804.549804688 -598.524414062 595.830078125 -447.813476562 435.997070312 -241.806640625 c 0
 205.6875 55.037109375 80 460.043945312 80 960 c 0
 80 1211.28125 123.9765625 1443.95019531 206.806640625 1652.07128906 c 0
 310.358398438 1912.25585938 474.783203125 2133.47851562 686.1640625 2302.58300781 c 0
 990.733398438 2546.23828125 1389.40332031 2680 1840 2680 c 0
 2079.35742188 2680 2294.04199219 2644.07128906 2482.38964844 2573.62792969 c 0
 2717.92089844 2485.53613281 2911.29589844 2342.80664062 3054.47851562 2155.38671875 c 0
 3260.71875 1885.42480469 3360 1530.20703125 3360 1120 c 1
 3120 1120 l 1
1680 -800 m 9
 1680 -560 l 17
 1994.31152344 -560 2240 -560 2400 -480 c 1
 2560 -677.127929688 l 1
 2364.11328125 -790.223632812 2080 -800 1680 -800 c 9
2412.52832031 1840 m 1
 2555.20019531 1840 l 1
 2555.20019531 440 l 2
 2555.20019531 335.86328125 2640 240 2720 240 c 0
 2874.07617188 240 3120 440 3120 1120 c 0
 3120 1297.31640625 3360 1148.64160156 3360 1120 c 0
 3360 360 3000 0 2680 0 c 0
 2360 0 2235.20019531 227.896484375 2235.20019531 360 c 2
 2235.20019531 1560 l 1
 2412.52832031 1840 l 1
1643.20019531 -45.7138671875 m 0
 1167.34375 -45.7138671875 835.200195312 332.643554688 835.200195312 920.607421875 c 0
 835.200195312 1508.57128906 1183.40820312 1880.34863281 1643.20019531 1880.34863281 c 0
 2036.73632812 1880.34863281 2213.74023438 1573.43164062 2280 1481.07128906 c 1
 2467.20019531 1828.57128906 l 1
 2259.29980469 987.857421875 l 1
 2239.41992188 1271.80761719 2003.20019531 1640 1643.20019531 1640 c 0
 1372.02832031 1640 1155.20019531 1440 1155.20019531 913.536132812 c 0
 1155.20019531 400 1323.20019531 200 1643.20019531 200 c 0
 2035.20019531 200 2144.29980469 484.766601562 2262.13574219 744.580078125 c 1
 2475.20019531 320 l 1
 2327.56835938 579.276367188 l 1
 2305.46386719 400.872070312 2235.46386719 244.624023438 2111.5078125 132.977539062 c 0
 1987.54785156 21.3310546875 1881.12792969 -45.7138671875 1643.20019531 -45.7138671875 c 0
EndSplineSet
EndChar
StartChar: A
Encoding: 65 65 33
Width: 2640
VWidth: 0
UnlinkRmOvrlpSave: 1
Flags: HW
HStem: 0 320<-80 181 581 1200 1440 1760 2477 2720> 640 320<640 1880> 2460 20G<1071.68 1528.86>
AnchorPoint: "ogonek" 2480 80 basechar 0
AnchorPoint: "cedilla" 1304 80 basechar 0
AnchorPoint: "top" 1320 2560 basechar 0
LayerCount: 2
Back
SplineSet
1080 2480 m 5
 1520 2480 l 5
 2477 320 l 5
 2720 320 l 5
 2720 0 l 5
 1440 0 l 5
 1440 320 l 5
 1760 320 l 5
 1228 1520 l 6
 1203 1577 1168 1675 1152 1736 c 5
 1135 1676 1104 1577 1080 1520 c 6
 581 320 l 5
 1200 320 l 5
 1200 0 l 5
 -80 0 l 5
 -80 320 l 5
 181 320 l 5
 1080 2480 l 5
640 640 m 5
 640 960 l 5
 1880 960 l 5
 1880 640 l 5
 640 640 l 5
EndSplineSet
Fore
SplineSet
1176.65039062 2480 m 1
 1420 2480 l 5
 1378.7372325 2350 l 1
 1254.3671875 2086.0859375 l 1
 1254.3671875 2086.0859375 l 1
 1237.78320312 2026.1796875 1206.59082031 1927.40917969 1182.703125 1870.0234375 c 2
 420.9296875 40 l 1
 199.359375 132.234375 l 1
 1176.65039062 2480 l 1
1600 0 m 1
 1600 240 l 1
 2560 240 l 1
 2560 0 l 1
 1600 0 l 1
1423.34960938 2480 m 1
 2400.640625 132.234375 l 1
 2105.21875 9.2578125 l 1
 1330.640625 1870.0234375 l 1
 1315.1953125 1907.125 l 2
 1292.578125 1963.80273438 1267.41113281 2037.01757812 1254.3671875 2086.0859375 c 1
 1254.3671875 2086.0859375 l 1
 1197.85093513 2322 l 1
 1180 2480 l 1
 1423.34960938 2480 l 1
680 680 m 1
 680 920 l 1
 1960 920 l 1
 1960 680 l 1
 680 680 l 1
880 240 m 1
 880 0 l 1
 80 0 l 1
 80 240 l 1
 880 240 l 1
EndSplineSet
EndChar
StartChar: B
Encoding: 66 66 34
Width: 2240
VWidth: 0
UnlinkRmOvrlpSave: 1
Flags: HW
HStem: 0 320<-34 1522.44> 960 320<594 1756> 2160 320<-34 286 926 1456.38>
VStem: 286 640<320 960 1280 2160> 594 332<960 1280> 1566 720<1470.31 2065.52> 1606 720<399.001 865.817>
AnchorPoint: "cedilla" 1130 80 basechar 0
AnchorPoint: "top" 1126 2560 basechar 0
LayerCount: 2
Back
SplineSet
594 1280 m 1xea
 1086 1280 l 2
 1842 1280 2326 1160 2326 680 c 0
 2326 440 2238 275 2102 167 c 0
 1908 12 1686 0 1006 0 c 2
 -34 0 l 1
 -34 320 l 1
 1166 320 l 2
 1484 320 1606 400 1606 640 c 0
 1606 880 1477 960 1086 960 c 2
 594 960 l 1
 594 1280 l 1xea
286 2160 m 1xf0
 926 2160 l 1
 926 320 l 1
 286 320 l 1
 286 2160 l 1xf0
-34 2480 m 1
 1006 2480 l 2
 1726 2480 1926 2424 2110 2240 c 0
 2229 2121 2286 1934 2286 1740 c 0
 2286 1358 1756 960 1086 960 c 1
 1086 1280 l 1
 1442 1280 1566 1460 1566 1720 c 0xe4
 1566 2020 1498 2160 1166 2160 c 2
 -34 2160 l 1
 -34 2480 l 1
EndSplineSet
Fore
SplineSet
440 200.31640625 m 1
 440 2280 l 1
 760 2280 l 1
 760 200.31640625 l 1
 440 200.31640625 l 1
587.546875 1160 m 1
 1240 1160 l 2
 1847.44726562 1160 2160 1076.92871094 2160 640 c 0
 2160 111.78515625 1794.85644531 0 1000 0 c 2
 120 0 l 1
 120 240 l 1
 1000 240 l 2
 1680 240 1840 320 1840 640 c 0
 1840 880 1720 1000 1160 1000 c 2
 587.546875 1000 l 1
 587.546875 1160 l 1
120 2480 m 1
 1000 2480 l 2
 1760 2480 2120 2306.46386719 2120 1740 c 0
 2120 1358.06445312 1922.07226562 1080 1240 1080 c 2
 640 1080 l 1
 640 1240 l 1
 1160 1240 l 2
 1720 1240 1800 1400 1800 1720 c 0
 1800 2160 1560 2240 1040 2240 c 2
 120 2240 l 1
 120 2480 l 1
EndSplineSet
EndChar
StartChar: C
Encoding: 67 67 35
Width: 2240
VWidth: 0
UnlinkRmOvrlpSave: 1
Flags: HW
HStem: -40 320<938.53 1527.34> 2200 320<900.78 1538.29>
VStem: -180 720<766.786 1713.21> 1900 320<706.061 927.168>
AnchorPoint: "cedilla" 1164 80 basechar 0
AnchorPoint: "top" 1160 2560 basechar 0
LayerCount: 2
Back
SplineSet
1140 2520 m 0
 1498 2520 1781 2417 1980 2240 c 0
 2146 2093 2220 1960 2220 1720 c 1
 1740 1800 l 1
 1659 2108 1469 2200 1180 2200 c 0
 768 2200 540 1767 540 1240 c 0
 540 713 821 280 1220 280 c 0
 1563 280 1851 576 1900 1000 c 1
 2220 920 l 1
 2113 399 1854 -40 1140 -40 c 0
 286 -40 -180 600 -180 1240 c 0
 -180 1880 286 2520 1140 2520 c 0
1580 1720 m 0
 1580 1897 1723 2040 1900 2040 c 0
 2077 2040 2220 1897 2220 1720 c 0
 2220 1543 2077 1400 1900 1400 c 0
 1723 1400 1580 1543 1580 1720 c 0
EndSplineSet
Fore
SplineSet
2149.09667969 1802.82226562 m 1
 1952 1720 l 1
 1823.56347656 2013.09375 1640 2265.64257812 1200 2265.64257812 c 0
 600 2265.64257812 360 1811.30175781 360 1240 c 0
 360 668.698242188 560 200 1120 200 c 0
 1615.04394531 200 1843.01660156 535.5 1920 984 c 1
 2160 944 l 1
 2070.07714844 425.325195312 1761.27636719 -40 1120 -40 c 0
 343.528320312 -40 40 600 40 1240 c 0
 40 1880 343.528320312 2520 1120 2520 c 0
 1666.27050781 2520 2037.02734375 2221.06738281 2149.09667969 1802.82226562 c 1
1520 1720 m 4
 1520 1896.73144531 1663.26855469 2040 1840 2040 c 4
 2016.73144531 2040 2160 1896.73144531 2160 1720 c 4
 2160 1543.26855469 2016.73144531 1400 1840 1400 c 4
 1663.26855469 1400 1520 1543.26855469 1520 1720 c 4
EndSplineSet
EndChar
StartChar: D
Encoding: 68 68 36
Width: 2460
VWidth: 0
Flags: HW
HStem: 0 320<-31 289 929 1558.08> 2160 320<-31 289 929 1560.09>
VStem: 289 640<320 2160> 1889 720<774.958 1705.04>
AnchorPoint: "cedilla" 1253 80 basechar 0
AnchorPoint: "top" 1289 2560 basechar 0
LayerCount: 2
Back
SplineSet
1529 0 m 2
 249 0 l 1
 249 320 l 1
 569 320 l 1
 569 2160 l 1
 249 2160 l 1
 249 2480 l 1
 1529 2480 l 2
 2409 2480 2889 1880 2889 1240 c 0
 2889 600 2409 0 1529 0 c 2
1529 320 m 2
 1955 320 2169 713 2169 1240 c 0
 2169 1767 1969 2160 1529 2160 c 2
 1209 2160 l 1
 1209 320 l 1
 1529 320 l 2
EndSplineSet
Fore
SplineSet
120 2480 m 5
 1200 2480 l 2
 1976.47167969 2480 2440 1880 2440 1240 c 0
 2440 600 1879.59863281 0 1200 0 c 2
 120 0 l 1
 120 240 l 1
 1200 240 l 2
 1760 240 2120 668.698242188 2120 1240 c 0
 2120 1811.30175781 1800 2240 1200 2240 c 2
 120 2240 l 5
 120 2480 l 5
440 200 m 1
 440 2280 l 1
 760 2280 l 1
 760 200 l 1
 440 200 l 1
EndSplineSet
EndChar
StartChar: E
Encoding: 69 69 37
Width: 2200
VWidth: 0
Flags: HW
HStem: 0 320<-40 280 920 1752.16> 960 320<920 1280> 2160 320<-40 280 920 1712.16>
VStem: 280 640<320 960 1280 2160> 1280 320<600 960 1280 1640> 1760 360<1680 2130.52> 1800 360<349.48 800>
AnchorPoint: "ogonek" 1940 80 basechar 0
AnchorPoint: "cedilla" 1084 80 basechar 0
AnchorPoint: "top" 1080 2560 basechar 0
LayerCount: 2
Back
SplineSet
-40 2480 m 1xfa
 2120 2480 l 1
 2120 1680 l 1
 1760 1680 l 1
 1760 1840 l 2xfc
 1760 1959 1720 2160 1600 2160 c 2
 920 2160 l 1
 920 1280 l 1
 1280 1280 l 1
 1280 1640 l 1
 1600 1640 l 1
 1600 600 l 1
 1280 600 l 1
 1280 960 l 1
 920 960 l 1
 920 320 l 1
 1640 320 l 2
 1760 320 1800 521 1800 640 c 2
 1800 800 l 1
 2160 800 l 1
 2160 0 l 1
 -40 0 l 1
 -40 320 l 1
 280 320 l 1
 280 2160 l 1
 -40 2160 l 1
 -40 2480 l 1xfa
EndSplineSet
Fore
SplineSet
120 2480 m 5
 2000 2480 l 5
 2000 1680 l 5
 1760 1680 l 5
 1760 1920 l 6
 1760 2039.25683594 1720 2240 1600 2240 c 6
 760 2240 l 5
 760 1240 l 5
 1280 1240 l 5
 1280 1640 l 5
 1520 1640 l 5
 1520 600 l 5
 1280 600 l 5
 1280 1000 l 5
 760 1000 l 5
 760 240 l 5
 1640 240 l 6
 1760 240 1800 440.743164062 1800 560 c 6
 1800 800 l 5
 2040 800 l 5
 2040 0 l 5
 120 0 l 5
 120 240 l 5
 440 240 l 5
 440 2240 l 5
 120 2240 l 5
 120 2480 l 5
EndSplineSet
EndChar
StartChar: F
Encoding: 70 70 38
Width: 2120
VWidth: 0
Flags: HW
HStem: 0 320<-39 281 921 1481> 960 320<921 1281> 2160 320<-39 281 921 1713.16>
VStem: 281 640<320 960 1280 2160> 1281 320<600 960 1280 1640> 1761 360<1680 2130.52>
AnchorPoint: "cedilla" 605 80 basechar 0
AnchorPoint: "top" 1081 2560 basechar 0
LayerCount: 2
Back
SplineSet
1481 320 m 1
 1481 0 l 1
 -39 0 l 1
 -39 320 l 1
 281 320 l 1
 281 2160 l 1
 -39 2160 l 1
 -39 2480 l 1
 2121 2480 l 1
 2121 1680 l 1
 1761 1680 l 1
 1761 1840 l 2
 1761 1959 1721 2160 1601 2160 c 2
 921 2160 l 1
 921 1280 l 1
 1281 1280 l 1
 1281 1640 l 1
 1601 1640 l 1
 1601 600 l 1
 1281 600 l 1
 1281 960 l 1
 921 960 l 1
 921 320 l 1
 1481 320 l 1
EndSplineSet
Fore
SplineSet
120 2480 m 5
 2000 2480 l 5
 2000 1680 l 5
 1760 1680 l 5
 1760 1920 l 6
 1760 2039.25683594 1720 2240 1600 2240 c 6
 760 2240 l 5
 760 1240 l 5
 1280 1240 l 5
 1280 1640 l 5
 1520 1640 l 5
 1520 600 l 5
 1280 600 l 5
 1280 1000 l 5
 760 1000 l 5
 760 240 l 5
 1320 240 l 5
 1320 0 l 5
 120 0 l 5
 120 240 l 5
 440 240 l 5
 440 2240 l 5
 120 2240 l 5
 120 2480 l 5
EndSplineSet
EndChar
StartChar: G
Encoding: 71 71 39
Width: 2360
VWidth: 0
UnlinkRmOvrlpSave: 1
Flags: HW
HStem: -40 320<948.53 1560.26> 0 21G<2003.33 2190> 920 360<1070 1550 2190 2430> 2200 320<910.78 1548.29>
VStem: -170 720<766.786 1713.21> 1550 640<240 920>
AnchorPoint: "cedilla" 1194 80 basechar 0
AnchorPoint: "top" 1150 2560 basechar 0
LayerCount: 2
Back
SplineSet
1150 2520 m 0xbc
 1508 2520 1791 2417 1990 2240 c 0
 2156 2093 2230 1960 2230 1720 c 1
 1750 1800 l 1
 1669 2108 1479 2200 1190 2200 c 0
 778 2200 550 1767 550 1240 c 0
 550 713 831 280 1230 280 c 0
 1573 280 1741 576 1790 1000 c 1
 2110 920 l 1
 2003 399 1864 -40 1150 -40 c 0
 296 -40 -170 600 -170 1240 c 0
 -170 1880 296 2520 1150 2520 c 0xbc
1590 1720 m 0
 1590 1897 1733 2040 1910 2040 c 0
 2087 2040 2230 1897 2230 1720 c 0
 2230 1543 2087 1400 1910 1400 c 0
 1733 1400 1590 1543 1590 1720 c 0
1070 1280 m 1
 2430 1280 l 1
 2430 920 l 1
 2190 920 l 1
 2190 0 l 1
 2030 0 l 1x7c
 1710 240 l 1
 1550 200 l 1
 1550 920 l 1
 1070 920 l 1
 1070 1280 l 1
EndSplineSet
Fore
SplineSet
1120 2520 m 0
 1666.27050781 2520 2037.02441406 2221.06542969 2149.09375 1802.8203125 c 1
 1952 1720 l 1
 1823.56347656 2013.09375 1640 2281.640625 1200 2281.640625 c 0
 600 2281.640625 360 1811.30175781 360 1240 c 0
 360 668.698242188 560 200 1120 200 c 0
 1520.22460938 200 1816 423 1831 993 c 1
 2050 933 l 5
 1966 216 1618 -40 1120 -40 c 0
 343.528320312 -40 40 600 40 1240 c 0
 40 1880 343.528320312 2520 1120 2520 c 0
1520 1720 m 0
 1520 1896.73144531 1663.26855469 2040 1840 2040 c 0
 2016.73144531 2040 2160 1896.73144531 2160 1720 c 0
 2160 1543.26855469 2016.73144531 1400 1840 1400 c 0
 1663.26855469 1400 1520 1543.26855469 1520 1720 c 0
1240 1240 m 1
 2320 1240 l 1
 2320 960 l 1
 2080 960 l 1
 2080 0 l 1
 1960 0 l 1
 1760 240 l 1
 1760 960 l 1
 1240 960 l 1
 1240 1240 l 1
EndSplineSet
EndChar
StartChar: H
Encoding: 72 72 40
Width: 2720
VWidth: 0
UnlinkRmOvrlpSave: 1
Flags: HW
HStem: 0 320<-50 270 910 1230 1470 1790 2430 2750> 960 320<830 1870> 2160 320<-50 270 910 1230 1470 1790 2430 2750>
VStem: 830 80<960 1280> 1790 80<960 1280>
AnchorPoint: "cedilla" 1354 80 basechar 0
AnchorPoint: "top" 1350 2560 basechar 0
LayerCount: 2
Back
SplineSet
-50 2480 m 1
 1230 2480 l 1
 1230 2160 l 1
 910 2160 l 1
 910 320 l 1
 1230 320 l 1
 1230 0 l 1
 -50 0 l 1
 -50 320 l 1
 270 320 l 1
 270 2160 l 1
 -50 2160 l 1
 -50 2480 l 1
1470 2480 m 1
 2750 2480 l 1
 2750 2160 l 1
 2430 2160 l 1
 2430 320 l 1
 2750 320 l 1
 2750 0 l 1
 1470 0 l 1
 1470 320 l 1
 1790 320 l 1
 1790 2160 l 1
 1470 2160 l 1
 1470 2480 l 1
830 1280 m 1
 1870 1280 l 1
 1870 960 l 1
 830 960 l 1
 830 1280 l 1
EndSplineSet
Fore
SplineSet
120 0 m 1
 120 240 l 1
 480 240 l 1
 480 2240 l 1
 120 2240 l 1
 120 2480 l 1
 1080 2480 l 1
 1080 2240 l 1
 720 2240 l 1
 720 240 l 1
 1080 240 l 1
 1080 0 l 1
 120 0 l 1
640 1000 m 1
 640 1240 l 1
 2120 1240 l 1
 2120 1000 l 1
 640 1000 l 1
1640 2240 m 1
 1640 2480 l 1
 2600 2480 l 1
 2600 2240 l 1
 2280 2240 l 1
 2280 240 l 1
 2600 240 l 5
 2600 0 l 5
 1640 0 l 1
 1640 240 l 1
 1960 240 l 1
 1960 2240 l 1
 1640 2240 l 1
EndSplineSet
EndChar
StartChar: I
Encoding: 73 73 41
Width: 1200
VWidth: 0
Flags: HW
HStem: 0 320<-30 290 930 1250> 2160 320<-30 290 930 1250>
VStem: 290 640<320 2160>
AnchorPoint: "ogonek" 910 80 basechar 0
AnchorPoint: "cedilla" 614 80 basechar 0
AnchorPoint: "top" 610 2560 basechar 0
LayerCount: 2
Fore
SplineSet
120 0 m 1
 120 240 l 1
 440 240 l 1
 440 2240 l 1
 120 2240 l 1
 120 2480 l 1
 1080 2480 l 1
 1080 2240 l 1
 760 2240 l 1
 760 240 l 1
 1080 240 l 1
 1080 0 l 1
 120 0 l 1
EndSplineSet
EndChar
StartChar: J
Encoding: 74 74 42
Width: 1980
VWidth: 0
UnlinkRmOvrlpSave: 1
Flags: HW
HStem: -40 320<334.478 870.363> 320 320<63 240> 2160 320<640 1040 1680 2000>
VStem: -80 640<463 860.885> -80 320<463 640> 1040 640<449.219 2160>
AnchorPoint: "cedilla" 824 80 basechar 0
AnchorPoint: "top" 1340 2560 basechar 0
LayerCount: 2
Back
SplineSet
1040 2160 m 1xec
 1680 2160 l 1
 1680 760 l 2
 1680 269 1320 -40 760 -40 c 0
 400 -40 -80 131 -80 640 c 1xf4
 240 640 l 1
 240 400 400 280 640 280 c 0
 840 280 1040 440 1040 760 c 2
 1040 2160 l 1xec
560 640 m 0
 560 463 417 320 240 320 c 0xec
 63 320 -80 463 -80 640 c 0xf4
 -80 817 63 960 240 960 c 0xec
 417 960 560 817 560 640 c 0
640 2160 m 1
 640 2480 l 1
 2000 2480 l 1
 2000 2160 l 1
 640 2160 l 1
EndSplineSet
Fore
SplineSet
1200 2240 m 5
 1520 2240 l 5
 1520 760 l 6
 1520 268.893554688 1337.39648438 -40 840 -40 c 4
 480 -40 40 131.478515625 40 640 c 5
 280 640 l 5
 280 360 480 200 760 200 c 4
 1000 200 1200 320 1200 760 c 6
 1200 2240 l 5
680 640 m 4
 680 463.268554688 536.731445312 320 360 320 c 4
 183.268554688 320 40 463.268554688 40 640 c 4
 40 816.731445312 183.268554688 960 360 960 c 4
 536.731445312 960 680 816.731445312 680 640 c 4
800 2240 m 5
 800 2480 l 5
 1840 2480 l 5
 1840 2240 l 5
 800 2240 l 5
EndSplineSet
EndChar
StartChar: K
Encoding: 75 75 43
Width: 2680
VWidth: 0
UnlinkRmOvrlpSave: 1
Flags: HW
HStem: 0 320<-40 280 920 1120 1360 1640 2403 2680> 316 4<1640 2403> 2160 320<-40 280 920 1240 1520 1879 2360 2640>
VStem: 280 640<320 2160>
AnchorPoint: "cedilla" 1244 80 basechar 0
AnchorPoint: "top" 1360 2560 basechar 0
LayerCount: 2
Back
SplineSet
1360 320 m 1xb0
 2680 320 l 1
 2680 0 l 1
 1360 0 l 1
 1360 320 l 1xb0
1520 2160 m 1
 1520 2480 l 1
 2640 2480 l 1
 2640 2160 l 1
 1520 2160 l 1
1879 2160 m 1
 2360 2174 l 1
 1400 1120 l 1
 1014 1210 l 1
 1879 2160 l 1
1014 1210 m 1
 1640 1410 l 1
 2403 320 l 1xb0
 1640 316 l 1x70
 1014 1210 l 1
-40 2480 m 1
 1240 2480 l 1
 1240 2160 l 1
 920 2160 l 1
 920 320 l 1
 1120 320 l 1
 1120 0 l 1
 -40 0 l 1
 -40 320 l 1
 280 320 l 1
 280 2160 l 1
 -40 2160 l 1
 -40 2480 l 1
EndSplineSet
Fore
SplineSet
440 240 m 5
 440 2240 l 5
 760 2240 l 5
 760 240 l 5
 440 240 l 5
120 2240 m 5
 120 2480 l 5
 1080 2480 l 5
 1080 2240 l 5
 120 2240 l 5
120 0 m 5
 120 240 l 5
 1040 240 l 5
 1040 0 l 5
 120 0 l 5
1931.4765625 2240 m 5
 2266.2734375 2240 l 5
 1310.5859375 1257.375 l 5
 2300.0625 240 l 5
 1853.6796875 240 l 5
 920.140625 1199.8671875 l 5
 920.000976562 1200 l 5
 920.000976562 1200.0078125 l 5
 920.140625 1200.140625 l 5
 1931.4765625 2240 l 5
1680 2240 m 5
 1680 2480 l 5
 2480 2480 l 5
 2480 2240 l 5
 1680 2240 l 5
1520 0 m 5
 1520 240 l 5
 2560 240 l 5
 2560 0 l 5
 1520 0 l 5
EndSplineSet
EndChar
StartChar: L
Encoding: 76 76 44
Width: 2160
VWidth: 0
Flags: HW
HStem: 0 320<-40 280 920 1672.16> 2160 320<-40 280 920 1320>
VStem: 280 640<320 2160> 1720 360<349.48 960>
AnchorPoint: "cedilla" 1084 80 basechar 0
AnchorPoint: "top" 640 2560 basechar 0
LayerCount: 2
Back
SplineSet
-40 2480 m 1
 1320 2480 l 1
 1320 2160 l 1
 920 2160 l 1
 920 320 l 1
 1560 320 l 2
 1680 320 1720 521 1720 640 c 2
 1720 960 l 1
 2080 960 l 1
 2080 0 l 1
 -40 0 l 1
 -40 320 l 1
 280 320 l 1
 280 2160 l 1
 -40 2160 l 1
 -40 2480 l 1
EndSplineSet
Fore
SplineSet
120 2240 m 1
 120 2480 l 1
 1160 2480 l 1
 1160 2240 l 1
 760 2240 l 1
 760 240 l 1
 1600 240 l 2
 1720 240 1760 440.743164062 1760 560 c 2
 1760 960 l 1
 2000 960 l 1
 2000 0 l 1
 120 0 l 1
 120 240 l 1
 440 240 l 1
 440 2240 l 1
 120 2240 l 1
EndSplineSet
EndChar
StartChar: M
Encoding: 77 77 45
Width: 3160
VWidth: 0
Flags: HW
HStem: 0 320<40 360 760 1080 1960 2280 2920 3240> 2160 320<40 360 2920 3240>
VStem: 360 400<320 1768> 2280 640<320 1763>
AnchorPoint: "cedilla" 1524 80 basechar 0
AnchorPoint: "top" 1600 2560 basechar 0
LayerCount: 2
Back
SplineSet
40 2480 m 1
 1080 2480 l 1
 1698 1308 l 1
 2283 2480 l 1
 3240 2480 l 1
 3240 2160 l 1
 2920 2160 l 1
 2920 320 l 1
 3240 320 l 1
 3240 0 l 1
 1960 0 l 1
 1960 320 l 1
 2280 320 l 1
 2280 1763 l 1
 1640 480 l 1
 1440 480 l 1
 760 1768 l 1
 760 320 l 1
 1080 320 l 1
 1080 0 l 1
 40 0 l 1
 40 320 l 1
 360 320 l 1
 360 2160 l 1
 40 2160 l 1
 40 2480 l 1
EndSplineSet
Fore
SplineSet
440 240 m 1
 440 2240 l 1
 680 2240 l 1
 680 240 l 1
 440 240 l 1
120 2240 m 1
 120 2480 l 1
 680 2480 l 1
 680 2240 l 1
 120 2240 l 1
120 0 m 1
 120 240 l 1
 1000 240 l 1
 1000 0 l 1
 120 0 l 1
2400 240 m 1
 2400 2240 l 1
 2720 2240 l 1
 2720 240 l 1
 2400 240 l 1
2400 2240 m 1
 2400 2480 l 1
 3040 2480 l 1
 3040 2240 l 1
 2400 2240 l 1
2080 0 m 1
 2080 240 l 1
 3040 240 l 1
 3040 0 l 1
 2080 0 l 1
2242.04199219 2480 m 1
 2502.00195312 2480 l 1
 1669.47851562 480 l 1
 1406.12695312 480 l 1
 1591.75976562 873.9140625 l 2
 1608.34375 933.8203125 1639.53710938 1032.59082031 1663.42480469 1089.9765625 c 2
 2242.04199219 2480 l 1
574.244140625 2480 m 1
 920.853515625 2480 l 1
 1499.47851562 1089.9765625 l 1
 1514.92382812 1052.875 l 2
 1537.54199219 996.197265625 1562.70800781 922.982421875 1575.75195312 873.9140625 c 2
 1670.11914062 480 l 1
 1406.76757812 480 l 1
 574.244140625 2480 l 1
EndSplineSet
EndChar
StartChar: N
Encoding: 78 78 46
Width: 2620
VWidth: 0
Flags: HW
HStem: 0 320<-40 280 680 1000> 2160 320<-40 280 1560 1880 2280 2600>
VStem: 280 400<320 1600> 1880 400<1268 2160>
AnchorPoint: "cedilla" 1284 80 basechar 0
AnchorPoint: "top" 1280 2560 basechar 0
LayerCount: 2
Back
SplineSet
-40 2480 m 1
 850 2480 l 1
 1880 1268 l 1
 1880 2160 l 1
 1560 2160 l 1
 1560 2480 l 1
 2600 2480 l 1
 2600 2160 l 1
 2280 2160 l 1
 2280 0 l 1
 2040 0 l 1
 680 1600 l 1
 680 320 l 1
 1000 320 l 1
 1000 0 l 1
 -40 0 l 1
 -40 320 l 1
 280 320 l 1
 280 2160 l 1
 -40 2160 l 1
 -40 2480 l 1
EndSplineSet
Fore
SplineSet
440 240 m 1
 440 2240 l 1
 680 2240 l 1
 680 240 l 1
 440 240 l 1
120 2240 m 1
 120 2480 l 1
 680 2480 l 1
 680 2240 l 1
 120 2240 l 1
120 0 m 1
 120 240 l 1
 1000 240 l 1
 1000 0 l 1
 120 0 l 1
2200 2240 m 1
 2200 240 l 1
 1960 240 l 1
 1960 2240 l 1
 2200 2240 l 1
2520 2480 m 1
 2520 2240 l 1
 1640 2240 l 1
 1640 2480 l 1
 2520 2480 l 1
680 2480 m 1
 752.640625 2480 l 1
 2160 297.1015625 l 1
 2200 296.231445312 l 1
 2200 0 l 1
 1970.796875 0 l 1
 680 2002.1171875 l 1
 680 2480 l 1
EndSplineSet
EndChar
StartChar: O
Encoding: 79 79 47
Width: 2400
VWidth: 0
Flags: HW
HStem: -40 320<918.91 1461.09> 2200 320<916.12 1463.88>
VStem: -130 720<766.786 1713.21> 1790 720<766.786 1713.21>
AnchorPoint: "ogonek" 1730 80 basechar 0
AnchorPoint: "cedilla" 1200 80 basechar 0
AnchorPoint: "top" 1200 2560 basechar 0
LayerCount: 2
Back
SplineSet
1190 2520 m 0
 2044 2520 2510 1880 2510 1240 c 0
 2510 600 2044 -40 1190 -40 c 0
 336 -40 -130 600 -130 1240 c 0
 -130 1880 336 2520 1190 2520 c 0
1190 2200 m 0
 778 2200 590 1767 590 1240 c 0
 590 713 791 280 1190 280 c 0
 1589 280 1790 713 1790 1240 c 0
 1790 1767 1602 2200 1190 2200 c 0
EndSplineSet
Fore
SplineSet
1200 2520 m 0
 1976.47167969 2520 2360 1880 2360 1240 c 0
 2360 600 1976.47167969 -40 1200 -40 c 0
 423.528320312 -40 40 600 40 1240 c 0
 40 1880 423.528320312 2520 1200 2520 c 0
1200 2280 m 0
 595 2280 360 1811.30175781 360 1240 c 0
 360 668.698242188 614.200195312 200 1200 200 c 0
 1785.79980469 200 2040 668.698242188 2040 1240 c 0
 2040 1811.30175781 1805 2280 1200 2280 c 0
EndSplineSet
EndChar
StartChar: P
Encoding: 80 80 48
Width: 2180
VWidth: 0
UnlinkRmOvrlpSave: 1
Flags: HW
HStem: 0 320<-40 280 920 1320> 960 320<920 1411.08> 2160 320<-40 280 920 1427.05>
VStem: 280 640<320 960 1280 2160> 1560 720<1428.62 2039.72>
AnchorPoint: "cedilla" 604 80 basechar 0
AnchorPoint: "top" 1160 2560 basechar 0
LayerCount: 2
Back
SplineSet
280 2160 m 1
 920 2160 l 1
 920 320 l 1
 280 320 l 1
 280 2160 l 1
-40 2480 m 1
 1000 2480 l 2
 1720 2480 1920 2424 2104 2240 c 0
 2223 2121 2280 1934 2280 1740 c 0
 2280 1160 1750 960 1080 960 c 2
 920 960 l 1
 920 1280 l 1
 1080 1280 l 2
 1436 1280 1560 1460 1560 1720 c 0
 1560 1960 1480 2160 1160 2160 c 2
 -40 2160 l 1
 -40 2480 l 1
-40 0 m 1
 -40 320 l 1
 1320 320 l 1
 1320 0 l 1
 -40 0 l 1
EndSplineSet
Fore
SplineSet
440 200.31640625 m 1
 440 2280 l 1
 760 2280 l 1
 760 200.31640625 l 1
 440 200.31640625 l 1
120 2480 m 1
 1000 2480 l 2
 1760 2480 2120 2306.46386719 2120 1740 c 0
 2120 1358.06445312 1922.07226562 1000 1240 1000 c 2
 640 1000 l 1
 640 1240 l 1
 1160 1240 l 2
 1720 1240 1800 1400 1800 1720 c 0
 1800 2160 1560 2240 1040 2240 c 2
 120 2240 l 1
 120 2480 l 1
120 0 m 1
 120 240 l 1
 1160 240 l 1
 1160 0 l 1
 120 0 l 1
EndSplineSet
EndChar
StartChar: Q
Encoding: 81 81 49
Width: 2400
VWidth: 0
UnlinkRmOvrlpSave: 1
Flags: HW
HStem: -800 320<1332.21 1827.1> -40 160<642 1268.92> -20 20G<1941.5 2118.5> 2200 320<916.12 1463.88>
VStem: -130 720<766.786 1713.21> 1710 640<-497 -99.1152> 1790 720<766.786 1713.21>
AnchorPoint: "cedilla" 794 -400 basechar 0
AnchorPoint: "top" 1190 2560 basechar 0
LayerCount: 2
Back
SplineSet
1190 2520 m 0xda
 2044 2520 2510 1880 2510 1240 c 0
 2510 600 2044 -40 1190 -40 c 0
 336 -40 -130 600 -130 1240 c 0
 -130 1880 336 2520 1190 2520 c 0xda
1190 2200 m 0
 778 2200 590 1767 590 1240 c 0
 590 713 791 280 1190 280 c 0
 1589 280 1790 713 1790 1240 c 0
 1790 1767 1602 2200 1190 2200 c 0
2350 -320 m 0xbc
 2350 -497 2207 -640 2030 -640 c 0
 1853 -640 1710 -497 1710 -320 c 0
 1710 -143 1853 0 2030 0 c 0
 2207 0 2350 -143 2350 -320 c 0xbc
2256 -546 m 0
 2126 -676 1982 -800 1710 -800 c 0
 1110 -800 1230 -520 402 -520 c 1
 642 120 l 1
 1282 120 l 1xdc
 1150 -320 l 1
 1351 -364 1390 -480 1630 -480 c 3
 1763 -480 1961 -465 2030 -320 c 0
 2256 -546 l 0
EndSplineSet
Fore
SplineSet
1200 2520 m 4
 1976.47167969 2520 2360 1880 2360 1240 c 4
 2360 600 1976.47167969 -40 1200 -40 c 4
 423.528320312 -40 40 600 40 1240 c 4
 40 1880 423.528320312 2520 1200 2520 c 4
1200 2280 m 4
 595 2280 360 1811.30175781 360 1240 c 4
 360 668.698242188 614.200195312 200 1200 200 c 4
 1785.79980469 200 2040 668.698242188 2040 1240 c 4
 2040 1811.30175781 1805 2280 1200 2280 c 4
825.916015625 191.9609375 m 1
 1120 40 l 1
 914.311523438 -480 l 1
 560 -520 l 1
 825.916015625 191.9609375 l 1
2237.12792969 -480 m 0
 2121.65625 -680 2000 -800 1600 -800 c 0
 1200 -800 1000 -520 560 -520 c 1
 840 -320 l 1
 1200 -320 1320 -560 1600 -560 c 0
 1880 -560 1978.88769531 -505.846679688 2040 -400 c 0
 2237.12792969 -480 l 0
1640 -320 m 0
 1640 -143.268554688 1783.26855469 0 1960 0 c 0
 2136.73144531 0 2280 -143.268554688 2280 -320 c 0
 2280 -496.731445312 2136.73144531 -640 1960 -640 c 0
 1783.26855469 -640 1640 -496.731445312 1640 -320 c 0
EndSplineSet
EndChar
StartChar: R
Encoding: 82 82 50
Width: 2420
VWidth: 0
UnlinkRmOvrlpSave: 1
Flags: HW
HStem: -40 320<1810 2224.32> 0 320<-40 280 920 1240> 960 320<920 1436> 960 280<1200 1640> 2160 320<-40 280 920 1427.05>
VStem: 280 640<320 960 1280 2160> 1560 720<1428.62 2039.72> 2278 282<300.49 613.949>
AnchorPoint: "cedilla" 1244 80 basechar 0
AnchorPoint: "top" 1200 2560 basechar 0
LayerCount: 2
Back
SplineSet
280 2160 m 1x4c
 920 2160 l 1
 920 320 l 1
 280 320 l 1
 280 2160 l 1x4c
-40 2480 m 1
 1000 2480 l 2
 1720 2480 1920 2424 2104 2240 c 0
 2223 2121 2280 1934 2280 1740 c 0
 2280 1160 1750 1043 1080 1043 c 6
 920 1043 l 5
 920 1280 l 1
 1080 1280 l 2
 1436 1280 1560 1460 1560 1720 c 0x2e
 1560 1960 1480 2160 1160 2160 c 2
 -40 2160 l 1
 -40 2480 l 1
-40 0 m 1x4c
 -40 320 l 1
 1240 320 l 1
 1240 0 l 1
 -40 0 l 1x4c
1200 1144 m 0x1d
 1640 1144 1960 1160 2040 640 c 0
 2071 438 2080 280 2148 280 c 0
 2241 280 2259 481 2278 640 c 1
 2560 611 l 1
 2522 251 2485 -40 2035 -40 c 0
 1585 -40 1493 166 1360 640 c 0
 1293 878 1240 960 1040 960 c 0xad
 912 960 l 1
 912 1144 l 1
 1200 1144 l 0x1d
EndSplineSet
Fore
SplineSet
440 200.31640625 m 5
 440 2280 l 5
 760 2280 l 5
 760 200.31640625 l 5
 440 200.31640625 l 5
120 2480 m 5
 1000 2480 l 6
 1760 2480 2120 2306.46386719 2120 1740 c 4
 2120 1358.06445312 1922.07226562 1080 1240 1080 c 6
 640 1080 l 5
 640 1240 l 5
 1160 1240 l 6
 1720 1240 1800 1400 1800 1720 c 4
 1800 2160 1560 2240 1040 2240 c 6
 120 2240 l 5
 120 2480 l 5
760 1160 m 5
 1280 1160 l 6
 1520 1160 1680 1000 1760 720 c 4
 1874.28417969 320 1920 200 2016.91992188 200 c 4
 2160 200 2208.78808594 398.700195312 2240 640 c 5
 2400 640 l 5
 2338.3359375 77.685546875 2200 -40 1960 -40 c 4
 1680 -40 1600 80 1480 560 c 4
 1429.78027344 760.873046875 1360 1000 1120 1000 c 6
 760 1000 l 5
 760 1160 l 5
120 0 m 5
 120 240 l 5
 1080 240 l 5
 1080 0 l 5
 120 0 l 5
EndSplineSet
EndChar
StartChar: S
Encoding: 83 83 51
Width: 1880
VWidth: 0
UnlinkRmOvrlpSave: 1
Flags: HW
HStem: -40 320<466.979 1191.83> 320 320<103.004 280.004> 1840 320<1560 1737> 2200 320<713.386 1402.16>
VStem: -39.9961 640<463 860.885> -39.9961 320<463 640> 0.00390625 640<1707.46 2105.19> 1240 640<1619.12 2017> 1280 640<382.596 772.537> 1560 320<1840 2017>
AnchorPoint: "cedilla" 944.004 80 basechar 0
AnchorPoint: "top" 940.004 2560 basechar 0
LayerCount: 2
Back
SplineSet
640.00390625 1920 m 0xf240
 640.00390625 1322 1920.00390625 1554 1920.00390625 720 c 3
 1920.00390625 280 1520.00390625 -40 960.00390625 -40 c 0
 600.00390625 -40 -39.99609375 131 -39.99609375 640 c 1xf880
 280.00390625 640 l 1
 280.00390625 400 520.00390625 280 840.00390625 280 c 0
 1120.00390625 280 1280.00390625 360 1280.00390625 560 c 0xf480
 1280.00390625 1158 0.00390625 926 0.00390625 1760 c 3
 0.00390625 2200 360.00390625 2520 920.00390625 2520 c 0
 1280.00390625 2520 1880.00390625 2349 1880.00390625 1840 c 1xf3
 1560.00390625 1840 l 1
 1560.00390625 2080 1360.00390625 2200 1040.00390625 2200 c 0
 760.00390625 2200 640.00390625 2120 640.00390625 1920 c 0xf240
600.00390625 640 m 0
 600.00390625 463 457.00390625 320 280.00390625 320 c 0xf4
 103.00390625 320 -39.99609375 463 -39.99609375 640 c 0xf8
 -39.99609375 817 103.00390625 960 280.00390625 960 c 0xf4
 457.00390625 960 600.00390625 817 600.00390625 640 c 0
1240.00390625 1840 m 0xf1
 1240.00390625 2017 1383.00390625 2160 1560.00390625 2160 c 0xf040
 1737.00390625 2160 1880.00390625 2017 1880.00390625 1840 c 0xf1
 1880.00390625 1663 1737.00390625 1520 1560.00390625 1520 c 0xf040
 1383.00390625 1520 1240.00390625 1663 1240.00390625 1840 c 0xf1
EndSplineSet
Fore
SplineSet
720.00390625 640 m 0
 720.00390625 463.26953125 576.735351562 320 400.00390625 320 c 0
 223.272460938 320 80.00390625 463.26953125 80.00390625 640 c 0
 80.00390625 816.731445312 223.272460938 960 400.00390625 960 c 0
 576.735351562 960 720.00390625 816.731445312 720.00390625 640 c 0
1120.00390625 1840 m 0
 1120.00390625 2016.73144531 1263.27246094 2160 1440.00390625 2160 c 0
 1616.73535156 2160 1760.00390625 2016.73144531 1760.00390625 1840 c 0
 1760.00390625 1663.26855469 1616.73535156 1520 1440.00390625 1520 c 0
 1263.27246094 1520 1120.00390625 1663.26855469 1120.00390625 1840 c 0
400.00390625 1840 m 0
 400.00390625 1320 1791.93945312 1480 1800 640 c 0
 1804.22363281 199.850585938 1400.0078125 -40 960.00390625 -40 c 0
 600.00390625 -40 80 131.478515625 80 640 c 1
 320 640 l 1
 320 400 560.0078125 200 880.0078125 200 c 0
 1240.0078125 200 1520.00390625 320 1520.00390625 640 c 0
 1520.00390625 1200 127.67578125 1040 120 1840 c 0
 115.776367188 2280.14941406 520.0078125 2520 920.00390625 2520 c 0
 1280.00390625 2520 1760 2348.52148438 1760 1840 c 1
 1520.00390625 1840 l 1
 1520.00390625 2160 1280.0078125 2280 960.0078125 2280 c 0
 617.583984375 2280 400.00390625 2145.59472656 400.00390625 1840 c 0
EndSplineSet
EndChar
StartChar: T
Encoding: 84 84 52
Width: 2280
VWidth: 0
Flags: HW
HStem: 0 320<500 820 1460 1780> 1680 800<-20 340 1940 2300> 2160 320<387.836 820 1460 1892.16>
VStem: -20 360<1680 2130.52> 820 640<320 2160> 1940 360<1680 2130.52>
CounterMasks: 1 1c
AnchorPoint: "cedilla" 1124 80 basechar 0
AnchorPoint: "top" 1160 2560 basechar 0
LayerCount: 2
Back
SplineSet
-20 2480 m 1xdc
 2300 2480 l 1
 2300 1680 l 1
 1940 1680 l 1xdc
 1940 1840 l 2
 1940 1959 1900 2160 1780 2160 c 2
 1460 2160 l 1
 1460 320 l 1
 1780 320 l 1
 1780 0 l 1
 500 0 l 1
 500 320 l 1
 820 320 l 1
 820 2160 l 1
 500 2160 l 2xbc
 380 2160 340 1959 340 1840 c 2
 340 1680 l 1
 -20 1680 l 1
 -20 2480 l 1xdc
EndSplineSet
Fore
SplineSet
100 2480 m 1
 2180 2480 l 1
 2180 1680 l 1
 1940 1680 l 1
 1940 1920 l 2
 1940 2039.25683594 1900 2240 1780 2240 c 2
 1300 2240 l 1
 1300 240 l 1
 1620 240 l 1
 1620 0 l 1
 660 0 l 1
 660 240 l 1
 980 240 l 1
 980 2240 l 1
 500 2240 l 2
 380 2240 340 2039.25683594 340 1920 c 2
 340 1680 l 1
 100 1680 l 1
 100 2480 l 1
EndSplineSet
EndChar
StartChar: U
Encoding: 85 85 53
Width: 2520
VWidth: 0
UnlinkRmOvrlpSave: 1
Flags: HW
HStem: -40 320<1163.98 1722.54> 2160 320<0 320 960 1280 1520 2560>
VStem: 320 640<522.734 2160> 1920 320<497.621 2160>
AnchorPoint: "ogonek" 1820 80 basechar 0
AnchorPoint: "cedilla" 1304 80 basechar 0
AnchorPoint: "top" 1300 2560 basechar 0
LayerCount: 2
Back
SplineSet
0 2480 m 1
 1280 2480 l 1
 1280 2160 l 1
 0 2160 l 1
 0 2480 l 1
1520 2480 m 1
 2560 2480 l 1
 2560 2160 l 1
 1520 2160 l 1
 1520 2480 l 1
1920 2160 m 1
 2240 2160 l 1
 2240 840 l 2
 2240 400 2000 -40 1400 -40 c 0
 640 -40 320 280 320 920 c 2
 320 2160 l 1
 960 2160 l 1
 960 920 l 2
 960 393 1240 280 1440 280 c 0
 1760 280 1920 520 1920 840 c 2
 1920 2160 l 1
EndSplineSet
Fore
SplineSet
439.9921875 2240 m 1
 759.9921875 2240 l 1
 759.9921875 920 l 2
 759.9921875 360 1080 200 1399.9921875 200 c 0
 1720 200 1919.9921875 440 1919.9921875 840 c 2
 1919.9921875 2240 l 1
 2159.9921875 2240 l 1
 2159.9921875 840 l 2
 2159.9921875 400 1920 -40 1359.9921875 -40 c 0
 800 -40 439.9921875 280 439.9921875 920 c 2
 439.9921875 2240 l 1
120 2240 m 1
 120 2480 l 1
 1080 2480 l 1
 1080 2240 l 1
 120 2240 l 1
1640 2240 m 1
 1640 2480 l 1
 2400 2480 l 1
 2400 2240 l 1
 1640 2240 l 1
EndSplineSet
EndChar
StartChar: V
Encoding: 86 86 54
Width: 2640
VWidth: 0
UnlinkRmOvrlpSave: 1
Flags: HW
HStem: 0 21G<1111.48 1568.52> 2160 320<-40 200 960 1240 1640 2720>
AnchorPoint: "cedilla" 1364 80 basechar 0
AnchorPoint: "top" 1400 2560 basechar 0
LayerCount: 2
Back
SplineSet
-40 2480 m 1
 1240 2480 l 1
 1240 2160 l 1
 -40 2160 l 1
 -40 2480 l 1
1640 2480 m 1
 2720 2480 l 1
 2720 2160 l 1
 1640 2160 l 1
 1640 2480 l 1
1400 1127 m 2
 1432 1053 1480 920 1520 760 c 1
 1560 920 1611 1059 1640 1127 c 2
 2080 2160 l 1
 2480 2160 l 1
 1560 0 l 1
 1120 0 l 1
 200 2160 l 1
 960 2160 l 1
 1400 1127 l 2
EndSplineSet
Fore
SplineSet
1040 2480 m 1
 1040 2240 l 1
 630.831054688 2240 l 1
 1309.36035156 609.9765625 l 1
 1324.80371094 572.875 l 2
 1347.42382812 516.197265625 1372.58789062 442.982421875 1385.63183594 393.9140625 c 1
 1402.21582031 453.8203125 1433.40820312 552.590820312 1457.29589844 609.9765625 c 2
 2135.81933594 2240 l 1
 1760 2240 l 1
 1760 2480 l 1
 2560 2480 l 1
 2560 2240 l 1
 2395.78027344 2240 l 1
 1473.91699219 25.3916015625 l 1
 1480 0 l 1
 1463.34765625 0 l 1
 1216.65234375 0 l 1
 1200 0 l 1
 1208.84179688 18.7626953125 l 1
 284.219726562 2240 l 1
 80 2240 l 1
 80 2480 l 1
 1040 2480 l 1
EndSplineSet
EndChar
StartChar: W
Encoding: 87 87 55
Width: 3760
VWidth: 0
UnlinkRmOvrlpSave: 1
Flags: HW
HStem: 0 21G<899.53 1300.47 2379.53 2780.47> 2160 320<-180 100 860 1100 1340 1700 2340 2620 2860 3180 3580 3860>
AnchorPoint: "cedilla" 1864 80 basechar 0
AnchorPoint: "top" 1900 2560 basechar 0
LayerCount: 2
Back
SplineSet
100 2160 m 1
 860 2160 l 1
 1190 1127 l 2
 1214 1053 1250 920 1280 760 c 1
 1310 920 1348 1059 1370 1127 c 2
 1700 2160 l 1
 2340 2160 l 1
 2670 1127 l 2
 2694 1053 2730 920 2760 760 c 1
 2790 920 2828 1059 2850 1127 c 2
 3180 2160 l 1
 3580 2160 l 1
 2773 0 l 1
 2387 0 l 1
 1909 1280 l 2
 1880 1358 1853 1438 1840 1520 c 1
 1827 1438 1800 1358 1771 1280 c 2
 1293 0 l 1
 907 0 l 1
 100 2160 l 1
1340 2480 m 1
 2620 2480 l 1
 2620 2160 l 1
 1340 2160 l 1
 1340 2480 l 1
2860 2480 m 1
 3860 2480 l 1
 3860 2160 l 1
 2860 2160 l 1
 2860 2480 l 1
-180 2480 m 1
 1100 2480 l 1
 1100 2160 l 1
 -180 2160 l 1
 -180 2480 l 1
EndSplineSet
Fore
SplineSet
1789.89746094 2240 m 1
 2036.26464844 2240 l 1
 1280.1484375 0 l 1
 1040.90039062 0 l 1
 1199.95703125 393.9140625 l 17
 1217.24804688 468 1237.32617188 537.2734375 1260.91992188 609.9765625 c 2
 1789.89746094 2240 l 1
344.15625 2240 m 1
 654.555664062 2240 l 1
 819.48046875 1684.88867188 987 1127 1147.54003906 572.875 c 2
 1165 515 1182.515625 451.232421875 1199.515625 393.9140625 c 9
 1280.1484375 0 l 1
 1040.90039062 0 l 1
 344.15625 2240 l 1
3252.984375 2240 m 1
 3489.3515625 2240 l 1
 2792.60839844 0 l 1
 2553.36035156 0 l 1
 2711.97558594 393.9140625 l 2
 2726.1484375 453.8203125 2745.734375 537.908203125 2767.21191406 609.9765625 c 2
 3252.984375 2240 l 1
1900 2240 m 1
 2067.015625 2240 l 5
 2660 572.875 l 6
 2679.328125 516.197265625 2700.828125 442.982421875 2711.97558594 393.9140625 c 2
 2792.60839844 0 l 1
 2553.36035156 0 l 1
 1839.55566406 2006.83984375 l 1
 1900 2240 l 1
1500 2240 m 1
 1500 2480 l 1
 2460 2480 l 1
 2460 2240 l 1
 1500 2240 l 1
80 2240 m 1
 80 2480 l 1
 1040 2480 l 1
 1040 2240 l 1
 80 2240 l 1
2920 2240 m 1
 2920 2480 l 1
 3680 2480 l 1
 3680 2240 l 1
 2920 2240 l 1
EndSplineSet
EndChar
StartChar: X
Encoding: 88 88 56
Width: 2600
VWidth: 0
UnlinkRmOvrlpSave: 1
Flags: HW
HStem: 0 320<-34520 -34240 -33981 -33440 -33120 -32842 -32051 -31840> 2160 320<-34520 -33240 -32920 -32379 -32120 -31840>
AnchorPoint: "top" 1380 2560 basechar 0
AnchorPoint: "cedilla" 1224 80 basechar 0
LayerCount: 2
Back
SplineSet
-40 2480 m 5
 1240 2480 l 5
 1240 2160 l 5
 -40 2160 l 5
 -40 2480 l 5
1560 2480 m 5
 2640 2480 l 5
 2640 2160 l 5
 1560 2160 l 5
 1560 2480 l 5
2640 0 m 5
 1360 0 l 5
 1360 320 l 5
 2640 320 l 5
 2640 0 l 5
1040 0 m 5
 -40 0 l 5
 -40 320 l 5
 1040 320 l 5
 1040 0 l 5
1615 1440 m 5
 2429 320 l 5
 1638 320 l 5
 1097 1064 l 5
 1615 1440 l 5
2101 2348 m 5
 2360 2160 l 5
 1495 970 l 5
 1236 1159 l 5
 2101 2348 l 5
1015 1040 m 5
 200 2160 l 5
 991 2160 l 5
 1532 1416 l 5
 1015 1040 l 5
499 132 m 5
 240 320 l 5
 1105 1510 l 5
 1364 1321 l 5
 499 132 l 5
EndSplineSet
Fore
SplineSet
1174.54785156 1120 m 1
 296 2240 l 1
 688 2240 l 1
 1388.77246094 1344.4296875 l 1
 1174.54785156 1120 l 1
1219.8203125 1364.859375 m 1
 1403.3515625 1210.21875 l 1
 609.8359375 240 l 1
 296 240 l 1
 1219.8203125 1364.859375 l 1
120 2240 m 1
 120 2480 l 1
 1080 2480 l 1
 1080 2240 l 1
 120 2240 l 1
120 0 m 1
 120 240 l 1
 920 240 l 1
 920 0 l 1
 120 0 l 1
1425.45214844 1360 m 1
 2304 240 l 1
 1912 240 l 1
 1211.22753906 1135.5703125 l 1
 1425.45214844 1360 l 1
1380.1796875 1115.140625 m 1
 1196.6484375 1269.78125 l 1
 1990.1640625 2240 l 1
 2304 2240 l 1
 1380.1796875 1115.140625 l 1
2480 240 m 1
 2480 0 l 1
 1520 0 l 1
 1520 240 l 1
 2480 240 l 1
2480 2480 m 1
 2480 2240 l 1
 1680 2240 l 1
 1680 2480 l 1
 2480 2480 l 1
EndSplineSet
EndChar
StartChar: Y
Encoding: 89 89 57
Width: 2520
VWidth: 0
UnlinkRmOvrlpSave: 1
Flags: HW
HStem: 0 320<596 916 1556 1876> 2160 320<-80 160 951 1200 1520 2061 2320 2600>
VStem: 916 640<320 1320>
AnchorPoint: "ogonek" 1560 80 basechar 0
AnchorPoint: "cedilla" 1244 80 basechar 0
AnchorPoint: "top" 1240 2560 basechar 0
LayerCount: 2
Back
SplineSet
-80 2480 m 1
 1200 2480 l 1
 1200 2160 l 1
 -80 2160 l 1
 -80 2480 l 1
1520 2480 m 1
 2600 2480 l 1
 2600 2160 l 1
 1520 2160 l 1
 1520 2480 l 1
2061 2348 m 1
 2320 2160 l 1
 1455 970 l 1
 1196 1159 l 1
 2061 2348 l 1
975 1040 m 1
 160 2160 l 1
 951 2160 l 1
 1492 1416 l 1
 975 1040 l 1
916 1320 m 1
 1556 1320 l 1
 1556 320 l 1
 1876 320 l 1
 1876 0 l 1
 596 0 l 1
 596 320 l 1
 916 320 l 1
 916 1320 l 1
EndSplineSet
Fore
SplineSet
1134.54785156 1120 m 1
 256 2240 l 1
 648 2240 l 1
 1348.77246094 1344.4296875 l 1
 1134.54785156 1120 l 1
80 2240 m 1
 80 2480 l 1
 1040 2480 l 1
 1040 2240 l 1
 80 2240 l 1
1340.1796875 1115.140625 m 1
 1156.6484375 1269.78125 l 1
 1950.1640625 2240 l 1
 2264 2240 l 1
 1340.1796875 1115.140625 l 1
2440 2480 m 1
 2440 2240 l 1
 1640 2240 l 1
 1640 2480 l 1
 2440 2480 l 1
1080 240 m 1
 1080 1280 l 1
 1400 1280 l 1
 1400 240 l 1
 1080 240 l 1
760 0 m 5
 760 240 l 1
 1720 240 l 1
 1720 0 l 5
 760 0 l 5
EndSplineSet
EndChar
StartChar: Z
Encoding: 90 90 58
Width: 2120
VWidth: 0
Flags: HW
HStem: 0 320<877 1682.16> 2160 320<501.836 1248>
VStem: 94 360<1680 2130.52> 1730 360<349.48 960>
AnchorPoint: "cedilla" 1094 80 basechar 0
AnchorPoint: "top" 1050 2560 basechar 0
LayerCount: 2
Back
SplineSet
94 2480 m 5
 2050 2480 l 5
 2050 2240 l 5
 877 320 l 5
 1570 320 l 6
 1690 320 1730 521 1730 640 c 6
 1730 960 l 5
 2090 960 l 5
 2090 0 l 5
 50 0 l 5
 50 200 l 5
 1248 2160 l 5
 614 2160 l 6
 494 2160 454 1959 454 1840 c 6
 454 1680 l 5
 94 1680 l 5
 94 2480 l 5
EndSplineSet
Fore
SplineSet
440 1920 m 2
 440 1680 l 1
 200 1680 l 1
 200 2480 l 1
 1960 2480 l 1
 1960 2310.6796875 l 1
 553.353515625 240 l 1
 1600 240 l 2
 1720 240 1760 440.743164062 1760 560 c 2
 1760 960 l 1
 2000 960 l 1
 2000 0 l 1
 120 0 l 1
 120 171.546875 l 1
 1525.12988281 2240 l 1
 600 2240 l 2
 480 2240 440 2039.25683594 440 1920 c 2
EndSplineSet
EndChar
StartChar: bracketleft
Encoding: 91 91 59
Width: 1080
VWidth: 0
Flags: HW
HStem: -800 320<680 1240> 2320 320<680 1240>
VStem: 120 560<-480 2320>
LayerCount: 2
Fore
SplineSet
120 2640 m 1
 1000 2640 l 1
 1000 2400 l 1
 440 2400 l 1
 440 -560 l 1
 1000 -560 l 1
 1000 -800 l 1
 120 -800 l 1
 120 2640 l 1
EndSplineSet
EndChar
StartChar: underscore
Encoding: 95 95 319
Width: 1680
VWidth: 0
Flags: HW
HStem: -800 320<80 1600>
LayerCount: 2
Fore
SplineSet
80 -550 m 1
 1600 -550 l 1
 1600 -800 l 1
 80 -800 l 1
 80 -550 l 1
EndSplineSet
EndChar
StartChar: a
Encoding: 97 97 62
Width: 1940
VWidth: 0
UnlinkRmOvrlpSave: 1
Flags: HW
HStem: -46 320<506.5 1117.84> 0 320<1800 2000> 722 279<506.5 1134.19> 1566 314<689.247 1172.59>
VStem: 100 599<308.622 689.606> 154 640<1179.12 1456.72> 1240 560<384 1497.06>
AnchorPoint: "ogonek" 1620 80 basechar 0
AnchorPoint: "cedilla" 904 80 basechar 0
AnchorPoint: "top" 940 1920 basechar 0
LayerCount: 2
Back
SplineSet
154 1400 m 0x36
 154 1577 297 1720 474 1720 c 0
 651 1720 794 1577 794 1400 c 0
 794 1223 651 1080 474 1080 c 0
 297 1080 154 1223 154 1400 c 0x36
1389 658 m 0
 1297 515 l 0
 1230 613 1077 722 957 722 c 0
 763 722 699 658 699 521 c 1
 100 521 l 1x3a
 100 795 337 1001 676 1001 c 0
 1068 1001 1238 898 1389 658 c 0
1389 384 m 0
 1219 41 1068 -46 676 -46 c 0
 337 -46 100 197 100 521 c 1
 699 521 l 1
 699 364 743 274 935 274 c 0xba
 1081 274 1246 422 1297 527 c 0
 1389 384 l 0
1800 1205 m 2
 1800 320 l 1
 2000 320 l 1
 2000 0 l 1
 1377 0 l 1
 1240 320 l 1x72
 1240 1264 l 2
 1240 1509 1099 1566 886 1566 c 0
 795 1566 703 1520 703 1459 c 1
 248 1626 l 1
 368 1758 561 1880 1008 1880 c 0
 1455 1880 1800 1611 1800 1205 c 2
EndSplineSet
Fore
SplineSet
1444.57128906 658.286132812 m 0
 1353.14257812 514.931640625 l 0
 1240 680 1080 802.286132812 797.280273438 802.286132812 c 0
 486.059570312 802.286132812 402.856445312 686.563476562 402.856445312 521.142578125 c 1
 99.9990234375 521.142578125 l 1
 99.9990234375 795.428710938 337.142578125 1001.14257812 676.186523438 1001.14257812 c 0
 1000 1001.14257812 1293.23144531 897.932617188 1444.57128906 658.286132812 c 0
1444.57128906 384 m 4
 1280 80 1005.95800781 -45.7138671875 676.186523438 -45.7138671875 c 0
 337.142578125 -45.7138671875 99.9990234375 196.661132812 99.9990234375 521.142578125 c 1
 402.856445312 521.142578125 l 1
 402.856445312 346.2578125 473.940429688 194.286132812 775.193359375 194.286132812 c 0
 1120 194.286132812 1240 320 1353.14257812 527.354492188 c 4
 1444.57128906 384 l 4
1640 1205.12304688 m 2
 1640 240 l 1
 1840 240 l 1
 1840 0 l 1
 1457.14257812 0 l 1
 1320 320 l 1
 1320 1263.68652344 l 2
 1320 1520 1160 1640 880 1640 c 0
 788.571289062 1640 560 1621.12011719 560 1560 c 1
 248.01171875 1626.27441406 l 1
 368.481445312 1758.72949219 560 1880 928.364257812 1880 c 0
 1374.87597656 1880 1640 1610.70507812 1640 1205.12304688 c 2
154 1400 m 0x36
 154 1577 297 1720 474 1720 c 0
 651 1720 794 1577 794 1400 c 0
 794 1223 651 1080 474 1080 c 0
 297 1080 154 1223 154 1400 c 0x36
EndSplineSet
EndChar
StartChar: b
Encoding: 98 98 63
Width: 2100
VWidth: 0
UnlinkRmOvrlpSave: 1
Flags: HW
HStem: 0 21G<280 558.438> 1520 360<1094.06 1690> 2160 320<80 280>
VStem: 280 440<203.844 858.147> 720 44<648 858.147> 737 103<320 811.647 1261 1290.35> 1570 600<499.568 1313.63>
AnchorPoint: "cedilla" 1154 80 basechar 0
AnchorPoint: "top" 1070 2560 basechar 0
LayerCount: 2
Back
SplineSet
80 2480 m 1xf6
 840 2480 l 1
 840 320 l 1
 760 320 l 1
 545 0 l 1
 280 0 l 1
 280 2160 l 1
 80 2160 l 1
 80 2480 l 1xf6
1452 1880 m 0
 1928 1880 2170 1507 2170 919 c 0
 2170 331 1834 -40 1374 -40 c 0
 980 -40 803 203 737 295 c 1
 720 720 l 1xf6
 764 932 l 1xea
 784 648 908 331 1179 331 c 0
 1450 331 1570 557 1570 926 c 0
 1570 1295 1389 1520 1192 1520 c 0
 995 1520 880 1355 762 1095 c 1
 840 1520 l 1
 747 1261 l 1
 779 1520 976 1880 1452 1880 c 0
EndSplineSet
Fore
SplineSet
80 2480 m 1
 600 2480 l 1
 600 320 l 1
 600 320 l 1
 385.142578125 0 l 1
 280 0 l 1
 280 2240 l 1
 80 2240 l 1
 80 2480 l 1
1240 1880 m 0
 1715.85644531 1880 2000 1507.35742188 2000 919.392578125 c 0
 2000 331.428710938 1659.79394531 -40 1200 -40 c 0
 806.46484375 -40 603.561523438 210.568359375 537.303710938 302.928710938 c 1
 480 720 l 1
 524.473632812 932.142578125 l 1
 544.349609375 648.192382812 760 200 1200 200 c 0
 1430.77636719 200 1680 400 1680 926.46484375 c 0
 1680 1440 1455.36621094 1640 1240 1640 c 0
 840.020507812 1640 639.47265625 1340.93164062 521.633789062 1015.41992188 c 1
 600 1520 l 1
 507.3125 1260.72363281 l 1
 539.4375 1519.99902344 764.143554688 1880 1240 1880 c 0
EndSplineSet
EndChar
StartChar: c
Encoding: 99 99 66
Width: 1874
VWidth: 0
UnlinkRmOvrlpSave: 1
Flags: HW
HStem: -40 332<884.946 1472.7> 1560 320<876.779 1459.62>
VStem: 100 594<499.927 1342.1> 1294 640<1019.12 1417>
AnchorPoint: "cedilla" 1024 80 basechar 0
AnchorPoint: "top" 940 1920 basechar 0
LayerCount: 2
Back
SplineSet
1053 1880 m 0
 1488 1880 1733 1673 1891 1400 c 1
 1632 1225 l 1
 1512 1450 1383 1560 1122 1560 c 0
 895 1560 694 1405 694 920 c 0
 694 435 913 292 1140 292 c 0
 1433 292 1569 410 1659 625 c 1
 1925 533 l 1
 1808 213 1513 -40 1058 -40 c 0
 529 -40 100 340 100 920 c 0
 100 1500 524 1880 1053 1880 c 0
1294 1240 m 0
 1294 1417 1437 1560 1614 1560 c 0
 1791 1560 1934 1417 1934 1240 c 0
 1934 1063 1791 920 1614 920 c 0
 1437 920 1294 1063 1294 1240 c 0
EndSplineSet
Fore
SplineSet
972.328125 1880 m 3
 1407.18847656 1880 1680.93847656 1629.44042969 1763.09570312 1322.82226562 c 1
 1534 1240 l 1
 1476.6015625 1535.359375 1293.13085938 1640 974 1640 c 3
 694 1640 414 1404.57128906 414 920 c 0
 414 435.428710938 694 200 974 200 c 3
 1294 200 1480.41015625 400 1534 600 c 1
 1764.953125 533.1796875 l 1
 1648.22851562 213.1796875 1433.52832031 -40 978.046875 -40 c 3
 448.776367188 -40 99.7109375 339.78125 99.7109375 920 c 0
 99.7109375 1500.21875 443.057617188 1880 972.328125 1880 c 3
1134 1240 m 0
 1134 1416.73144531 1277.26855469 1560 1454 1560 c 0
 1630.73144531 1560 1774 1416.73144531 1774 1240 c 0
 1774 1063.26855469 1630.73144531 920 1454 920 c 0
 1277.26855469 920 1134 1063.26855469 1134 1240 c 0
EndSplineSet
EndChar
StartChar: d
Encoding: 100 100 69
Width: 2120
VWidth: 0
UnlinkRmOvrlpSave: 1
Flags: HW
HStem: -46 366<611.733 1227.2> 0 320<1962 2162> 1509 371<854.72 1227.79> 2160 320<1202 1402>
VStem: 100 601<525.898 1340.43> 1402 560<579 2160>
AnchorPoint: "cedilla" 1082 80 basechar 0
AnchorPoint: "top" 958 2560 basechar 0
LayerCount: 2
Back
SplineSet
1202 2480 m 1x7c
 1962 2480 l 1
 1962 320 l 1
 2162 320 l 1
 2162 0 l 1
 1568 0 l 1
 1402 320 l 1
 1402 2160 l 1
 1202 2160 l 1
 1202 2480 l 1x7c
819 -46 m 0xbc
 343 -46 100 333 100 921 c 0
 100 1509 414 1880 874 1880 c 0
 1268 1880 1397 1645 1463 1553 c 1
 1714 1829 l 1
 1506 908 l 1
 1486 1192 1363 1509 1092 1509 c 0
 821 1509 701 1283 701 914 c 0
 701 545 882 320 1079 320 c 0xbc
 1276 320 1391 485 1509 745 c 1
 1962 320 l 1x7c
 1575 579 l 1
 1553 401 1483 245 1359 133 c 0
 1235 21 1057 -46 819 -46 c 0xbc
EndSplineSet
Fore
SplineSet
1300 2480 m 1
 1820 2480 l 1
 1820 240 l 1
 2020 240 l 1
 2020 0 l 1
 1665.71484375 0 l 1
 1500 320 l 1
 1500 2240 l 1
 1300 2240 l 1
 1300 2480 l 1
908 -45.7138671875 m 0
 432.143554688 -45.7138671875 100 332.643554688 100 920.607421875 c 0
 100 1508.57128906 448.20703125 1880.34863281 908 1880.34863281 c 0
 1301.53515625 1880.34863281 1478.54003906 1573.43164062 1544.79882812 1481.07128906 c 1
 1732 1828.57128906 l 1
 1524.09863281 987.857421875 l 1
 1504.22167969 1271.80761719 1268 1640 908 1640 c 0
 636.827148438 1640 420 1440 420 913.536132812 c 0
 420 400 588 200 908 200 c 0
 1300 200 1409.09863281 484.766601562 1526.9375 744.581054688 c 1
 1740 320 l 1
 1592.37011719 579.27734375 l 1
 1570.26464844 400.872070312 1500.26367188 244.624023438 1376.30664062 132.977539062 c 0
 1252.34960938 21.3310546875 1145.92773438 -45.7138671875 908 -45.7138671875 c 0
EndSplineSet
EndChar
StartChar: e
Encoding: 101 101 71
Width: 1916
VWidth: 0
UnlinkRmOvrlpSave: 1
Flags: HW
HStem: -52 332<884.946 1472.7> 800 320<400 1422> 908 212<1422 1495> 1560 320<839.492 1277.83>
VStem: 400 294<800 1120>
AnchorPoint: "ogonek" 1420 80 basechar 0
AnchorPoint: "cedilla" 1024 80 basechar 0
AnchorPoint: "top" 980 1920 basechar 0
LayerCount: 2
Back
SplineSet
2016 908 m 0xb8
 1422 908 l 0
 1422 1383 1287 1560 1060 1560 c 3
 833 1560 694 1393 694 908 c 0
 694 423 913 280 1140 280 c 0
 1433 280 1569 398 1659 613 c 1
 1925 521 l 1
 1808 201 1513 -52 1058 -52 c 0
 529 -52 100 328 100 908 c 0
 100 1488 529 1880 1058 1880 c 0
 1587 1880 2016 1488 2016 908 c 0xb8
400 1120 m 1xd8
 1495 1120 l 1
 2016 908 l 1xb8
 1991 800 l 1
 400 800 l 1
 400 1120 l 1xd8
EndSplineSet
Fore
SplineSet
990.328125 1880 m 3
 1519.60253907 1880 1836.671875 1488.18359375 1836.671875 907.9609375 c 1
 1507.3828125 987.9609375 l 1
 1507.3828125 1453.38964844 1268.91999838 1640 992 1640 c 3
 712 1640 432 1404.57128906 432 920 c 0
 432 435.428710938 711.999999998 200 992 200 c 3
 1312 200 1498.41015625 400 1552 600 c 1
 1782.953125 533.1796875 l 1
 1666.22851562 213.1796875 1451.52832032 -40 996.046875 -40 c 3
 466.776367184 -40 117.7109375 339.78125 117.7109375 920 c 0
 117.7109375 1500.21875 461.057617184 1880 990.328125 1880 c 3
299.919921875 1080 m 1
 1505.06542969 1080 l 1
 1836.66992188 907.96484375 l 1
 1811.97753906 840 l 1
 299.919921875 840 l 1
 299.919921875 1080 l 1
EndSplineSet
EndChar
StartChar: f
Encoding: 102 102 72
Width: 1480
VWidth: 0
UnlinkRmOvrlpSave: 1
Flags: HW
HStem: 0 320<160 360 920 1360> 1520 320<80 1520> 2320 320<993.364 1360>
VStem: 360 560<320 2243.12> 1120 640<2059.12 2339>
AnchorPoint: "cedilla" 564 80 basechar 0
AnchorPoint: "top" 920 2720 basechar 0
LayerCount: 2
Back
SplineSet
920 320 m 1
 1360 320 l 1
 1360 0 l 1
 160 0 l 1
 160 320 l 1
 360 320 l 1
 360 1840 l 1
 360 2331 640 2640 1200 2640 c 0
 1520 2640 1649 2558 1717 2440 c 0
 1745 2393 1760 2339 1760 2280 c 0
 1760 2103 1617 1960 1440 1960 c 0
 1263 1960 1120 2103 1120 2280 c 0
 1120 2457 1263 2600 1440 2600 c 1
 1520 2200 l 1
 1406 2291 1218 2320 1120 2320 c 0
 979 2320 920 2160 920 1840 c 1
 920 320 l 1
80 1520 m 1
 80 1840 l 5
 1520 1840 l 5
 1520 1520 l 1
 80 1520 l 1
EndSplineSet
Fore
SplineSet
160 0 m 1
 160 240 l 1
 1200 240 l 1
 1200 0 l 1
 160 0 l 1
1040 2640 m 0
 1320 2640 1489.1484375 2557.73925781 1557.125 2440 c 1
 1360 2360 l 1
 1246.13964844 2450.72167969 1057.84179688 2400 960 2400 c 0
 760 2400 680 2240 680 1840 c 2
 680 240 l 1
 360 240 l 1
 360 1840 l 2
 360 2331.10644531 480 2640 1040 2640 c 0
80 1600 m 1
 80 1840 l 1
 1360 1840 l 1
 1360 1600 l 1
 80 1600 l 1
960 2280 m 0
 960 2456.73144531 1103.26855469 2600 1280 2600 c 0
 1456.73144531 2600 1600 2456.73144531 1600 2280 c 0
 1600 2103.26953125 1456.73144531 1960 1280 1960 c 0
 1103.26855469 1960 960 2103.26953125 960 2280 c 0
EndSplineSet
Substitution2: "Duct" uniE10E
EndChar
StartChar: g
Encoding: 103 103 73
Width: 1900
VWidth: 0
UnlinkRmOvrlpSave: 1
Flags: HW
HStem: -800 400<628.82 1363.83> 0 480<560 600 680 1399.37> 640 280<856.247 1239.08> 1560 314<794.612 1241.48> 2500 20G<1551.5 1835.5>
VStem: 80 520<-361.462 -59.2866> 120 400<260 645.491> 160 560<1004.71 1483.6> 1320 560<1005.44 1483.45> 1440 520<-311.613 -21.8385> 1664 296<2023 2275.63>
AnchorPoint: "cedilla" 924 -720 basechar 0
AnchorPoint: "top" 670 1920 basechar 0
LayerCount: 2
Back
SplineSet
1000 1874 m 0xf980
 1480 1874 1880 1680 1880 1280 c 0
 1880 840 1480 640 1000 640 c 0
 580 640 160 840 160 1280 c 0
 160 1720 560 1874 1000 1874 c 0xf980
1020 1560 m 0
 835 1560 720 1452 720 1245 c 0
 720 1038 835 920 1020 920 c 0
 1205 920 1320 1042 1320 1245 c 0
 1320 1448 1205 1560 1020 1560 c 0
600 840 m 1xfc
 960 680 l 1
 800 680 l 2
 600 680 520 600 520 560 c 0xfa
 520 520 560 480 600 480 c 2
 1160 480 l 1
 1280 0 l 1
 600 0 l 2xfc
 360 0 120 120 120 400 c 0xfa
 120 640 320 840 600 840 c 1xfc
1280 0 m 1
 1160 480 l 1
 1720 480 1960 333 1960 -40 c 0
 1960 -680 1400 -800 880 -800 c 0
 360 -800 80 -560 80 -280 c 0
 80 0 400 120 680 160 c 1
 880 80 l 1
 760 40 600 -40 600 -200 c 0
 600 -360 680 -400 960 -400 c 0
 1280 -400 1440 -320 1440 -160 c 0xfc40
 1440 -80 1360 0 1280 0 c 1
1320 2200 m 0xf880
 1320 2377 1463 2520 1640 2520 c 0
 1817 2520 1960 2377 1960 2200 c 0xf820
 1960 2023 1817 1880 1640 1880 c 0
 1463 1880 1320 2023 1320 2200 c 0xf880
1723 2509 m 1
 1948 2449 2000 2285 2000 2097 c 0
 2000 1909 1824 1700 1689 1610 c 1
 1522 1751 l 1
 1608 1845 1664 1936 1664 2055 c 1
 1723 2509 l 1
EndSplineSet
Fore
SplineSet
1562.82226562 2509.13378906 m 0
 1787.91113281 2448.82128906 1840 2285.0703125 1840 2097.08691406 c 0
 1840 1909.10351562 1712.09570312 1668.83984375 1576.81835938 1578.43847656 c 1
 1409.91699219 1718.98632812 l 1
 1528 1848.03710938 1551.53222656 2017.94726562 1480 2200.03710938 c 0
 1562.82226562 2509.13378906 l 0
1160 2200.03710938 m 0
 1160 2376.76855469 1303.26855469 2520.03710938 1480 2520.03710938 c 0
 1656.73144531 2520.03710938 1800 2376.76855469 1800 2200.03710938 c 0
 1800 2023.30566406 1656.73144531 1880.03710938 1480 1880.03710938 c 0
 1303.26855469 1880.03710938 1160 2023.30566406 1160 2200.03710938 c 0
1480.00878906 -159.962890625 m 0
 1480.00878906 -39.962890625 1440.00878906 0.037109375 1200.00878906 0.037109375 c 2
 520 0.037109375 l 2
 280 0.037109375 160.008789062 160.037109375 160.008789062 360.037109375 c 0
 160.008789062 560.037109375 360.008789062 640.037109375 520.008789062 680.037109375 c 1
 880 520.037109375 l 1
 720 520.037109375 l 2
 520 520.037109375 440.008789062 462.89453125 440.008789062 405.750976562 c 0
 440.008789062 348.608398438 480.013671875 320.037109375 560.008789062 320.037109375 c 2
 1080 320.037109375 l 2
 1640 320.037109375 1800 200.037109375 1800 -119.962890625 c 0
 1800 -599.962890625 1320 -799.962890625 800 -799.962890625 c 0
 320.008789062 -799.962890625 80 -559.962890625 80 -279.962890625 c 0
 80 0.037109375 320 120.037109375 600 160.037109375 c 1
 800 80.037109375 l 1
 600.008789062 40.037109375 400.008789062 -39.962890625 400.008789062 -239.962890625 c 0
 400.008789062 -399.962890625 520.008789062 -559.962890625 840 -559.962890625 c 0
 1360.00878906 -559.962890625 1480.00878906 -319.962890625 1480.00878906 -159.962890625 c 0
920.008789062 1640.03710938 m 3
 640.006835938 1640.03710938 480.008789062 1494.77441406 480.008789062 1204.24804688 c 0
 480.008789062 865.299804688 600.008789062 720.037109375 920.008789062 720.037109375 c 3
 1160.00878906 720.037109375 1400.00878906 816.87890625 1400.00878906 1204.24804688 c 0
 1400.00878906 1494.77441406 1240.01074219 1640.03710938 920.008789062 1640.03710938 c 3
920 1874.32324219 m 0
 1360.00878906 1874.32324219 1720 1654.8515625 1720 1203 c 0
 1720 705.962890625 1360.00878906 480.037109375 920 480.037109375 c 0
 480.008789062 480.037109375 160.008789062 705.962890625 160.008789062 1203 c 0
 160.008789062 1700.03710938 480.008789062 1874.32324219 920 1874.32324219 c 0
EndSplineSet
EndChar
StartChar: h
Encoding: 104 104 74
Width: 2120
VWidth: 0
UnlinkRmOvrlpSave: 1
Flags: HW
HStem: 0 320<80 280 840 1040 1240 1440 2000 2200> 1520 360<1055.46 1638> 2160 320<80 280>
VStem: 280 560<320 2160> 1440 560<320 1461.01>
AnchorPoint: "cedilla" 1044 80 basechar 0
AnchorPoint: "top" 1080 2560 basechar 0
LayerCount: 2
Back
SplineSet
80 2480 m 1
 840 2480 l 1
 840 320 l 1
 1040 320 l 1
 1040 0 l 1
 80 0 l 1
 80 320 l 1
 280 320 l 1
 280 2160 l 1
 80 2160 l 1
 80 2480 l 1
1400 1880 m 0
 1876 1880 2000 1560 2000 1080 c 2
 2000 320 l 1
 2200 320 l 1
 2200 0 l 1
 1240 0 l 1
 1240 320 l 1
 1440 320 l 1
 1440 1120 l 2
 1440 1440 1360 1520 1184 1520 c 0
 1040 1520 880 1355 762 1095 c 1
 747 1261 l 1
 779 1520 924 1880 1400 1880 c 0
EndSplineSet
Fore
SplineSet
80 2480 m 1
 600 2480 l 1
 600 240 l 1
 800 240 l 1
 800 0 l 1
 80 0 l 1
 80 240 l 1
 280 240 l 1
 280 2240 l 1
 80 2240 l 1
 80 2480 l 1
1160 1880 m 0
 1635.85644531 1880 1840 1560 1840 1080 c 2
 1840 240 l 1
 2040 240 l 1
 2040 0 l 1
 1320 0 l 1
 1320 240 l 1
 1520 240 l 1
 1520 1120 l 2
 1520 1480 1360 1640 1120 1640 c 0
 840 1640 720 1440 600 1200 c 1
 560 1360 l 1
 640 1600 840 1880 1160 1880 c 0
EndSplineSet
EndChar
StartChar: k
Encoding: 107 107 80
Width: 2120
VWidth: 0
UnlinkRmOvrlpSave: 1
Flags: HW
HStem: 0 320<80 280 840 1040 1240 1452 2120 2200> 1520 320<1200 1649 2034 2160> 2160 320<80 280>
VStem: 280 560<320 2160>
AnchorPoint: "cedilla" 1044 80 basechar 0
AnchorPoint: "top" 920 2560 basechar 0
LayerCount: 2
Back
SplineSet
80 2480 m 1
 840 2480 l 1
 840 320 l 1
 1040 320 l 1
 1040 0 l 1
 80 0 l 1
 80 320 l 1
 280 320 l 1
 280 2160 l 1
 80 2160 l 1
 80 2480 l 1
1240 320 m 1
 2200 320 l 1
 2200 0 l 1
 1240 0 l 1
 1240 320 l 1
1200 1520 m 1
 1200 1840 l 1
 2160 1840 l 1
 2160 1520 l 1
 1200 1520 l 1
1649 1760 m 1
 2034 1670 l 1
 1306 870 l 1
 920 960 l 1
 1649 1760 l 1
920 960 m 1
 1448 1160 l 1
 2120 200 l 1
 1452 200 l 1
 920 960 l 1
EndSplineSet
Fore
SplineSet
80 2480 m 1
 600 2480 l 1
 600 240 l 1
 800 240 l 1
 800 0 l 1
 80 0 l 1
 80 240 l 1
 280 240 l 1
 280 2240 l 1
 80 2240 l 1
 80 2480 l 1
1240 240 m 1
 2040 240 l 1
 2040 0 l 1
 1240 0 l 1
 1240 240 l 1
1160 1600 m 1
 1160 1840 l 1
 2000 1840 l 1
 2000 1600 l 1
 1160 1600 l 1
1544 1760 m 1
 1771.42871094 1669.890625 l 1
 984.571289062 869.8984375 l 1
 757.142578125 960 l 1
 1544 1760 l 1
757.142578125 960 m 5
 1019.80273438 1080 l 5
 1880 240 l 1
 1608.37402344 120 l 1
 757.142578125 960 l 5
EndSplineSet
EndChar
StartChar: l
Encoding: 108 108 90
Width: 880
VWidth: 0
Flags: HW
HStem: 0 320<80 280 840 1040> 2160 320<80 280>
VStem: 280 560<320 2160>
AnchorPoint: "cedilla" 484 80 basechar 0
AnchorPoint: "top" 440 2560 basechar 0
LayerCount: 2
Back
SplineSet
80 2480 m 1
 840 2480 l 1
 840 320 l 1
 1040 320 l 1
 1040 0 l 1
 80 0 l 1
 80 320 l 1
 280 320 l 1
 280 2160 l 1
 80 2160 l 1
 80 2480 l 1
EndSplineSet
Fore
SplineSet
80 2480 m 1
 600 2480 l 1
 600 240 l 1
 800 240 l 1
 800 0 l 1
 80 0 l 1
 80 240 l 1
 280 240 l 1
 280 2240 l 1
 80 2240 l 1
 80 2480 l 1
EndSplineSet
EndChar
StartChar: m
Encoding: 109 109 81
Width: 3280
VWidth: 0
UnlinkRmOvrlpSave: 1
Flags: HW
HStem: 0 320<80 280 840 1040 1240 1440 2000 2200 2400 2600 3160 3360> 1520 360<1055.46 1628.94 2215.46 2788.94> 1520 320<80 280>
VStem: 280 560<320 1261> 1440 560<320 1461.01> 2600 560<320 1461.01>
CounterMasks: 1 1c
AnchorPoint: "cedilla" 1644 80 basechar 0
AnchorPoint: "top" 1640 1920 basechar 0
LayerCount: 2
Back
SplineSet
80 1840 m 1xbc
 701 1840 l 1
 846 1560 l 1
 840 320 l 1
 1040 320 l 1
 1040 0 l 1
 80 0 l 1
 80 320 l 1
 280 320 l 1
 280 1520 l 1
 80 1520 l 1
 80 1840 l 1xbc
1400 1880 m 0xdc
 1876 1880 2000 1560 2000 1080 c 2
 2000 320 l 1
 2200 320 l 1
 2200 0 l 1
 1240 0 l 1
 1240 320 l 1
 1440 320 l 1
 1440 1120 l 2
 1440 1440 1360 1520 1184 1520 c 0
 1040 1520 880 1355 762 1095 c 1
 747 1261 l 1
 779 1520 924 1880 1400 1880 c 0xdc
2560 1880 m 0
 3036 1880 3160 1560 3160 1080 c 2
 3160 320 l 1
 3360 320 l 1
 3360 0 l 1
 2400 0 l 1
 2400 320 l 1
 2600 320 l 1
 2600 1120 l 2
 2600 1440 2520 1520 2344 1520 c 0
 2200 1520 2040 1355 1922 1095 c 1
 1907 1261 l 1
 1939 1520 2084 1880 2560 1880 c 0
EndSplineSet
Fore
SplineSet
80 1840 m 1
 460.713867188 1840 l 1
 605.7109375 1560 l 1
 600 240 l 1
 800 240 l 1
 800 0 l 1
 80 0 l 1
 80 240 l 1
 280 240 l 1
 280 1600 l 1
 80 1600 l 1
 80 1840 l 1
1120 1880 m 0
 1595.85644531 1880 1800 1560 1800 1080 c 2
 1800 240 l 1
 2000 240 l 1
 2000 0 l 1
 1280 0 l 1
 1280 240 l 1
 1480 240 l 1
 1480 1120 l 2
 1480 1480 1320 1640 1080 1640 c 0
 800 1640 680 1440 560 1200 c 1
 520 1360 l 1
 600 1600 800 1880 1120 1880 c 0
2320 1880 m 0
 2795.85644531 1880 3000 1560 3000 1080 c 2
 3000 240 l 1
 3200 240 l 1
 3200 0 l 1
 2480 0 l 1
 2480 240 l 1
 2680 240 l 1
 2680 1120 l 2
 2680 1480 2520 1640 2280 1640 c 0
 2000 1640 1890 1440 1770 1200 c 5
 1710 1360 l 1
 1780 1610 2000 1880 2320 1880 c 0
EndSplineSet
EndChar
StartChar: n
Encoding: 110 110 91
Width: 2120
VWidth: 0
UnlinkRmOvrlpSave: 1
Flags: HW
HStem: 0 320<80 280 840 1040 1240 1440 2000 2200> 1520 360<1055.46 1628.94> 1520 320<80 280>
VStem: 280 560<320 1261> 1440 560<320 1461.01>
AnchorPoint: "cedilla" 1044 80 basechar 0
AnchorPoint: "top" 1060 1920 basechar 0
LayerCount: 2
Back
SplineSet
80 1840 m 1xb8
 701 1840 l 1
 846 1560 l 1
 840 320 l 1
 1040 320 l 1
 1040 0 l 1
 80 0 l 1
 80 320 l 1
 280 320 l 1
 280 1520 l 1
 80 1520 l 1
 80 1840 l 1xb8
1400 1880 m 0xd8
 1876 1880 2000 1560 2000 1080 c 2
 2000 320 l 1
 2200 320 l 1
 2200 0 l 1
 1240 0 l 1
 1240 320 l 1
 1440 320 l 1
 1440 1120 l 2
 1440 1440 1360 1520 1184 1520 c 0
 1040 1520 880 1355 762 1095 c 1
 747 1261 l 1
 779 1520 924 1880 1400 1880 c 0xd8
EndSplineSet
Fore
SplineSet
80 1840 m 5
 434.28125 1840 l 5
 600 1520 l 5
 600 240 l 5
 800 240 l 5
 800 0 l 5
 80 0 l 5
 80 240 l 5
 280 240 l 5
 280 1600 l 5
 80 1600 l 5
 80 1840 l 5
1160 1880 m 4
 1635.85644531 1880 1840 1560 1840 1080 c 6
 1840 240 l 5
 2040 240 l 5
 2040 0 l 5
 1320 0 l 5
 1320 240 l 5
 1520 240 l 5
 1520 1120 l 6
 1520 1480 1360 1640 1120 1640 c 4
 840 1640 720 1400 600 1160 c 5
 520 1360 l 5
 613.090820312 1676.43945312 840 1880 1160 1880 c 4
EndSplineSet
EndChar
StartChar: o
Encoding: 111 111 82
Width: 1957
VWidth: 0
Flags: HW
HStem: -46 320<835.366 1277.2> 1554 320<835.366 1277.2>
VStem: 100 594<491.896 1336.1> 1422 595<494.072 1333.93>
AnchorPoint: "ogonek" 1420 80 basechar 0
AnchorPoint: "cedilla" 984 80 basechar 0
AnchorPoint: "top" 978 1914 basechar 0
LayerCount: 2
Back
SplineSet
1058 1874 m 3
 1587 1874 2017 1494 2017 914 c 0
 2017 334 1587 -46 1058 -46 c 3
 529 -46 100 334 100 914 c 0
 100 1494 529 1874 1058 1874 c 3
1058 1554 m 3
 831 1554 694 1399 694 914 c 0
 694 429 831 274 1058 274 c 3
 1285 274 1422 439 1422 914 c 0
 1422 1389 1285 1554 1058 1554 c 3
EndSplineSet
Fore
SplineSet
978.66015625 1874 m 3
 1507.93261719 1874 1857 1494.22265625 1857 914 c 3
 1857 333.776367188 1507.93261719 -46 978.66015625 -46 c 3
 449.387695312 -46 100.330078125 333.780273438 100.330078125 914 c 3
 100.330078125 1494.21875 449.387695312 1874 978.66015625 1874 c 3
978.66015625 1639.71386719 m 3
 698.66015625 1639.71386719 420.330078125 1439.71386719 420.330078125 919.713867188 c 3
 420.330078125 399.713867188 696.991210938 199.713867188 978.66015625 199.713867188 c 3
 1260.33007812 199.713867188 1540.33007812 399.713867188 1540.33007812 919.713867188 c 3
 1540.33007812 1439.71386719 1258.66015625 1639.71386719 978.66015625 1639.71386719 c 3
EndSplineSet
EndChar
StartChar: p
Encoding: 112 112 85
Width: 2122
VWidth: 0
UnlinkRmOvrlpSave: 1
Flags: HW
HStem: -640 320<80 280 840 1040> -40 371<1014.21 1387.28> 1520 366<1015.19 1630.27> 1520 320<80 280>
VStem: 280 560<-320 1261> 1541 601<499.568 1314.1>
AnchorPoint: "cedilla" 1304 80 basechar 0
AnchorPoint: "top" 1040 1920 basechar 0
LayerCount: 2
Back
SplineSet
1040 -640 m 1xdc
 80 -640 l 1
 80 -320 l 1
 280 -320 l 1
 280 1520 l 1
 80 1520 l 1
 80 1840 l 1
 674 1840 l 1
 840 1520 l 1
 840 -320 l 1
 1040 -320 l 1
 1040 -640 l 1xdc
1423 1886 m 0xec
 1899 1886 2142 1507 2142 919 c 0
 2142 331 1828 -40 1368 -40 c 0
 974 -40 845 195 779 287 c 1
 528 11 l 1
 736 932 l 1
 756 648 879 331 1150 331 c 0
 1421 331 1541 557 1541 926 c 0
 1541 1295 1360 1520 1163 1520 c 0xec
 966 1520 851 1355 733 1095 c 1
 280 1520 l 1xdc
 668 1261 l 1
 690 1439 760 1595 884 1707 c 0
 1008 1819 1185 1886 1423 1886 c 0xec
EndSplineSet
Fore
SplineSet
802 -640.392578125 m 1
 82 -640.392578125 l 1
 82 -400.392578125 l 1
 282 -400.392578125 l 1
 282 1599.60742188 l 1
 82 1599.60742188 l 1
 82 1839.60742188 l 1
 436.28515625 1839.60742188 l 1
 602 1519.60742188 l 1
 602 -400.392578125 l 1
 802 -400.392578125 l 1
 802 -640.392578125 l 1
1194 1885.32128906 m 0
 1669.85644531 1885.32128906 2002 1506.96386719 2002 919 c 0
 2002 331.036132812 1653.79296875 -40.7412109375 1194 -40.7412109375 c 0
 800.46484375 -40.7412109375 623.459960938 266.17578125 557.201171875 358.536132812 c 1
 370 11.0361328125 l 1
 577.901367188 851.75 l 1
 597.778320312 567.799804688 834 199.607421875 1194 199.607421875 c 0
 1465.17285156 199.607421875 1682 399.607421875 1682 926.071289062 c 0
 1682 1439.60742188 1514 1639.60742188 1194 1639.60742188 c 0
 802 1639.60742188 692.901367188 1354.84082031 575.0625 1095.02734375 c 1
 362 1519.60742188 l 1
 509.629882812 1260.33105469 l 1
 531.735351562 1438.73535156 601.736328125 1594.98339844 725.693359375 1706.62988281 c 0
 849.650390625 1818.27636719 956.072265625 1885.32128906 1194 1885.32128906 c 0
EndSplineSet
EndChar
StartChar: q
Encoding: 113 113 86
Width: 2081
VWidth: 0
UnlinkRmOvrlpSave: 1
Flags: HW
HStem: -640 320<1251 1451 2011 2211> -40 360<601 1196.94> 1820 20G<1732.56 2011>
VStem: 120 601<526.367 1340.43> 1451 560<-320 320 579 920> 1451 103<549.65 579 920 920> 1526 45<920 1192>
AnchorPoint: "cedilla" 634 80 basechar 0
AnchorPoint: "top" 1090 1920 basechar 0
LayerCount: 2
Back
SplineSet
1746 1840 m 1xf4
 2011 1840 l 1
 2011 -320 l 1
 2211 -320 l 1
 2211 -640 l 1
 1251 -640 l 1
 1251 -320 l 1
 1451 -320 l 1xf8
 1451 1520 l 1
 1531 1520 l 1
 1746 1840 l 1xf4
839 -40 m 0
 363 -40 120 333 120 921 c 0
 120 1509 457 1880 917 1880 c 0
 1311 1880 1488 1637 1554 1545 c 1xf4
 1571 920 l 1
 1526 908 l 1xf2
 1506 1192 1383 1509 1112 1509 c 0
 841 1509 721 1283 721 914 c 0
 721 545 902 320 1099 320 c 0
 1296 320 1411 485 1529 745 c 1
 1451 320 l 1
 1544 579 l 1
 1512 320 1315 -40 839 -40 c 0
EndSplineSet
Fore
SplineSet
2041 -640 m 1
 1321 -640 l 1
 1321 -400 l 1
 1521 -400 l 1
 1521 1520 l 1
 1521 1520 l 1
 1735.85742188 1840 l 1
 1841 1840 l 1
 1841 -400 l 1
 2041 -400 l 1
 2041 -640 l 1
881 -40 m 0
 405.143554688 -40 121 332.642578125 121 920.607421875 c 0
 121 1508.57128906 461.206054688 1880 921 1880 c 0
 1314.53515625 1880 1517.43847656 1629.43164062 1583.69628906 1537.07128906 c 1
 1641 1120 l 1
 1596.52636719 907.857421875 l 1
 1576.65039062 1191.80761719 1361 1640 921 1640 c 0
 690.223632812 1640 441 1440 441 913.536132812 c 0
 441 400 665.633789062 200 881 200 c 0
 1280.98046875 200 1481.52734375 499.068359375 1599.36621094 824.580078125 c 1
 1521 320 l 1
 1613.6875 579.276367188 l 1
 1581.5625 320.000976562 1356.85644531 -40 881 -40 c 0
EndSplineSet
EndChar
StartChar: r
Encoding: 114 114 87
Width: 1720
VWidth: 0
UnlinkRmOvrlpSave: 1
Flags: HW
HStem: 0 320<80 280 840 1280> 1520 360<1014.76 1406.01> 1520 320<80 280>
VStem: 280 560<320 1200>
AnchorPoint: "cedilla" 444 80 basechar 0
AnchorPoint: "top" 860 1920 basechar 0
LayerCount: 2
Back
SplineSet
80 1840 m 1xb0
 701 1840 l 1
 846 1560 l 1
 840 320 l 1
 1280 320 l 1
 1280 0 l 1
 80 0 l 1
 80 320 l 1
 280 320 l 1
 280 1520 l 1
 80 1520 l 1
 80 1840 l 1xb0
1800 1400 m 0
 1191 1495 l 0
 1170 1511 1146 1520 1120 1520 c 0
 1019 1520 901 1372 800 1040 c 1
 680 1200 l 1
 760 1600 960 1880 1328 1880 c 0xd0
 1622 1880 1800 1680 1800 1400 c 0
1160 1400 m 0
 1160 1577 1303 1720 1480 1720 c 0
 1657 1720 1800 1577 1800 1400 c 0
 1800 1223 1657 1080 1480 1080 c 0
 1303 1080 1160 1223 1160 1400 c 0
EndSplineSet
Fore
SplineSet
80 1840 m 1
 540.713867188 1840 l 1
 605.7109375 1560 l 1
 600 240 l 1
 1040 240 l 1
 1040 0 l 1
 80 0 l 1
 80 240 l 1
 280 240 l 1
 280 1600 l 1
 80 1600 l 1
 80 1840 l 1
1640 1400 m 9
 1320 1600 l 17
 1270.48242188 1627.34863281 1204.23339844 1640 1080 1640 c 0
 880 1640 700.717773438 1371.74023438 600 1040 c 1
 480 1200 l 1
 560 1600 752.052734375 1880 1120 1880 c 4
 1440 1880 1640 1680 1640 1400 c 9
1000 1400 m 0
 1000 1576.73144531 1143.26855469 1720 1320 1720 c 0
 1496.73144531 1720 1640 1576.73144531 1640 1400 c 0
 1640 1223.26855469 1496.73144531 1080 1320 1080 c 0
 1143.26855469 1080 1000 1223.26855469 1000 1400 c 0
EndSplineSet
EndChar
StartChar: s
Encoding: 115 115 88
Width: 1640
VWidth: 0
UnlinkRmOvrlpSave: 1
Flags: HW
HStem: -40 320<604.496 1129.4> 120 280<245 555> 1440 280<1205 1515> 1560 280<660.225 1154.3>
VStem: 120 560<245 602.814> 160 480<1245.68 1530.51> 1080 560<1237.19 1595> 1160 520<318.778 627.708>
AnchorPoint: "cedilla" 844 80 basechar 0
AnchorPoint: "top" 820 1920 basechar 0
LayerCount: 2
Back
SplineSet
1080 1440 m 0x22
 1080 1595 1205 1720 1360 1720 c 0
 1515 1720 1640 1595 1640 1440 c 0
 1640 1285 1515 1160 1360 1160 c 0
 1205 1160 1080 1285 1080 1440 c 0x22
120 400 m 0x48
 120 555 245 680 400 680 c 0
 555 680 680 555 680 400 c 0
 680 245 555 120 400 120 c 0
 245 120 120 245 120 400 c 0x48
120 400 m 1
 600 400 l 1x49
 640 331 680 280 840 280 c 0
 1120 280 1160 349 1160 480 c 0
 1160 880 160 600 160 1280 c 0
 160 1760 560 1840 958 1840 c 0x95
 1400 1840 1640 1640 1640 1440 c 1x26
 1160 1440 l 1x21
 1120 1509 1080 1560 920 1560 c 0
 748 1560 640 1531 640 1400 c 0
 640 1000 1680 1240 1680 560 c 0
 1680 80 1280 -40 802 -40 c 0x95
 400 -40 120 120 120 400 c 1
EndSplineSet
Fore
SplineSet
120 400 m 1
 360 400 l 1
 360 280 480 200 760 200 c 0
 1120 200 1200 280 1200 520 c 0
 1200 920 160 720 160 1280 c 0
 160 1680 482.412109375 1840 840 1840 c 0
 1282.41210938 1840 1480 1640 1480 1440 c 1
 1240 1440 l 1
 1240 1560 1160 1640 840 1640 c 0
 520 1640 480 1490.88574219 480 1320 c 0
 480 880 1520 1120 1520 560 c 0
 1520 120 1277.58789062 -40 840 -40 c 0
 437.587890625 -40 120 120 120 400 c 1
120 400 m 0
 120 554.639648438 245.360351562 680 400 680 c 0
 554.639648438 680 680 554.639648438 680 400 c 0
 680 245.360351562 554.639648438 120 400 120 c 0
 245.360351562 120 120 245.360351562 120 400 c 0
920 1440 m 0
 920 1594.63964844 1045.36035156 1720 1200 1720 c 0
 1354.63964844 1720 1480 1594.63964844 1480 1440 c 0
 1480 1285.36035156 1354.63964844 1160 1200 1160 c 0
 1045.36035156 1160 920 1285.36035156 920 1440 c 0
EndSplineSet
EndChar
StartChar: t
Encoding: 116 116 92
Width: 1320
VWidth: 0
UnlinkRmOvrlpSave: 1
Flags: HW
HStem: -40 360<858.876 1180.74> 1520 320<80 277.248 840 1400>
VStem: 280 560<339.094 1520> 1240 240<381.809 524.779>
AnchorPoint: "cedilla" 744 80 basechar 0
AnchorPoint: "top" 530 2320 basechar 0
LayerCount: 2
Back
SplineSet
640 2240 m 1
 840 2240 l 1
 840 1840 l 1
 1400 1840 l 1
 1400 1520 l 1
 840 1520 l 1
 840 480 l 2
 840 400 880 320 1000 320 c 0
 1120 320 1216 400 1240 560 c 1
 1480 520 l 1
 1440 216 1257 -40 920 -40 c 0
 520 -40 280 160 280 480 c 2
 280 1520 l 1
 80 1520 l 1
 80 1840 l 1
 120 1840 l 2
 320 1840 463 1934 640 2240 c 1
EndSplineSet
Fore
SplineSet
480 2240 m 1
 600 2240 l 1
 600 1840 l 1
 1160 1840 l 1
 1160 1600 l 1
 600 1600 l 1
 600 400 l 2
 600 280 667.624023438 200 760 200 c 0
 880 200 960 280 1000 560 c 1
 1200 520 l 1
 1160 200 1040 -40 760 -40 c 0
 400 -40 280 160 280 480 c 2
 280 1600 l 1
 80 1600 l 1
 80 1840 l 1
 120 1840 l 2
 280 1840 320 1880 480 2240 c 1
EndSplineSet
EndChar
StartChar: u
Encoding: 117 117 94
Width: 2120
VWidth: 0
UnlinkRmOvrlpSave: 1
Flags: HW
HStem: -40 360<651.063 1229.9> 0 320<2000 2200> 1520 320<80 280 1240 1440>
VStem: 280 560<378.991 1520> 1436 564<469.944 1520>
AnchorPoint: "ogonek" 1920 80 basechar 0
AnchorPoint: "cedilla" 1084 80 basechar 0
AnchorPoint: "top" 1050 1920 basechar 0
LayerCount: 2
Back
SplineSet
80 1840 m 1xb8
 840 1840 l 1
 840 720 l 2
 840 400 920 320 1096 320 c 0xb8
 1209 320 1332 421 1436 589 c 1
 1440 1520 l 1
 1240 1520 l 1
 1240 1840 l 1
 2000 1840 l 1
 2000 320 l 1
 2200 320 l 1
 2200 0 l 1
 1579 0 l 1x78
 1439 272 l 1
 1347 102 1179 -40 880 -40 c 0
 404 -40 280 280 280 760 c 2
 280 1520 l 1
 80 1520 l 1
 80 1840 l 1xb8
EndSplineSet
Fore
SplineSet
1320 1840 m 1
 1840 1840 l 1
 1840 240 l 1
 2040 240 l 1
 2040 0 l 1
 1685.71875 0 l 1
 1520 320 l 1
 1520 1600 l 1
 1320 1600 l 1
 1320 1840 l 1
80 1840 m 1
 600 1840 l 1
 600 720 l 2
 600 360 760 200 1000 200 c 0
 1280 200 1400 440 1520 680 c 1
 1600 480 l 1
 1506.90917969 163.560546875 1280 -40 960 -40 c 0
 484.143554688 -40 280 280 280 760 c 2
 280 1600 l 1
 80 1600 l 1
 80 1840 l 1
EndSplineSet
EndChar
StartChar: v
Encoding: 118 118 95
Width: 2160
VWidth: 0
UnlinkRmOvrlpSave: 1
Flags: HW
HStem: 0 21G<927.211 1368.79> 1520 320<80 268 871 1200 1400 1680 2028 2240>
AnchorPoint: "cedilla" 1084 80 basechar 0
AnchorPoint: "top" 1130 1920 basechar 0
LayerCount: 2
Back
SplineSet
80 1840 m 1
 1200 1840 l 1
 1200 1520 l 1
 871 1520 l 1
 1188 800 l 2
 1217 733 1257 630 1276 560 c 1
 1295 630 1335 733 1364 800 c 2
 1680 1520 l 1
 1400 1520 l 1
 1400 1840 l 1
 2240 1840 l 1
 2240 1520 l 1
 2028 1520 l 1
 1360 0 l 1
 936 0 l 1
 268 1520 l 1
 80 1520 l 1
 80 1840 l 1
EndSplineSet
Fore
SplineSet
80 1840 m 1
 960 1840 l 1
 960 1600 l 1
 600 1600 l 1
 1032.3359375 616.299804688 l 2
 1061.63574219 549.6328125 1101.20800781 446.590820312 1120.234375 376.299804688 c 1
 1139.50195312 446.525390625 1178.85839844 549.62109375 1208.1328125 616.299804688 c 2
 1640 1600 l 1
 1480 1600 l 1
 1480 1840 l 1
 2080 1840 l 1
 2080 1600 l 1
 1903.20019531 1600 l 1
 1200 0 l 1
 935.859375 0 l 1
 232.66015625 1600 l 1
 80 1600 l 1
 80 1840 l 1
EndSplineSet
EndChar
StartChar: w
Encoding: 119 119 96
Width: 3080
VWidth: 0
UnlinkRmOvrlpSave: 1
Flags: HW
HStem: 0 21G<808.789 1369.2 1952.8 2407.21> 1520 320<80 268 886 1200 1400 1560 1924 2120 2320 2598 2948 3160>
AnchorPoint: "cedilla" 1564 80 basechar 0
AnchorPoint: "top" 1570 1920 basechar 0
LayerCount: 2
Back
SplineSet
80 1840 m 1
 1200 1840 l 1
 1200 1520 l 1
 886 1520 l 1
 1155 800 l 2
 1180 733 1205 646 1230 550 c 1
 1254 646 1278 733 1302 800 c 2
 1560 1520 l 1
 1400 1520 l 1
 1400 1840 l 1
 2120 1840 l 1
 2120 1520 l 1
 1924 1520 l 1
 2194 800 l 2
 2219 733 2244 646 2269 550 c 1
 2293 646 2316 733 2340 800 c 2
 2598 1520 l 1
 2320 1520 l 1
 2320 1840 l 1
 3160 1840 l 1
 3160 1520 l 1
 2948 1520 l 1
 2400 0 l 1
 1960 0 l 1
 1744 600 l 2
 1716 677 1689 770 1661 880 c 1
 1633 770 1606 677 1578 600 c 2
 1362 0 l 1
 816 0 l 1
 268 1520 l 1
 80 1520 l 1
 80 1840 l 1
EndSplineSet
Fore
SplineSet
263.116210938 1600 m 1
 621.944335938 1600 l 1
 1000.54003906 549.953125 l 2
 1019.06835938 500.434570312 1037.59570312 439.28515625 1056.12402344 371.90625 c 1
 1073.8515625 439.297851562 1091.55957031 500.46484375 1109.40820312 549.953125 c 2
 1488 1600 l 1
 1721.90820312 1600 l 1
 2100.5 549.953125 l 2
 2119.02832031 500.434570312 2137.55566406 439.28515625 2156.08398438 371.90625 c 1
 2173.81152344 439.297851562 2191.51953125 500.46484375 2209.36816406 549.953125 c 2
 2587.95996094 1600 l 1
 2840 1600 l 1
 2267.95996094 0 l 1
 1939.95996094 0 l 1
 1607.37597656 922.796875 l 2
 1589.46386719 972.4921875 1570.44433594 1033.46484375 1551.91601562 1100.84375 c 1
 1534.18847656 1033.45214844 1516.04003906 972.44140625 1498.27246094 922.796875 c 2
 1168 0 l 1
 840 0 l 1
 263.116210938 1600 l 1
80 1840 m 1
 960 1840 l 1
 960 1600 l 1
 80 1600 l 1
 80 1840 l 1
1360 1840 m 1
 1920 1840 l 1
 1920 1600 l 1
 1360 1600 l 1
 1360 1840 l 1
2400 1840 m 1
 3000 1840 l 1
 3000 1600 l 1
 2400 1600 l 1
 2400 1840 l 1
EndSplineSet
EndChar
StartChar: x
Encoding: 120 120 97
Width: 2120
VWidth: 0
UnlinkRmOvrlpSave: 1
Flags: HW
HStem: 0 320<80 960 1160 1360 2000 2200> 1520 320<80 271 911 1120 1320 1560 2000 2200>
AnchorPoint: "cedilla" 969 80 basechar 0
AnchorPoint: "top" 1055 1920 basechar 0
LayerCount: 2
Back
SplineSet
1560 1520 m 1
 2000 1520 l 1
 1520 920 l 1
 2000 320 l 1
 1360 320 l 1
 880 920 l 1
 1080 920 l 1
 1560 1520 l 1
711 320 m 1
 271 320 l 1
 751 920 l 1
 271 1520 l 1
 911 1520 l 1
 1391 920 l 1
 1191 920 l 1
 711 320 l 1
1320 1520 m 1
 1320 1840 l 1
 2200 1840 l 1
 2200 1520 l 1
 1320 1520 l 1
1120 1520 m 1
 80 1520 l 1
 80 1840 l 1
 1120 1840 l 1
 1120 1520 l 1
960 320 m 1
 960 0 l 1
 80 0 l 1
 80 320 l 1
 960 320 l 1
1160 320 m 1
 2200 320 l 1
 2200 0 l 1
 1160 0 l 1
 1160 320 l 1
EndSplineSet
Fore
SplineSet
1594.42382812 1600 m 1
 1889.84765625 1600 l 1
 1289.84765625 920 l 1
 1889.84765625 240 l 1
 1466.42382812 240 l 1
 866.423828125 920 l 1
 994.423828125 920 l 1
 1594.42382812 1600 l 1
239 1600 m 1
 662.423828125 1600 l 1
 1262.42382812 920 l 1
 1134.42382812 920 l 1
 534.423828125 240 l 1
 239 240 l 1
 839 920 l 1
 239 1600 l 1
1399 1840 m 1
 2039 1840 l 1
 2039 1600 l 1
 1399 1600 l 1
 1399 1840 l 1
79 1840 m 1
 879 1840 l 1
 879 1600 l 1
 79 1600 l 1
 79 1840 l 1
79 240 m 1
 719 240 l 1
 719 0 l 1
 79 0 l 1
 79 240 l 1
1239 240 m 1
 2039 240 l 1
 2039 0 l 1
 1239 0 l 1
 1239 240 l 1
EndSplineSet
EndChar
StartChar: y
Encoding: 121 121 98
Width: 2160
VWidth: 0
UnlinkRmOvrlpSave: 1
Flags: HW
HStem: -800 305<403 821.111> 1520 320<80 268 871 1200 1400 1680 2028 2240>
VStem: 80 640<-464.655 -219.115>
AnchorPoint: "ogonek" 1760 80 basechar 0
AnchorPoint: "cedilla" 1764 80 basechar 0
AnchorPoint: "top" 1045 1920 basechar 0
LayerCount: 2
Back
SplineSet
720 -440 m 0
 720 -617 577 -760 400 -760 c 0
 223 -760 80 -617 80 -440 c 0
 80 -263 223 -120 400 -120 c 0
 577 -120 720 -263 720 -440 c 0
671 -457 m 1
 687 -483 704 -495 722 -495 c 0
 777 -495 841 -387 898 -257 c 2
 973 -85 l 1
 268 1520 l 1
 80 1520 l 1
 80 1840 l 1
 1200 1840 l 1
 1200 1520 l 1
 871 1520 l 1
 1188 800 l 2
 1217 733 1257 630 1276 560 c 1
 1295 630 1335 733 1364 800 c 2
 1680 1520 l 1
 1400 1520 l 1
 1400 1840 l 1
 2240 1840 l 1
 2240 1520 l 1
 2028 1520 l 1
 1360 0 l 2
 1139 -503 956 -800 526 -800 c 0
 280 -800 188 -712 123 -600 c 1
 671 -457 l 1
EndSplineSet
Fore
SplineSet
824.767578125 -256.921875 m 2
 937.559570312 0 l 1
 1200 0 l 1
 978.948242188 -502.963867188 839.692382812 -800 526.064453125 -800 c 0
 280.00390625 -800 187.704101562 -712.2890625 122.875976562 -600 c 1
 400 -440 l 1
 567.295898438 -536.5234375 l 1
 678.015625 -536.5234375 748.67578125 -430.245117188 824.767578125 -256.921875 c 2
80 1840 m 1
 960 1840 l 1
 960 1600 l 1
 600 1600 l 1
 1032.3359375 616.299804688 l 2
 1061.63574219 549.6328125 1101.20800781 446.590820312 1120.23242188 376.299804688 c 1
 1139.50390625 446.525390625 1178.86035156 549.62109375 1208.13183594 616.299804688 c 2
 1640 1600 l 1
 1480 1600 l 1
 1480 1840 l 1
 2080 1840 l 1
 2080 1600 l 1
 1903.20019531 1600 l 1
 1200 0 l 1
 935.860351562 0 l 1
 232.66015625 1600 l 1
 80 1600 l 1
 80 1840 l 1
720 -440 m 0
 720 -617 577 -760 400 -760 c 0
 223 -760 80 -617 80 -440 c 0
 80 -263 223 -120 400 -120 c 0
 577 -120 720 -263 720 -440 c 0
EndSplineSet
EndChar
StartChar: z
Encoding: 122 122 99
Width: 1640
VWidth: 0
UnlinkRmOvrlpSave: 1
Flags: HW
HStem: 0 320<792 1360> 1520 320<440 976>
VStem: 120 320<1040 1520> 1360 320<320 800>
AnchorPoint: "cedilla" 844 80 basechar 0
AnchorPoint: "top" 810 1920 basechar 0
LayerCount: 2
Back
SplineSet
120 1840 m 1
 1680 1840 l 1
 1680 1656 l 1
 913 480 l 2
 878 427 839 378 792 320 c 1
 1360 320 l 1
 1360 800 l 1
 1680 800 l 1
 1680 0 l 1
 80 0 l 1
 80 184 l 1
 847 1360 l 2
 882 1413 926 1464 976 1520 c 1
 440 1520 l 1
 440 1040 l 1
 120 1040 l 1
 120 1840 l 1
EndSplineSet
Fore
SplineSet
120 1840 m 1
 1520 1840 l 1
 1520 1656 l 1
 633.047851562 400 l 2
 596.3203125 347.987304688 559.32421875 297.653320312 512 240 c 1
 1280 240 l 1
 1280 800 l 1
 1520 800 l 1
 1520 0 l 1
 80 0 l 1
 80 184 l 1
 966.952148438 1440 l 2
 1003.68359375 1492.01269531 1046.3203125 1544.36425781 1096 1600 c 1
 360 1600 l 1
 360 1040 l 1
 120 1040 l 1
 120 1840 l 1
EndSplineSet
EndChar
StartChar: braceleft
Encoding: 123 123 320
Width: 1240
VWidth: 0
UnlinkRmOvrlpSave: 1
Flags: HW
HStem: -800 320<-13350 -12860.2> 760 320<-14110 -13590> 2320 320<-13350 -12860.2>
VStem: -13790 560<-417.767 731.017 1108.98 2257.77>
CounterMasks: 1 e0
LayerCount: 2
Fore
SplineSet
840 2640 m 4
 1017.92773438 2640 1087.24414062 2612.02539062 1160 2560 c 5
 1095.29589844 2360 l 5
 1068.91992188 2377.30273438 1040 2400 960 2400 c 4
 867.01171875 2400 720 2360 720 2080 c 6
 720 1280 l 6
 720 1000 560 880 360 880 c 5
 360 840 l 5
 80 840 l 5
 80 1040 l 5
 200 1040 l 6
 334.4921875 1040 400 1136.171875 400 1240 c 6
 400 2080 l 6
 400 2440 600 2640 840 2640 c 4
840 -800 m 4
 600 -800 400 -600 400 -240 c 6
 400 600 l 6
 400 703.828125 334.4921875 800 200 800 c 6
 80 800 l 5
 80 1000 l 5
 360 1000 l 5
 360 960 l 5
 560 960 720 840 720 560 c 6
 720 -240 l 6
 720 -520 867.01171875 -560 960 -560 c 4
 1040 -560 1068.91992188 -537.302734375 1095.29589844 -520 c 5
 1160 -720 l 5
 1087.24414062 -772.025390625 1017.92773438 -800 840 -800 c 4
EndSplineSet
EndChar
StartChar: asciitilde
Encoding: 126 126 328
Width: 1736
VWidth: 0
Flags: HW
HStem: 632 640<192.746 560.322 1183.36 1549.74>
VStem: 80 560<709.549 936.952> 1096 560<959.048 1186.45>
LayerCount: 2
Fore
SplineSet
480 1272 m 4
 660 1272 782 1167 897 1070 c 4
 954 1022 1005 981 1040 966 c 4
 1057 958 1069 957 1076 959 c 4
 1082 960 1088 963 1096 973 c 4
 1096 977 1096 980 1096 984 c 4
 1096 1138 1222 1264 1376 1264 c 4
 1530 1264 1656 1138 1656 984 c 4
 1656 876 1622 784 1553 720 c 4
 1484 656 1383 624 1256 624 c 4
 1076 624 954 729 839 826 c 4
 782 874 731 915 696 930 c 4
 679 938 667 939 660 937 c 4
 654 936 648 933 640 923 c 4
 640 919 640 916 640 912 c 4
 640 758 514 632 360 632 c 4
 206 632 80 758 80 912 c 4
 80 1020 114 1112 183 1176 c 4
 252 1240 353 1272 480 1272 c 4
EndSplineSet
Validated: 1
EndChar
StartChar: cent
Encoding: 162 162 393
Width: 1874
VWidth: 0
UnlinkRmOvrlpSave: 1
Flags: HW
HStem: -40 332<884.946 1472.7> 1560 320<876.779 1459.62>
VStem: 100 594<499.927 1342.1> 900 320<-400 2240> 1294 640<1019.12 1417>
LayerCount: 2
Fore
SplineSet
810 -400 m 5
 810 2240 l 5
 1070 2240 l 5
 1070 -400 l 5
 810 -400 l 5
EndSplineSet
Refer: 66 99 N 1 0 0 1 0 0 2
EndChar
StartChar: sterling
Encoding: 163 163 306
Width: 2020
VWidth: 0
UnlinkRmOvrlpSave: 1
Flags: HW
HStem: 0 480<1543.83 1931.98> 200 440<772.475 1327.48> 880 320<166 1314> 1360 320<166 1314> 1840 320<1880 2057> 2200 320<1189.17 1740.48>
VStem: 360 640<1443.31 2013.63> 480 560<874.404 1355.26> 1560 640<1619.12 2017> 1880 320<1840 2017> 1960 320<503.369 800>
LayerCount: 2
Fore
SplineSet
300 160 m 1
 260 0 l 1
 140 200 l 1
 380 360 460 640 460 880 c 0
 460 1200 341.448242188 1360 340 1720 c 0
 338.01953125 2211.10253906 580 2520 1140 2520 c 0
 1500 2520 1860 2301.82226562 1860 1840 c 1
 1652 1840 l 1
 1652 2137.72167969 1380 2280 1140 2280 c 0
 865.299804688 2280 660 2104.51269531 660 1720 c 0
 660 1520 740 1160.171875 740 1000 c 0
 740 600 580 360 300 160 c 1
1220 1840 m 0
 1220 2016.73144531 1363.26855469 2160 1540 2160 c 0
 1716.73144531 2160 1860 2016.73144531 1860 1840 c 0
 1860 1663.26855469 1716.73144531 1520 1540 1520 c 0
 1363.26855469 1520 1220 1663.26855469 1220 1840 c 0
260 200 m 4
 500 400 748 480 1028 480 c 0
 1348 480 1439.20800781 320 1580 320 c 0
 1660 320 1700 381.8828125 1700 680 c 2
 1700 800 l 1
 1940 800 l 1
 1940 680 l 2
 1940 120 1820 0 1540 0 c 0
 1220 0 1140 200 860 200 c 0
 580 200 478.715820312 150.966796875 260 0 c 4
 260 200 l 4
1140 1640 m 1
 1075.69238281 1399.99902344 l 1
 81.435546875 1400.00097656 l 1
 145.744140625 1640.00195312 l 1
 1140 1640 l 1
1140 1160.00097656 m 1
 1075.69238281 920 l 1
 81.435546875 920.001953125 l 1
 145.744140625 1160.00292969 l 1
 1140 1160.00097656 l 1
EndSplineSet
EndChar
StartChar: currency
Encoding: 164 164 321
Width: 2368
VWidth: 0
UnlinkRmOvrlpSave: 1
Flags: HW
HStem: 293 320<907.52 1460.48> 1560 333<889.142 1478.86>
VStem: 384 320<816.52 1369.48> 1664 320<816.52 1369.48>
LayerCount: 2
Fore
SplineSet
1184 1893 m 0
 1626 1893 1984 1535 1984 1093 c 0
 1984 651 1626 293 1184 293 c 0
 742 293 384 651 384 1093 c 0
 384 1535 742 1893 1184 1893 c 0
1184 1573 m 0
 919 1573 704 1358 704 1093 c 0
 704 828 919 613 1184 613 c 0
 1449 613 1664 828 1664 1093 c 0
 1664 1358 1449 1573 1184 1573 c 0
2048 2224 m 0
 2181 2224 2288 2117 2288 1984 c 0
 2288 1918 2261 1857 2218 1814 c 0
 2057 1653 1935 1758 1737 1560 c 1
 1624 1560 l 1
 1624 1673 l 1
 1822 1871 1717 1993 1878 2154 c 0
 1921 2197 1982 2224 2048 2224 c 0
2288 256 m 0
 2288 123 2181 16 2048 16 c 0
 1982 16 1921 43 1878 86 c 0
 1717 247 1822 369 1624 567 c 1
 1624 680 l 1
 1737 680 l 1
 1935 482 2057 587 2218 426 c 0
 2261 383 2288 322 2288 256 c 0
320 16 m 0
 187 16 80 123 80 256 c 0
 80 322 107 383 150 426 c 0
 311 587 433 482 631 680 c 1
 744 680 l 1
 744 567 l 1
 546 369 651 247 490 86 c 0
 447 43 386 16 320 16 c 0
80 1984 m 0
 80 2117 187 2224 320 2224 c 0
 386 2224 447 2197 490 2154 c 0
 651 1993 546 1871 744 1673 c 1
 744 1560 l 1
 631 1560 l 1
 433 1758 311 1653 150 1814 c 0
 107 1857 80 1918 80 1984 c 0
EndSplineSet
EndChar
StartChar: yen
Encoding: 165 165 307
Width: 2840
VWidth: 0
UnlinkRmOvrlpSave: 1
Flags: W
HStem: 0 320<756 1076 1716 2036> 520 320<580 2169> 1000 320<580 1076 1356 2169> 2160 320<80 1360 1680 2221 2480 2760>
VStem: 1076 640<320 1320>
LayerCount: 2
Fore
SplineSet
80 2480 m 1
 1360 2480 l 1
 1360 2160 l 1
 80 2160 l 1
 80 2480 l 1
1680 2480 m 1
 2760 2480 l 1
 2760 2160 l 1
 1680 2160 l 1
 1680 2480 l 1
2221 2348 m 1
 2480 2160 l 1
 1615 970 l 1
 1356 1159 l 1
 2221 2348 l 1
1135 1040 m 1
 320 2160 l 1
 1111 2160 l 1
 1652 1416 l 1
 1135 1040 l 1
1076 1320 m 1
 1716 1320 l 1
 1716 320 l 1
 2036 320 l 1
 2036 0 l 1
 756 0 l 1
 756 320 l 1
 1076 320 l 1
 1076 1320 l 1
2255 1320 m 1
 2169 1000 l 1
 495 1000 l 1
 580 1320 l 1
 2255 1320 l 1
2255 840 m 1
 2169 520 l 1
 495 520 l 1
 580 840 l 1
 2255 840 l 1
EndSplineSet
EndChar
StartChar: section
Encoding: 167 167 323
Width: 1920
VWidth: 0
UnlinkRmOvrlpSave: 1
Flags: HW
HStem: -800 320<804.496 1329.4> -640 280<445 755> 2240 280<1405 1715> 2360 280<860.225 1354.3>
VStem: 80 560<649.484 1275.3> 320 560<-515 -157.186> 360 480<2036.87 2330.51> 1280 560<2037.19 2395> 1360 520<-441.222 -123.815> 1560 560<627.563 1193.27>
LayerCount: 2
Fore
SplineSet
1000 2240 m 0
 1000 2394.63964844 1125.36035156 2520 1280 2520 c 0
 1434.63964844 2520 1560 2394.63964844 1560 2240 c 0
 1560 2085.36035156 1434.63964844 1960 1280 1960 c 0
 1125.36035156 1960 1000 2085.36035156 1000 2240 c 0
360 -360 m 0
 360 -205.360351562 485.360351562 -80 640 -80 c 0
 794.639648438 -80 920 -205.360351562 920 -360 c 0
 920 -514.639648438 794.639648438 -640 640 -640 c 0
 485.360351562 -640 360 -514.639648438 360 -360 c 0
1040 40 m 9
 960 200 l 17
 1360 360 1520 560 1520 880 c 0
 1520 1080 1415.22558594 1463.58105469 880 1608 c 0
 641.9296875 1672.23828125 400 1920 400 2120 c 0
 400 2520 720 2640 1037.58789062 2640 c 0
 1480 2640 1560 2440 1560 2240 c 1
 1400 2240 l 1
 1400 2360 1280 2440 1000 2440 c 0
 828.040039062 2440 680 2360 680 2160 c 0
 680 2008.22070312 853.407226562 1857.99707031 1040 1808 c 0
 1480 1690.10253906 1840 1360 1840 960 c 0
 1840 480 1480 200 1040 40 c 9
880 1800 m 9
 960 1640 l 17
 560 1480 400 1280 400 960 c 0
 400 760 504.774414062 376.418945312 1040 232 c 0
 1278.0703125 167.76171875 1520 -80 1520 -280 c 0
 1520 -680 1200 -800 882.412109375 -800 c 0
 440 -800 360 -560 360 -360 c 1
 520 -360 l 1
 520 -480 640 -600 920 -600 c 0
 1091.95996094 -600 1240 -520 1240 -320 c 0
 1240 -168.220703125 1066.59277344 -17.9970703125 880 32 c 0
 440 149.897460938 80 480 80 880 c 0
 80 1360 440 1640 880 1800 c 9
EndSplineSet
EndChar
StartChar: dieresis
Encoding: 168 168 93
Width: 1760
VWidth: 0
Flags: W
HStem: 2000 640<179.115 620.885 1139.12 1580.88>
VStem: 80 640<2099.12 2540.88> 1040 640<2099.12 2540.88>
LayerCount: 2
Fore
SplineSet
400 2640 m 0
 577 2640 720 2497 720 2320 c 0
 720 2143 577 2000 400 2000 c 0
 223 2000 80 2143 80 2320 c 0
 80 2497 223 2640 400 2640 c 0
1360 2640 m 0
 1537 2640 1680 2497 1680 2320 c 0
 1680 2143 1537 2000 1360 2000 c 0
 1183 2000 1040 2143 1040 2320 c 0
 1040 2497 1183 2640 1360 2640 c 0
EndSplineSet
Validated: 1
EndChar
StartChar: copyright
Encoding: 169 169 351
Width: 3280
VWidth: 0
UnlinkRmOvrlpSave: 1
Flags: HW
HStem: -640 320<1179.81 2100.19> -40 332<1463.15 2034.37> 1560 320<1454.53 1990.01> 2160 320<1179.81 2100.19>
VStem: 80 320<459.815 1380.19> 760 480<529.155 1318.92> 2215 280<480.625 608.192> 2880 320<459.815 1380.19>
LayerCount: 2
Fore
SplineSet
1640 2240 m 0
 908.719726562 2240 320 1651.28027344 320 920 c 0
 320 188.719726562 908.719726562 -400 1640 -400 c 0
 2371.28027344 -400 2960 188.719726562 2960 920 c 0
 2960 1651.28027344 2371.28027344 2240 1640 2240 c 0
1678.328125 1880 m 7
 2113.18847657 1880 2279.5078125 1672.99707031 2437.12402344 1400 c 1
 2177.40039062 1224.640625 l 1
 2120 1520 1941.40820312 1640 1680 1640 c 0
 1400 1640 1120 1404.57128906 1120 920 c 0
 1120 435.428710938 1400 200 1680 200 c 7
 2000 200 2186.41210938 400 2240 600 c 1
 2470.95214844 533.1796875 l 1
 2354.22753906 213.1796875 2139.52832032 -40 1684.04785156 -40 c 7
 1154.77636718 -40 800 339.78125 800 920 c 0
 800 1500.21875 1149.05566406 1880 1678.328125 1880 c 7
1840 1240 m 0
 1840 1416.73144531 1983.26855469 1560 2160 1560 c 0
 2336.73144531 1560 2480 1416.73144531 2480 1240 c 0
 2480 1063.26855469 2336.73144531 920 2160 920 c 0
 1983.26855469 920 1840 1063.26855469 1840 1240 c 0
1640 2480 m 0
 2504 2480 3200 1784 3200 920 c 0
 3200 56 2504 -640 1640 -640 c 0
 776 -640 80 56 80 920 c 0
 80 1784 776 2480 1640 2480 c 0
EndSplineSet
EndChar
StartChar: ordfeminine
Encoding: 170 170 325
Width: 1840
VWidth: 0
UnlinkRmOvrlpSave: 1
Flags: W
HStem: 840 282<480 1047.56> 1516 245<480 1064.17> 2200 320<709.156 1116.33>
VStem: 80 560<1153.05 1483.11> 194 566<1915.25 2320> 1160 520<1218 2152.12>
LayerCount: 2
Fore
SplineSet
194 2120 m 4xec
 194 2276 321 2403 477 2403 c 4
 633 2403 760 2276 760 2120 c 4
 760 1964 633 1837 477 1837 c 4
 321 1837 194 1964 194 2120 c 4xec
640 1761 m 4xf4
 985 1761 1138 1670 1271 1459 c 5
 1194 1339 l 5
 1271 1218 l 5
 1122 916 985 840 640 840 c 4
 320 840 80 1000 80 1339 c 4
 80 1640 320 1761 640 1761 c 4xf4
892 1516 m 4
 722 1516 640 1460 640 1339 c 4
 640 1201 703 1122 872 1122 c 4
 998 1122 1140 1246 1188 1338 c 5
 1128 1423 996 1516 892 1516 c 4
1680 1845 m 6
 1680 1200 l 5
 1760 1200 l 5
 1760 880 l 5
 1297 880 l 5
 1160 1200 l 5
 1160 1904 l 6
 1160 2149 1093 2200 880 2200 c 4
 789 2200 730 2177 720 2160 c 6
 477 2040 l 5
 277 2320 l 5
 402 2445 579 2520 968 2520 c 4
 1415 2520 1680 2251 1680 1845 c 6
EndSplineSet
EndChar
StartChar: logicalnot
Encoding: 172 172 343
Width: 1680
VWidth: 0
Flags: HW
HStem: 1280 320<80 1280>
VStem: 1280 320<880 1280>
LayerCount: 2
Fore
SplineSet
80 1600 m 1
 1600 1600 l 1
 1600 880 l 1
 1280 880 l 1
 1280 1280 l 1
 80 1280 l 1
 80 1600 l 1
EndSplineSet
EndChar
StartChar: registered
Encoding: 174 174 352
Width: 3280
VWidth: 0
UnlinkRmOvrlpSave: 1
Flags: HW
HStem: -640 320<1179.81 2100.19> -40 320<1936 2236.21> 0 320<840 960 1440 1520> 720 320<1352 1552> 760 280<1280 1352 1520 1880> 760 160<1352 1912> 1520 320<840 960 1446 1867.34> 2160 320<1179.81 2100.19>
VStem: 80 320<459.815 1380.19> 960 480<320 720 1040 1520> 1280 166<920 1040> 1352 88<720 920> 1920 480<1070.25 1483.12> 2240 280<280.625 560> 2880 320<459.815 1380.19>
LayerCount: 2
Fore
SplineSet
1630 2480 m 4
 2494.24023438 2480 3190 1784.24023438 3190 920 c 4
 3190 55.759765625 2494.24023438 -640 1630 -640 c 4
 765.759765625 -640 70 55.759765625 70 920 c 4
 70 1784.24023438 765.759765625 2480 1630 2480 c 4
1630 2240 m 4
 898.719726562 2240 310 1651.28027344 310 920 c 4
 310 188.719726562 898.719726562 -400 1630 -400 c 4
 2361.28027344 -400 2950 188.719726562 2950 920 c 4
 2950 1651.28027344 2361.28027344 2240 1630 2240 c 4
1030 1600 m 5
 1350 1600 l 5
 1350 240 l 5
 1590 240 l 5
 1590 0 l 5
 830 0 l 5
 830 240 l 5
 1030 240 l 5
 1030 1600 l 5
830 1840 m 5
 1582 1840 l 6
 2103.14355469 1840 2350 1721.00390625 2350 1332.57128906 c 4
 2350 1070.67285156 2214.27636719 880 1746.57226562 880 c 6
 1270 880 l 5
 1270 1040 l 5
 1665.88378906 1040 l 6
 1979.484375 1040 2024.28417969 1129.59960938 2024.28417969 1308.79980469 c 4
 2024.28417969 1555.20019531 1889.88378906 1600 1598.68359375 1600 c 6
 830 1600 l 5
 830 1840 l 5
1190 960 m 5
 1574 960 l 6
 1814 960 1956.85644531 920 2014 520 c 4
 2054 240 2070 200 2150 200 c 4
 2212.17578125 200 2230 240 2230 400 c 6
 2230 560 l 5
 2430 560 l 5
 2430 400 l 6
 2430 160 2350 -40 2133.08007812 -40 c 4
 1910 -40 1790 40 1710 520 c 4
 1670 760 1590 800 1470 800 c 6
 1190 800 l 5
 1190 960 l 5
EndSplineSet
EndChar
StartChar: macron
Encoding: 175 175 223
Width: 1240
VWidth: 0
Flags: HW
HStem: 2080 320<80 1160>
VStem: 80 1080<2080 2400>
LayerCount: 2
Fore
SplineSet
80 2160 m 5
 80 2400 l 1
 1160 2400 l 1
 1160 2160 l 5
 80 2160 l 5
EndSplineSet
EndChar
StartChar: degree
Encoding: 176 176 369
Width: 1360
VWidth: 0
Flags: HW
HStem: 1160 320<606.932 913.068> 2200 320<606.932 913.068>
VStem: 80 480<1515.1 2164.9> 960 480<1515.1 2164.9>
LayerCount: 2
Fore
SplineSet
680 2520 m 0
 997.6484375 2520 1280 2355 1280 1860 c 0
 1280 1365 997.6484375 1200 680 1200 c 0
 362.3515625 1200 80 1365 80 1860 c 0
 80 2355 362.3515625 2520 680 2520 c 0
680 2280 m 0
 512 2280 400 2210 400 1860 c 0
 400 1510 512 1440 680 1440 c 0
 848 1440 960 1510 960 1860 c 0
 960 2210 848 2280 680 2280 c 0
EndSplineSet
EndChar
StartChar: plusminus
Encoding: 177 177 308
Width: 1680
VWidth: 0
Flags: HW
HStem: 240 320<80 1600> 1320 320<80 680 1000 1600>
VStem: 680 320<720 1320 1640 2240>
LayerCount: 2
Fore
SplineSet
720 2240 m 1
 960 2240 l 5
 960 1600 l 5
 1600 1600 l 1
 1600 1360 l 1
 960 1360 l 5
 960 720 l 5
 720 720 l 1
 720 1360 l 1
 80 1360 l 1
 80 1600 l 1
 720 1600 l 1
 720 2240 l 1
80 520 m 1
 1600 520 l 1
 1600 280 l 1
 80 280 l 1
 80 520 l 1
EndSplineSet
EndChar
StartChar: uni00B2
Encoding: 178 178 312
Width: 1440
VWidth: 0
UnlinkRmOvrlpSave: 1
Flags: HW
HStem: 1040 640<1320 1680> 1040 400<600 1320> 2360 320<448.059 1105.56>
VStem: 80 560<1957.19 2315> 1120 560<2078.78 2327.81> 1320 360<1440 1680>
LayerCount: 2
Fore
SplineSet
80 2160 m 0
 80 2314.63964844 205.360351562 2440 360 2440 c 0
 514.639648438 2440 640 2314.63964844 640 2160 c 0
 640 2005.36035156 514.639648438 1880 360 1880 c 0
 205.360351562 1880 80 2005.36035156 80 2160 c 0
80 2160 m 21
 80 2440 320 2680 680 2680 c 0
 1120 2680 1360 2520 1360 2200 c 0
 1360 1974.2578125 1109.27441406 1761.85351562 819.64453125 1658.2734375 c 0
 476.788085938 1535.65820312 336 1375.30175781 336 1200 c 1
 80 1040 l 1
 80 1520 320 1720 680 1880 c 0
 937.17578125 1994.30078125 1064 2072.46484375 1064 2200 c 0
 1064 2320 968.435546875 2440 680 2440 c 0
 440.487304688 2440 280 2320 280 2160 c 13
 80 2160 l 21
1160 1680 m 1
 1360 1680 l 1
 1360 1040 l 1
 80 1040 l 1
 240 1280 l 1
 1160 1280 l 1
 1160 1680 l 1
EndSplineSet
EndChar
StartChar: uni00B3
Encoding: 179 179 313
Width: 1520
VWidth: 0
UnlinkRmOvrlpSave: 1
Flags: HW
HStem: 1000 320<464.385 1150.93> 1680 320<760 1160> 1840 40<760 1440> 2360 320<513.672 1134.42>
VStem: 80 560<1512.76 1722.81> 1160 560<2015.07 2333.03> 1200 560<1365.52 1663.05>
LayerCount: 2
Fore
SplineSet
80 1500 m 0
 80 1654.63964844 205.360351562 1780 360 1780 c 0
 514.639648438 1780 640 1654.63964844 640 1500 c 0
 640 1345.36035156 514.639648438 1220 360 1220 c 0
 205.360351562 1220 80 1345.36035156 80 1500 c 0
80 1500 m 9
 320 1420 l 17
 320 1300 480.478515625 1220 719.991210938 1220 c 0
 1000 1220 1136 1300 1136 1500 c 0
 1136 1660 999.891601562 1700 800 1700 c 2
 680 1700 l 1
 680 1860 l 1
 839.991210938 1860 l 2
 1280 1860 1440 1740 1440 1500 c 0
 1440 1180 1280 980 800 980 c 0
 320 980 80 1220 80 1500 c 9
120 2140 m 0
 120 2294.63964844 245.360351562 2420 400 2420 c 0
 554.639648438 2420 680 2294.63964844 680 2140 c 0
 680 1985.36035156 554.639648438 1860 400 1860 c 0
 245.360351562 1860 120 1985.36035156 120 2140 c 0
120 2140 m 17
 120 2420 320 2660 800 2660 c 0
 1280 2660 1400 2420 1400 2180 c 0
 1400 1940 1240 1820 839.991210938 1820 c 2
 680 1820 l 1
 680 1940 l 1
 800 1940 l 2
 999.891601562 1940 1096 2020 1096 2180 c 0
 1096 2340 920 2420 719.991210938 2420 c 0
 480.478515625 2420 320 2340 320 2220 c 9
 120 2140 l 17
EndSplineSet
EndChar
StartChar: mu
Encoding: 181 181 344
Width: 2120
VWidth: 0
UnlinkRmOvrlpSave: 1
Flags: HW
HStem: -640 320<80 280 840 1040> -40 360<937.368 1305.44> 0 320<2000 2200> 1520 320<80 280 1240 1440>
VStem: 280 560<-320 40 800 1520> 1436 564<449.834 1520>
LayerCount: 2
Fore
SplineSet
80 1840 m 1
 600 1840 l 1
 600 -400 l 1
 800 -400 l 1
 800 -640 l 1
 80 -640 l 1
 80 -400 l 1
 280 -400 l 1
 280 1600 l 1
 80 1600 l 1
 80 1840 l 1
520 720 m 1
 600 720 l 1
 600 360 760 200 1000 200 c 0
 1280 200 1400 440 1520 680 c 1
 1600 480 l 1
 1506.90917969 163.560546875 1360 -40 1040 -40 c 0
 564.143554688 -40 520 240 520 720 c 1
1320 1840 m 1
 1840 1840 l 1
 1840 240 l 1
 2040 240 l 1
 2040 0 l 1
 1685.71875 0 l 1
 1520 320 l 1
 1520 1600 l 1
 1320 1600 l 1
 1320 1840 l 1
EndSplineSet
EndChar
StartChar: paragraph
Encoding: 182 182 297
Width: 2320
VWidth: 0
Flags: HW
HStem: -640 21G<1120 1440 1680 2000> 2160 320<1440 1680 2000 2240>
VStem: 80 1360<1138.52 1981.48> 1120 320<-640 640> 1680 320<-640 2160>
LayerCount: 2
Fore
SplineSet
1040 2480 m 2
 2240 2480 l 1
 2240 2240 l 1
 2000 2240 l 1
 2000 -640 l 1
 1760 -640 l 1
 1760 2240 l 1
 1440 2240 l 1
 1440 -640 l 1
 1200 -640 l 1
 1200 640 l 1
 1040 640 l 2
 480 640 80 1000 80 1560 c 0
 80 2120 480 2480 1040 2480 c 2
EndSplineSet
EndChar
StartChar: uni00B9
Encoding: 185 185 311
Width: 1125
VWidth: 0
Flags: HW
HStem: 1040 320<80 400 960 1280> 2000 320<80 393.882>
VStem: 400 560<1360 2000>
LayerCount: 2
Fore
SplineSet
560 2640 m 1
 720 2640 l 1
 720 1280 l 1
 1040 1280 l 1
 1040 1040 l 1
 79.9912109375 1040 l 1
 79.9912109375 1280 l 1
 400 1280 l 1
 400 2080 l 1
 79.9912109375 2080 l 1
 79.9912109375 2320 l 1
 159.991210938 2320 l 2
 320 2320 400 2362.87207031 560 2640 c 1
EndSplineSet
EndChar
StartChar: ordmasculine
Encoding: 186 186 324
Width: 1680
VWidth: 0
Flags: HW
HStem: 834 320<731.855 1097.94> 2200 320<731.855 1097.94>
VStem: 80 560<1287.71 2066.29> 1200 560<1285.23 2068.77>
LayerCount: 2
Fore
SplineSet
840 2520 m 3
 1297.96386719 2520 1600 2187.6953125 1600 1680 c 0
 1600 1172.3046875 1297.96386719 840 840 840 c 3
 382.038085938 840 80.0087890625 1172.30859375 80.0087890625 1680 c 0
 80.0087890625 2187.69140625 382.038085938 2520 840 2520 c 3
840.15234375 2280 m 3
 620.884765625 2280 402.922851562 2114.72265625 402.922851562 1685 c 0
 402.922851562 1255.27734375 619.577148438 1090 840.154296875 1090 c 3
 1060.73046875 1090 1280 1255.27734375 1280 1685 c 0
 1280 2114.72265625 1059.42285156 2280 840.15234375 2280 c 3
EndSplineSet
EndChar
StartChar: AE
Encoding: 198 198 294
Width: 3540
VWidth: 0
UnlinkRmOvrlpSave: 1
Flags: HW
HStem: 0 320<-200 120 560 1080 1320 1640 2280 3112.16> 640 320<520 1760> 960 320<2280 2640> 2160 320<920 1320 2280 3072.16>
VStem: 1640 640<320 640 1280 2160> 1640 120<640 960> 2640 320<600 960 1280 1640> 3120 360<1680 2130.52> 3160 360<349.48 800>
LayerCount: 2
Back
SplineSet
1160 2480 m 1xda80
 3720 2480 l 1
 3720 1680 l 1
 3360 1680 l 1
 3360 1840 l 2
 3360 1959 3320 2160 3200 2160 c 2
 2520 2160 l 1
 2520 1280 l 1
 2880 1280 l 1
 2880 1640 l 1
 3200 1640 l 1
 3200 600 l 1
 2880 600 l 1
 2880 960 l 1
 2520 960 l 1xbb
 2520 320 l 1
 3240 320 l 2
 3360 320 3400 521 3400 640 c 2
 3400 800 l 1
 3760 800 l 1
 3760 0 l 1
 1560 0 l 1
 1560 320 l 1
 1880 320 l 1
 1880 2160 l 1
 1160 2160 l 1
 1160 2480 l 1xda80
40 320 m 1
 1320 320 l 1
 1320 0 l 1
 40 0 l 1
 40 320 l 1
760 640 m 1xd6
 760 960 l 1
 2000 960 l 1
 2000 640 l 1
 760 640 l 1xd6
360 320 m 1
 1560 2480 l 1
 2000 2480 l 1
 800 320 l 1
 360 320 l 1
EndSplineSet
Fore
SplineSet
760 680 m 1
 760 920 l 1
 2040 920 l 1
 2040 680 l 1
 760 680 l 1
840 240 m 1
 840 0 l 1
 40 0 l 1
 40 240 l 1
 840 240 l 1
323.12890625 250.541992188 m 1
 1510.10253906 2391.51464844 l 1
 1720.00292969 2275.14355469 l 1
 533.028320312 134.170898438 l 1
 323.12890625 250.541992188 l 1
2080 1000 m 1
 2080 1240 l 1
 2720 1240 l 1
 2720 1000 l 1
 2080 1000 l 1
1800 200.31640625 m 1
 1800 2280 l 1
 2120 2280 l 1
 2120 200.31640625 l 1
 1800 200.31640625 l 1
1160 2480 m 1
 3360 2480 l 1
 3360 1680 l 1
 3120 1680 l 1
 3120 2240 l 1
 1160 2240 l 1
 1160 2480 l 1
1480 240 m 1
 3160 240 l 1
 3160 800 l 1
 3400 800 l 1
 3400 0 l 1
 1480 0 l 1
 1480 240 l 1
2640 600 m 1
 2640 1640 l 1
 2880 1640 l 1
 2880 600 l 1
 2640 600 l 1
2960 2240 m 1
 3120 2240 l 1
 3120 1920 l 1
 3120 2039.25683594 3080 2240 2960 2240 c 1
3160 560 m 1
 3160 240 l 1
 3000 240 l 1
 3120 240 3160 440.743164062 3160 560 c 1
EndSplineSet
EndChar
StartChar: Eth
Encoding: 208 208 299
Width: 2460
VWidth: 0
UnlinkRmOvrlpSave: 1
Flags: HW
HStem: 0 320<249 569 1209 1838.08> 960 320<249 1689> 2160 320<249 569 1209 1840.09>
VStem: 569 640<320 2160> 2169 720<774.958 1705.04>
LayerCount: 2
Fore
SplineSet
249 1240 m 1
 1339 1240 l 5
 1339 1000 l 5
 249 1000 l 1
 249 1240 l 1
EndSplineSet
Refer: 36 68 N 1 0 0 1 0 0 2
EndChar
StartChar: multiply
Encoding: 215 215 374
Width: 1680
VWidth: 0
Flags: HW
LayerCount: 2
Fore
SplineSet
1417 1984 m 1
 1584 1817 l 1
 1006 1240 l 1
 1584 663 l 1
 1417 496 l 1
 840 1074 l 1
 263 496 l 1
 96 663 l 1
 674 1240 l 1
 96 1817 l 1
 263 1984 l 1
 840 1406 l 1
 1417 1984 l 1
EndSplineSet
EndChar
StartChar: Oslash
Encoding: 216 216 394
Width: 2400
VWidth: 0
UnlinkRmOvrlpSave: 1
Flags: HW
HStem: -40 320<918.91 1461.09> 0 21G<289 670.548> 2200 320<916.12 1463.88> 2460 20G<1709.45 2091>
VStem: -130 720<766.786 1713.21> 1790 720<766.786 1713.21>
LayerCount: 2
Fore
SplineSet
1791 2480 m 1x5c
 2091 2480 l 1
 589 0 l 5
 289 0 l 1
 1791 2480 l 1x5c
EndSplineSet
Refer: 47 79 N 1 0 0 1 0 0 2
EndChar
StartChar: Thorn
Encoding: 222 222 298
Width: 2159
VWidth: 0
UnlinkRmOvrlpSave: 1
Flags: HW
HStem: 0 320<-80 240 880 1280> 480 320<880 1371.08> 1680 320<880 1387.05> 2160 320<-80 240 880 1280>
VStem: 240 640<320 480 800 1680 2000 2160> 1520 720<948.617 1559.72>
LayerCount: 2
Fore
SplineSet
400 200.31640625 m 5
 400 2280 l 5
 720 2280 l 5
 720 200.31640625 l 5
 400 200.31640625 l 5
520 1960 m 5
 960 1960 l 6
 1720 1960 2080 1791.15429688 2080 1240 c 4
 2080 868.38671875 1882.07226562 520 1200 520 c 6
 600 520 l 5
 600 760 l 5
 1120 760 l 6
 1680 760 1760 913.599609375 1760 1220.79980469 c 4
 1760 1643.20019531 1519.99609375 1720 1000 1720 c 6
 520 1720 l 5
 520 1960 l 5
80 0 m 5
 80 240 l 5
 1120 240 l 5
 1120 0 l 5
 80 0 l 5
80 2240 m 5
 80 2480 l 5
 1120 2480 l 5
 1120 2240 l 5
 80 2240 l 5
EndSplineSet
EndChar
StartChar: germandbls
Encoding: 223 223 287
Width: 2200
VWidth: 0
UnlinkRmOvrlpSave: 1
Flags: HW
HStem: -40 320<1230.72 1585.22> 0 320<80 280> 1280 320<1000 1400> 1400 80<1000 1754> 2360 280<977.384 1404.1>
VStem: 280 560<320 2218.12> 920 640<623.509 860.885> 1480 600<1679.63 2269.52> 1680 600<376.28 1094.85>
LayerCount: 2
Fore
SplineSet
1480 640 m 0
 1480 463.268554688 1336.73144531 320 1160 320 c 0
 983.268554688 320 840 463.268554688 840 640 c 0
 840 816.731445312 983.268554688 960 1160 960 c 0
 1336.73144531 960 1480 816.731445312 1480 640 c 0
1286.21972656 1480 m 2
 1880 1480 2120 1175 2120 720 c 0
 2120 240 1960 -40 1480 -40 c 0
 1080 -40 840 160 840 640 c 1
 1080 560 l 1
 1080 360 1200 200 1440 200 c 0
 1680 200 1800 360 1800 720 c 0
 1800 1120 1480 1320 1240 1320 c 2
 920 1320 l 1
 920 1480 l 1
 1286.21972656 1480 l 2
1120 2640 m 0
 1602.41601562 2640 1920 2400 1920 1920 c 0
 1920 1680 1593.57617188 1400 1320 1400 c 2
 920 1400 l 1
 920 1560 l 1
 1200 1560 l 2
 1400 1560 1600 1760 1600 1960 c 0
 1600 2280 1440 2440 1120 2440 c 0
 800 2440 600 2240 600 1920 c 2
 600 0 l 1
 80 0 l 1
 80 240 l 1
 280 240 l 1
 280 1840 l 1
 311.536132812 2439.17089844 640 2640 1120 2640 c 0
EndSplineSet
EndChar
StartChar: ae
Encoding: 230 230 285
Width: 3031
VWidth: 0
UnlinkRmOvrlpSave: 1
Flags: HW
HStem: -46 320<718.626 1186.84 1976.26 2552.56> 722 279<486.5 1217.43> 800 320<1485 1620 1700 2506> 908 212<2506 2580> 1566 314<669.247 1115.86 1931.98 2357.97>
VStem: 80 599<308.622 689.606> 134 640<1179.12 1456.72> 1380 398<381.5 1446.5> 1485 215<1000 1108.76> 1485 135<800 840>
LayerCount: 2
Fore
SplineSet
2617.0546875 947.9609375 m 5
 2617.0546875 1413.38964844 2378.59179688 1600 2101.671875 1600 c 7
 1821.671875 1600 1581.671875 1364.57128906 1581.671875 880 c 0
 1581.671875 395.428710938 1821.671875 160.000976562 2101.671875 160 c 0
 2421.671875 159.999023438 2608.08007812 360 2661.671875 560 c 1
 2892.62402344 493.1796875 l 1
 2775.90039062 173.1796875 2561.20019531 -80.001953125 2105.71582031 -80 c 0
 1576.44824219 -79.998046875 1315.37988281 299.78125 1315.37988281 880 c 0
 1315.37988281 1460.21875 1570.72753906 1840 2100 1840 c 4
 2629.27246094 1840 2946.34375 1448.18359375 2946.34375 867.9609375 c 5
 2617.0546875 947.9609375 l 5
1569.58789062 1040 m 5
 2614.73730469 1040 l 5
 2946.33984375 867.96484375 l 5
 2921.6484375 800 l 5
 1569.58789062 800 l 5
 1569.58789062 1040 l 5
1516 640 m 1
 1408.57226562 416 l 1
 1260 440 l 1
 1260 1263.68652344 l 2
 1260 1520 1100 1640 860 1640 c 0
 768.568359375 1640 540 1621.12011719 540 1560 c 1
 228.01171875 1626.27441406 l 1
 348.48046875 1758.72949219 540 1880 908.364257812 1880 c 0
 1354.87597656 1880 1516 1610.70507812 1516 1205.12304688 c 2
 1516 640 l 1
1440.57226562 360 m 0
 1276 56 1001.95605469 -53.7138671875 672.18359375 -53.7138671875 c 0
 333.139648438 -53.7138671875 79.99609375 196.661132812 79.99609375 521.142578125 c 1
 382.856445312 521.142578125 l 1
 382.856445312 346.256835938 453.940429688 194.286132812 755.192382812 194.286132812 c 0
 1100 194.286132812 1180 320 1293.13964844 527.354492188 c 0
 1440.57226562 360 l 0
1384.57226562 658.286132812 m 0
 1293.13964844 514.931640625 l 0
 1180 680 1060 802.286132812 777.280273438 802.286132812 c 0
 466.055664062 802.286132812 382.856445312 686.5625 382.856445312 521.142578125 c 1
 79.99609375 521.142578125 l 1
 79.99609375 795.428710938 317.139648438 1001.14257812 656.18359375 1001.14257812 c 0
 980 1001.14257812 1233.22753906 897.932617188 1384.57226562 658.286132812 c 0
134.284179688 1400 m 0
 134.284179688 1576.73144531 277.552734375 1720 454.284179688 1720 c 0
 631.014648438 1720 774.284179688 1576.73144531 774.284179688 1400 c 0
 774.284179688 1223.26855469 631.014648438 1080 454.284179688 1080 c 0
 277.552734375 1080 134.284179688 1223.26855469 134.284179688 1400 c 0
EndSplineSet
EndChar
StartChar: eth
Encoding: 240 240 284
Width: 1920
VWidth: 0
UnlinkRmOvrlpSave: 1
Flags: HW
HStem: -40 320<821.676 1219.4> 1560 320<818.745 1191.04>
VStem: 80 594<497.896 1401.09> 1398 602<514.661 1743.9>
LayerCount: 2
Fore
SplineSet
958.33203125 205.713867188 m 1
 958.33203125 -40 l 1
 480 -39.998046875 80 339.78125 80 920 c 0
 80 1500.21875 400 1880 880 1880 c 0
 1240 1880 1572.8203125 1600 1680 1200 c 0
 1703.671875 1111.65625 1531.1484375 1106.88183594 1520 1040 c 1
 1520 1320 1280 1645.71386719 920 1645.71386719 c 0
 640 1645.71386719 400 1404.57128906 400 920 c 0
 400 435.428710938 720 205.713867188 958.33203125 205.713867188 c 1
808 2552 m 1
 1024 2640 l 1
 1600 2240 1840 1760 1840 1080 c 0
 1840 280 1480 -45.7080078125 958.33203125 -45.7109375 c 1
 958.33203125 205.713867188 l 1
 1200 205.715820312 1520 430.979492188 1520 1160 c 0
 1520 1889.02050781 1088 2392 808 2552 c 1
1808.97558594 2504 m 1
 1808.97558594 2284.7109375 l 1
 710.083984375 1990.265625 l 1
 710.083984375 2209.5546875 l 1
 1808.97558594 2504 l 1
EndSplineSet
EndChar
StartChar: divide
Encoding: 247 247 345
Width: 1680
VWidth: 0
Flags: HW
HStem: 440 480<654.658 1025.34> 1080 320<80 1600> 1560 480<654.658 1025.34>
VStem: 600 480<494.658 865.342 1614.66 1985.34>
CounterMasks: 1 e0
LayerCount: 2
Fore
SplineSet
80 1360 m 1
 1600 1360 l 1
 1600 1120 l 5
 80 1120 l 5
 80 1360 l 1
600 1800 m 0
 600 1933 707 2040 840 2040 c 0
 973 2040 1080 1933 1080 1800 c 0
 1080 1667 973 1560 840 1560 c 0
 707 1560 600 1667 600 1800 c 0
600 680 m 0
 600 813 707 920 840 920 c 0
 973 920 1080 813 1080 680 c 0
 1080 547 973 440 840 440 c 0
 707 440 600 547 600 680 c 0
EndSplineSet
EndChar
StartChar: oslash
Encoding: 248 248 395
Width: 1957
VWidth: 0
UnlinkRmOvrlpSave: 1
Flags: HW
HStem: -46 320<835.366 1277.2> 1554 320<835.366 1277.2>
VStem: 100 594<491.896 1336.1> 1422 595<494.072 1333.93>
LayerCount: 2
Fore
SplineSet
1477 2000 m 5
 1767 2000 l 5
 520 -160 l 5
 230 -160 l 5
 1477 2000 l 5
EndSplineSet
Refer: 82 111 N 1 0 0 1 0 0 2
EndChar
StartChar: thorn
Encoding: 254 254 289
Width: 2080
VWidth: 0
UnlinkRmOvrlpSave: 1
Flags: HW
HStem: -640 320<80 280 840 1040> -40 371<1003.97 1415.28> 1520 360<1094.06 1690> 2160 320<80 280>
VStem: 280 440<203.844 858.147> 720 44<648 858.147> 737 103<295 811.647 1261 1290.35> 1569 602<499.568 1319.03>
LayerCount: 2
Fore
SplineSet
80 2480 m 1
 600 2480 l 1
 600 -400 l 1
 800 -400 l 1
 800 -640 l 1
 80 -640 l 1
 80 -400 l 1
 280 -400 l 1
 280 2240 l 1
 80 2240 l 1
 80 2480 l 1
1192 1889.11425781 m 0
 1667.85644531 1889.11425781 2000 1510.75683594 2000 922.79296875 c 0
 2000 334.829101562 1651.79199219 -36.9482421875 1192 -36.9482421875 c 0
 798.463867188 -36.9482421875 621.459960938 269.96875 555.200195312 362.329101562 c 1
 368 14.8291015625 l 1
 575.900390625 855.54296875 l 1
 595.776367188 571.592773438 832 203.400390625 1192 203.400390625 c 0
 1463.171875 203.400390625 1680 403.400390625 1680 929.864257812 c 0
 1680 1443.40039062 1512 1643.40039062 1192 1643.40039062 c 0
 800 1643.40039062 690.900390625 1358.63378906 573.064453125 1098.81933594 c 1
 360 1523.40039062 l 1
 507.631835938 1264.12304688 l 1
 529.736328125 1442.52832031 599.736328125 1598.77539062 723.692382812 1710.42285156 c 0
 847.65234375 1822.06933594 954.072265625 1889.11425781 1192 1889.11425781 c 0
EndSplineSet
EndChar
StartChar: dcroat
Encoding: 273 273 376
Width: 2222
VWidth: 0
UnlinkRmOvrlpSave: 1
Flags: HW
HStem: -46 366<591.733 1207.2> 0 320<1942 2142> 1449 371<812.855 1186.92> 1790 290<1180 2140> 2190 290<1182 1382>
VStem: 80 601<525.898 1310.53> 1382 560<579 2190>
AnchorPoint: "cedilla" 1064 80 basechar 0
AnchorPoint: "top" 940 2560 basechar 0
LayerCount: 2
Fore
SplineSet
1280 2480 m 1
 1800 2480 l 1
 1800 240 l 1
 2000 240 l 1
 2000 0 l 1
 1645.71484375 0 l 1
 1480 320 l 1
 1480 2240 l 1
 1280 2240 l 1
 1280 2480 l 1
888 -45.7138671875 m 0
 412.143554688 -45.7138671875 80 312.643554688 80 900.607421875 c 0
 80 1488.57128906 428.20703125 1810.34863281 888 1810.34863281 c 0
 1281.53515625 1810.34863281 1458.54003906 1503.43164062 1524.79882812 1411.07128906 c 1
 1712 1758.57128906 l 1
 1504.09863281 917.857421875 l 1
 1484.22167969 1201.80761719 1248 1570 888 1570 c 0
 616.827148438 1570 400 1420 400 893.536132812 c 0
 400 380 568 200 888 200 c 0
 1280 200 1389.09863281 484.766601562 1506.9375 744.581054688 c 1
 1720 320 l 1
 1572.37011719 579.27734375 l 1
 1550.26464844 400.872070312 1480.26367188 244.624023438 1356.30664062 132.977539062 c 0
 1232.34960938 21.3310546875 1125.92773438 -45.7138671875 888 -45.7138671875 c 0
1040 1840 m 1x1e
 1040 2080 l 1
 2000 2080 l 1
 2000 1840 l 1
 1040 1840 l 1x1e
EndSplineSet
EndChar
StartChar: Hbar
Encoding: 294 294 377
Width: 2720
VWidth: 0
UnlinkRmOvrlpSave: 1
Flags: HW
HStem: 0 320<-50 270 910 1230 1470 1790 2430 2750> 960 320<830 1870> 1600 320<-50 2750> 2160 320<-50 270 910 1230 1470 1790 2430 2750>
VStem: 830 80<960 1280> 1790 80<960 1280>
LayerCount: 2
Fore
SplineSet
120 1650 m 5
 120 1870 l 5
 2600 1870 l 5
 2600 1650 l 5
 120 1650 l 5
EndSplineSet
Refer: 40 72 N 1 0 0 1 0 0 2
EndChar
StartChar: hbar
Encoding: 295 295 378
Width: 2120
VWidth: 0
UnlinkRmOvrlpSave: 1
Flags: HW
HStem: 0 320<80 280 840 1040 1240 1440 2000 2200> 1520 360<1055.46 1638> 2160 320<80 280>
VStem: 280 560<320 2160> 1440 560<320 1461.01>
AnchorPoint: "cedilla" 1044 80 basechar 0
AnchorPoint: "top" 1080 2560 basechar 0
LayerCount: 2
Fore
SplineSet
80 2480 m 1
 600 2480 l 1
 600 240 l 1
 800 240 l 1
 800 0 l 1
 80 0 l 1
 80 240 l 1
 280 240 l 1
 280 2240 l 1
 80 2240 l 1
 80 2480 l 1
1160 1760 m 0
 1635.85644531 1760 1840 1440 1840 960 c 2
 1840 240 l 1
 2040 240 l 1
 2040 0 l 1
 1320 0 l 1
 1320 240 l 1
 1520 240 l 1
 1520 1000 l 2
 1520 1360 1360 1520 1120 1520 c 0
 840 1520 720 1320 600 1080 c 1
 560 1240 l 1
 640 1480 840 1760 1160 1760 c 0
80 1840 m 1xbc
 80 2080 l 1
 1000 2080 l 1
 1000 1840 l 1
 80 1840 l 1xbc
EndSplineSet
EndChar
StartChar: dotlessi
Encoding: 305 305 78
Width: 880
VWidth: 0
Flags: HW
HStem: 0 320<80 280 840 1040> 1520 320<80 280>
VStem: 280 560<320 1520>
AnchorPoint: "top" 440 1920 basechar 0
LayerCount: 2
Fore
SplineSet
80 1840 m 1
 600 1840 l 1
 600 240 l 1
 800 240 l 1
 800 0 l 1
 80 0 l 1
 80 240 l 1
 280 240 l 1
 280 1600 l 1
 80 1600 l 1
 80 1840 l 1
EndSplineSet
EndChar
StartChar: ij
Encoding: 307 307 380
Width: 1770
VWidth: 0
UnlinkRmOvrlpSave: 1
Flags: HW
HStem: -800 320<948.223 1265.49> 0 320<80 280 840 1040> 1520 320<80 280 1200 1400> 1960 640<339.115 780.885 1459.12 1900.88>
VStem: 240 640<2059.12 2500.88> 280 560<320 1520> 328 640<-617 -219.115> 1360 640<2059.12 2500.88> 1400 560<-332.141 1520>
LayerCount: 2
Back
SplineSet
1360 2280 m 0xf1
 1360 2457 1503 2600 1680 2600 c 0
 1857 2600 2000 2457 2000 2280 c 0
 2000 2103 1857 1960 1680 1960 c 0
 1503 1960 1360 2103 1360 2280 c 0xf1
1200 1840 m 5
 1960 1840 l 5
 1960 0 l 6
 1960 -491 1600 -800 1040 -800 c 4
 560 -800 446 -730 371 -600 c 5
 780 -380 l 5
 894 -471 962 -480 1060 -480 c 4
 1241 -480 1400 -320 1400 0 c 6
 1400 1520 l 5xf080
 1200 1520 l 5
 1200 1840 l 5
968 -440 m 0xf2
 968 -617 825 -760 648 -760 c 0
 471 -760 328 -617 328 -440 c 0
 328 -263 471 -120 648 -120 c 0
 825 -120 968 -263 968 -440 c 0xf2
EndSplineSet
Refer: 75 105 N 1 0 0 1 0 0 2
Fore
SplineSet
1138 1840 m 5
 1658 1840 l 5
 1658 0 l 6
 1658 -491.106445312 1368 -800 888 -800 c 4
 567.592773438 -800 445.844726562 -729.857421875 370.872070312 -600 c 5
 799 -477 l 5
 858 -525 921 -560 968 -560 c 4
 1108.96875 -560 1338 -440 1338 0 c 6
 1338 1600 l 5
 1138 1600 l 5
 1138 1840 l 5
1180 2280 m 0xf1
 1180 2457 1323 2600 1500 2600 c 0
 1677 2600 1820 2457 1820 2280 c 0
 1820 2103 1677 1960 1500 1960 c 0
 1323 1960 1180 2103 1180 2280 c 0xf1
968 -440 m 4xf2
 968 -617 825 -760 648 -760 c 4
 471 -760 328 -617 328 -440 c 4
 328 -263 471 -120 648 -120 c 4
 825 -120 968 -263 968 -440 c 4xf2
EndSplineSet
Refer: 75 105 N 1 0 0 1 0 0 2
Ligature2: "Dutch IJ/ij ligatures-1" i j
LCarets2: 1 0
EndChar
StartChar: kgreenlandic
Encoding: 312 312 398
Width: 2120
VWidth: 0
UnlinkRmOvrlpSave: 1
Flags: HW
HStem: -800 153<942.565 1118.17> 0 320<80 280 840 1040 1240 1452 2120 2200> 1520 320<1200 1649 2034 2160> 2160 320<80 280>
VStem: 280 560<320 2160> 880 510<-453 -216> 1152 208<-453 -187>
LayerCount: 2
Fore
SplineSet
80 1840 m 5
 600 1840 l 5
 600 240 l 1
 800 240 l 1
 800 0 l 1
 80 0 l 1
 80 240 l 1
 280 240 l 1
 280 1600 l 5
 80 1600 l 5
 80 1840 l 5
1240 240 m 1
 2040 240 l 1
 2040 0 l 1
 1240 0 l 1
 1240 240 l 1
1160 1600 m 1
 1160 1840 l 1
 2000 1840 l 1
 2000 1600 l 1
 1160 1600 l 1
1544 1760 m 1
 1771.42871094 1669.890625 l 1
 984.571289062 869.8984375 l 1
 757.142578125 960 l 1
 1544 1760 l 1
757.142578125 960 m 1
 1019.80273438 1080 l 1
 1880 240 l 1
 1608.37402344 120 l 1
 757.142578125 960 l 1
EndSplineSet
EndChar
StartChar: Lslash
Encoding: 321 321 303
Width: 2160
VWidth: 0
UnlinkRmOvrlpSave: 1
Flags: HW
HStem: 0 320<-40 280 920 1672.16> 2160 320<-40 280 920 1320>
VStem: 280 640<320 2160> 1720 360<349.48 960>
LayerCount: 2
Fore
SplineSet
1219 1260 m 5
 1219 1019 l 5
 120 724 l 5
 120 966 l 5
 1219 1260 l 5
EndSplineSet
Refer: 44 76 N 1 0 0 1 0 0 3
EndChar
StartChar: lslash
Encoding: 322 322 304
Width: 880
VWidth: 0
UnlinkRmOvrlpSave: 1
Flags: HW
HStem: 0 320<80 280 840 1040> 2160 320<80 280>
VStem: 280 560<320 2160>
LayerCount: 2
Fore
SplineSet
806.194548612 939.98399321 m 1
 80 734 l 1
 80 986 l 1
 808.423060602 1191.80584805 l 1
 806.194548612 939.98399321 l 1
EndSplineSet
Refer: 90 108 N 1 0 0 1 0 0 3
EndChar
StartChar: Eng
Encoding: 330 330 397
Width: 2620
VWidth: 0
UnlinkRmOvrlpSave: 1
Flags: HW
HStem: -800 320<1507.59 1793.98> 0 320<-40 280 680 1000> 2160 320<-40 280 1560 1880 2280 2600>
VStem: 280 400<320 1600> 888 640<-617 -219.115> 1880 400<-385.852 0 1268 2160>
LayerCount: 2
Fore
SplineSet
1960 0 m 5
 1960 157 l 5
 2200 0 l 1
 2200 -491.106445312 1988 -800 1508 -800 c 0
 1187.59277344 -800 1065.84472656 -729.857421875 990.872070312 -600 c 1
 1419 -477 l 1
 1478 -525 1541 -560 1588 -560 c 0
 1728.96875 -560 1960 -440 1960 0 c 5
1588 -440 m 0
 1588 -617 1445 -760 1268 -760 c 0
 1091 -760 948 -617 948 -440 c 0
 948 -263 1091 -120 1268 -120 c 0
 1445 -120 1588 -263 1588 -440 c 0
EndSplineSet
Refer: 46 78 N 1 0 0 1 0 0 2
EndChar
StartChar: eng
Encoding: 331 331 396
Width: 1960
VWidth: 0
UnlinkRmOvrlpSave: 1
Flags: HW
HStem: -800 320<988.223 1305.49> 0 320<80 280 840 1040> 1520 360<1055.46 1628.94> 1520 320<80 280>
VStem: 280 560<320 1261> 368 640<-617 -219.115> 1440 560<-332.141 1461.01>
AnchorPoint: "top" 1060 1920 basechar 0
AnchorPoint: "cedilla" 1044 80 basechar 0
LayerCount: 2
Fore
SplineSet
1838 0 m 17
 1838 -491.106445312 1558 -800 938 -800 c 4
 617.592773438 -800 495.844726562 -729.857421875 420.872070312 -600 c 1
 849 -477 l 1
 908 -525 971 -560 1018 -560 c 0
 1308.96875 -560 1518 -440 1518 0 c 9
 1838 0 l 17
1018 -440 m 0xf2
 1018 -617 875 -760 698 -760 c 0
 521 -760 378 -617 378 -440 c 0
 378 -263 521 -120 698 -120 c 0
 875 -120 1018 -263 1018 -440 c 0xf2
80 1840 m 1
 434.28125 1840 l 1
 600 1520 l 1
 600 240 l 1
 800 240 l 1
 800 0 l 1
 80 0 l 1
 80 240 l 1
 280 240 l 1
 280 1600 l 1
 80 1600 l 1
 80 1840 l 1
1160 1880 m 0
 1635.85644531 1880 1840 1560 1840 1080 c 2
 1840 0 l 1
 1520 0 l 1
 1520 1120 l 2
 1520 1480 1360 1640 1120 1640 c 0
 840 1640 720 1400 600 1160 c 1
 520 1360 l 1
 613.090820312 1676.43945312 840 1880 1160 1880 c 0
EndSplineSet
EndChar
StartChar: OE
Encoding: 338 338 296
Width: 4000
VWidth: 0
UnlinkRmOvrlpSave: 1
Flags: W
HStem: -40 320<1128.91 1664.43> 0 320<2640 3472.16> 960 320<2640 3000> 2160 320<2640 3432.16> 2200 320<1126.12 1683.15>
VStem: 80 720<766.786 1713.21> 2000 640<320 960 1280 1280> 2000 320<600 1880> 3000 320<600 960 1280 1640> 3480 360<1680 2130.52> 3520 360<349.48 800>
LayerCount: 2
Fore
SplineSet
1400 2520 m 4xad80
 2254 2520 2320 1880 2320 1240 c 4
 2320 600 2254 -40 1400 -40 c 4
 546 -40 80 600 80 1240 c 4
 80 1880 546 2520 1400 2520 c 4xad80
1400 2200 m 4
 988 2200 800 1767 800 1240 c 4
 800 713 1001 280 1400 280 c 4
 1799 280 2000 713 2000 1240 c 4
 2000 1767 1812 2200 1400 2200 c 4
2000 2480 m 5x75a0
 3840 2480 l 5
 3840 1680 l 5
 3480 1680 l 5
 3480 1840 l 6
 3480 1959 3440 2160 3320 2160 c 6
 2640 2160 l 5
 2640 1280 l 5
 3000 1280 l 5
 3000 1640 l 5
 3320 1640 l 5
 3320 600 l 5
 3000 600 l 5
 3000 960 l 5
 2640 960 l 5
 2640 320 l 5x76c0
 3360 320 l 6
 3480 320 3520 521 3520 640 c 6
 3520 800 l 5
 3880 800 l 5
 3880 0 l 5
 2000 0 l 5
 2000 2480 l 5x75a0
EndSplineSet
EndChar
StartChar: oe
Encoding: 339 339 286
Width: 3208
VWidth: 0
UnlinkRmOvrlpSave: 1
Flags: HW
HStem: -46 320<815.366 1250.39 2152.61 2728.82> 800 320<1662 2682> 908 212<2682 2757> 1554 320<815.366 1250.39 2090.93 2541.3>
VStem: 80 594<491.896 1336.1> 1557 397<381.5 1446.5> 1662 132<807.638 1096.9>
LayerCount: 2
Fore
SplineSet
2281.671875 1600 m 7
 2001.671875 1600 1761.671875 1364.57128906 1761.671875 880 c 0
 1761.671875 395.428710938 2001.671875 160.000976562 2281.671875 160 c 0
 2601.671875 159.999023438 2788.08007812 360 2841.671875 560 c 1
 3072.62402344 493.1796875 l 1
 2955.90039062 173.1796875 2741.20019531 -80.001953125 2285.71582031 -80 c 0
 1756.44824219 -79.998046875 1495.37988281 299.78125 1495.37988281 880 c 0
 1495.37988281 1460.21875 1750.72753906 1839.99804688 2280 1840 c 4
 2809.27246094 1840 3126.34375 1448.18359375 3126.34375 867.9609375 c 5
 2797.0546875 947.9609375 l 5
 2797.0546875 1413.38964844 2558.59179688 1600 2281.671875 1600 c 7
1749.58789062 1040 m 5
 2794.73730469 1040 l 5
 3126.33984375 867.96484375 l 5
 3101.6484375 800 l 5
 1749.58789062 800 l 5
 1749.58789062 1040 l 5
958.33203125 1874.28613281 m 0
 1487.60351562 1874.28808594 1716.66796875 1494.50878906 1716.66796875 914.286132812 c 0
 1716.66796875 334.0625 1487.60351562 -45.716796875 958.33203125 -45.7138671875 c 0
 429.055664062 -45.7119140625 80 334.06640625 80 914.286132812 c 0
 80 1494.50488281 429.055664062 1874.28320312 958.33203125 1874.28613281 c 0
958.33203125 1640 m 0
 678.33203125 1640 400 1440 400 920 c 0
 400 400 676.66015625 200.000976562 958.33203125 200 c 0
 1240 199.999023438 1480 400 1480 920 c 0
 1480 1440 1238.33203125 1640 958.33203125 1640 c 0
EndSplineSet
EndChar
StartChar: Tbar
Encoding: 358 358 300
Width: 2280
VWidth: 0
UnlinkRmOvrlpSave: 1
Flags: HW
HStem: 0 320<500 820 1460 1780> 960 320<400 1880> 1680 800<-20 340 1940 2300> 2160 320<387.836 820 1460 1892.16>
VStem: -20 360<1680 2130.52> 820 640<320 2160> 1940 360<1680 2130.52>
CounterMasks: 1 0e
LayerCount: 2
Fore
SplineSet
400 1280 m 1xce
 1880 1280 l 1
 1880 960 l 1
 400 960 l 1
 400 1280 l 1xce
EndSplineSet
Refer: 52 84 N 1 0 0 1 0 0 3
EndChar
StartChar: tbar
Encoding: 359 359 301
Width: 1320
VWidth: 0
UnlinkRmOvrlpSave: 1
Flags: HW
HStem: -40 360<858.876 1180.74> 960 320<80 1400> 1520 320<80 277.248 840 1400>
VStem: 280 560<339.094 1520> 1240 240<381.809 524.779>
LayerCount: 2
Fore
SplineSet
80 1280 m 1
 1160 1280 l 1
 1160 1040 l 5
 80 1040 l 5
 80 1280 l 1
EndSplineSet
Refer: 92 116 N 1 0 0 1 0 0 3
EndChar
StartChar: longs
Encoding: 383 383 263
Width: 1520
VWidth: 0
UnlinkRmOvrlpSave: 1
Flags: W
HStem: 0 320<160 360 920 1360> 2320 320<993.364 1340>
VStem: 360 560<320 2243.12> 1120 640<2059.12 2457>
AnchorPoint: "cedilla" 644 80 basechar 0
AnchorPoint: "top" 1000 2720 basechar 0
LayerCount: 2
Fore
SplineSet
1120 2280 m 0
 1120 2457 1263 2600 1440 2600 c 0
 1617 2600 1760 2457 1760 2280 c 0
 1760 2103 1617 1960 1440 1960 c 0
 1263 1960 1120 2103 1120 2280 c 0
1717 2440 m 1
 1520 2200 l 1
 1406 2291 1218 2320 1120 2320 c 0
 979 2320 920 2160 920 1840 c 2
 920 320 l 1
 1360 320 l 1
 1360 0 l 1
 160 0 l 1
 160 320 l 1
 360 320 l 1
 360 1840 l 2
 360 2331 640 2640 1200 2640 c 0
 1480 2640 1649 2558 1717 2440 c 1
EndSplineSet
EndChar
StartChar: uni018F
Encoding: 399 399 404
Width: 2358
VWidth: 0
UnlinkRmOvrlpSave: 1
Flags: HW
HStem: -40 320<1018.11 1559.09> 960 320<688 1981> 2160 360<780.999 1482.64>
VStem: 48 320<1552.83 1727.54> 1888 93<960 1280>
AnchorPoint: "top" 1162 2560 basechar 0
AnchorPoint: "cedilla" 1158 80 basechar 0
LayerCount: 2
Fore
SplineSet
1160 2520 m 0
 1936.47167969 2520 2320 1880 2320 1240 c 0
 2320 600 1936.47167969 -40 1160 -40 c 0
 383.528320312 -40 40 480 40 1120 c 1
 360 1000 l 1
 360 560 574.200195312 200 1160 200 c 0
 1745.79980469 200 2000 668.698242188 2000 1240 c 0
 2000 1811.30175781 1749 2272 1144 2272 c 0
 680.16796875 2272 372.983398438 1944.5 296 1496 c 1
 56 1536 l 1
 145.922851562 2054.67480469 518.723632812 2520 1160 2520 c 0
70 1240 m 1
 2080 1240 l 1
 2080 1000 l 1
 80 1000 l 1
 40 1120 l 1
 70 1240 l 1
EndSplineSet
EndChar
StartChar: uni01B7
Encoding: 439 439 295
Width: 1880
VWidth: 0
UnlinkRmOvrlpSave: 1
Flags: HW
HStem: -40 320<359.356 1129.3> 320 320<83.0039 260.004> 2160 320<387.84 1098>
VStem: -59.9961 640<463 860.885> -59.9961 320<463 640> -19.9961 360<1680 2130.52> 1336 640<463.967 1060.33>
LayerCount: 2
Back
SplineSet
100 2480 m 5xe6
 2020 2480 l 5
 2020 2240 l 5
 1384 1400 l 5
 944 1336 l 5
 677 1280 l 5
 677 1440 l 5
 1218 2160 l 5
 620 2160 l 6
 500 2160 460 1959 460 1840 c 6
 460 1680 l 5
 100 1680 l 5
 100 2480 l 5xe6
940 1280 m 6
 677 1280 l 5
 1220 1560 l 5
 1900 1560 2096 1160 2096 720 c 4
 2096 280 1740 -40 1020 -40 c 4
 500 -40 60 131 60 640 c 5xf2
 380 640 l 5xea
 380 400 500 280 900 280 c 4
 1260 280 1456 483 1456 683 c 4
 1456 936 1380 1280 940 1280 c 6
700 640 m 4
 700 463 557 320 380 320 c 4xea
 203 320 60 463 60 640 c 4xf2
 60 817 203 960 380 960 c 4xea
 557 960 700 817 700 640 c 4
EndSplineSet
Fore
SplineSet
940 1320 m 2
 580.00390625 1320 l 1
 1060.00390625 1520 l 1
 1580.00390625 1520 1820.00390625 1200 1820.00390625 760 c 0
 1820.00390625 319.830078125 1540.00390625 -40 980.00390625 -40 c 0
 540.00390625 -40 60 131.478515625 60 640 c 1
 300.00390625 640 l 1
 300.00390625 400 460.00390625 200 980.00390625 200 c 0
 1340.00390625 200 1500.00390625 560 1500.00390625 760 c 0
 1500.00390625 1120 1380 1320 940 1320 c 2
700.01171875 640 m 0
 700.01171875 463.26953125 556.743164062 320 380.01171875 320 c 0
 203.28125 320 60.01171875 463.26953125 60.01171875 640 c 0
 60.01171875 816.731445312 203.28125 960 380.01171875 960 c 0
 556.743164062 960 700.01171875 816.731445312 700.01171875 640 c 0
100.00390625 2480 m 1
 1740.00390625 2480 l 1
 1540.00390625 2240 l 1
 340.00390625 2240 l 1
 340.00390625 1680 l 1
 100.00390625 1680 l 1
 100.00390625 2480 l 1
500.00390625 2240 m 1
 380.00390625 2240 340.00390625 2039.25683594 340.00390625 1920 c 1
 340.00390625 2240 l 1
 500.00390625 2240 l 1
1420.00390625 2400 m 1
 1740.00390625 2480 l 1
 1740.00390625 2310.6796875 l 1
 925.66015625 1348.453125 l 1
 580.00390625 1320 l 1
 580.00390625 1400 l 1
 1420.00390625 2400 l 1
EndSplineSet
EndChar
StartChar: uni0237
Encoding: 567 567 77
Width: 820
VWidth: 0
UnlinkRmOvrlpSave: 1
Flags: HW
HStem: -800 680<-240 25> 1520 320<80 280>
VStem: -472 640<-496.715 -219.115> 280 560<-452.949 1520>
AnchorPoint: "top" 440 1920 basechar 0
LayerCount: 2
Fore
SplineSet
80 -440 m 0
 80 -616.731445312 -63.2685546875 -760 -240 -760 c 0
 -416.731445312 -760 -560 -616.731445312 -560 -440 c 0
 -560 -263.26953125 -416.731445312 -120 -240 -120 c 0
 -63.2685546875 -120 80 -263.26953125 80 -440 c 0
80 1840 m 5
 600 1840 l 5
 600 0 l 2
 600 -491.106445312 480 -800 0 -800 c 0
 -320.407226562 -800 -442.155273438 -729.857421875 -517.127929688 -600 c 1
 -89 -477 l 1
 -30 -525 33 -560 80 -560 c 0
 220.96875 -560 280 -440 280 0 c 2
 280 1600 l 5
 80 1600 l 5
 80 1840 l 5
EndSplineSet
Substitution2: "Duct" dotlessj.calt
EndChar
StartChar: uni0251
Encoding: 593 593 292
Width: 2080
VWidth: 0
UnlinkRmOvrlpSave: 1
Flags: HW
HStem: -40 360<591.733 1156.94> 0 320<1971 2171> 1820 20G<1692.56 1971>
VStem: 80 601<526.367 1340.43> 1411 103<549.65 579 920 920> 1486 45<920 1192>
LayerCount: 2
Fore
SplineSet
1657.328125 1840 m 1
 1800 1840 l 1
 1800 240 l 1
 2000 240 l 1
 2000 0 l 1
 1645.71972656 0 l 1
 1480 320 l 1
 1480 1560 l 1
 1657.328125 1840 l 1
888 -45.7138671875 m 0
 412.143554688 -45.7138671875 80 332.643554688 80 920.607421875 c 0
 80 1508.57128906 428.208007812 1880.34863281 888 1880.34863281 c 0
 1281.53613281 1880.34863281 1458.54003906 1573.43164062 1524.79980469 1481.07128906 c 1
 1712 1828.57128906 l 1
 1504.09960938 987.857421875 l 1
 1484.21972656 1271.80761719 1248 1640 888 1640 c 0
 616.828125 1640 400 1440 400 913.536132812 c 0
 400 400 568 200 888 200 c 0
 1280 200 1389.09960938 484.766601562 1506.93554688 744.580078125 c 1
 1720 320 l 1
 1572.36816406 579.276367188 l 1
 1550.26367188 400.872070312 1480.26367188 244.624023438 1356.30761719 132.977539062 c 0
 1232.34765625 21.3310546875 1125.92773438 -45.7138671875 888 -45.7138671875 c 0
EndSplineSet
EndChar
StartChar: uni0292
Encoding: 658 658 288
Width: 1760
VWidth: 0
UnlinkRmOvrlpSave: 1
Flags: HW
HStem: -800 320<554.676 1079.71> -640 21G<282.5 437.5> 1520 320<440 1008>
VStem: 80 560<-402.724 -157.186> 120 320<1040 1520> 1240 600<-314.515 392.521>
LayerCount: 2
Fore
SplineSet
120 1840 m 1
 1520 1840 l 1
 1520 1656 l 1
 856.259765625 716.090820312 l 1
 840 720 l 1
 402.015625 560 l 1
 402.015625 640 l 1
 966.952148438 1440 l 2
 1003.68359375 1492.01269531 1046.3203125 1544.36425781 1096 1600 c 1
 360 1600 l 1
 360 1040 l 1
 120 1040 l 1
 120 1840 l 1
640 -360 m 0
 640 -514.639648438 514.639648438 -640 360 -640 c 0
 205.360351562 -640 80 -514.639648438 80 -360 c 0
 80 -205.360351562 205.360351562 -80 360 -80 c 0
 514.639648438 -80 640 -205.360351562 640 -360 c 0
886.219726562 823.125 m 0
 1400 826.817382812 1680 560 1680 40 c 0
 1680 -560 1360 -800 752.15234375 -800 c 0
 360 -800 192.484375 -629.856445312 117.51171875 -500 c 1
 373.744140625 -406.958007812 l 1
 395.248046875 -440.685546875 616.799804688 -560 752.15234375 -560 c 0
 1200 -560 1360 -360 1360 40 c 0
 1360 515.428710938 1082.015625 640 402.015625 560 c 1
 678.328125 800 l 1
 783.536132812 815 799.263671875 822.5 886.219726562 823.125 c 0
EndSplineSet
EndChar
StartChar: uni02CC
Encoding: 716 716 582
Width: 420
Flags: HW
HStem: -800 153<-1377.43 -1201.84>
VStem: -1440 510<-453 -216> -1168 208<-453 -187>
LayerCount: 2
Fore
SplineSet
80 100 m 1x7c
 340 100 l 5
 340 -530 l 5
 80 -530 l 1
 80 100 l 1x7c
EndSplineSet
EndChar
StartChar: ring
Encoding: 730 730 65
Width: 1040
VWidth: 0
Flags: HW
HStem: 1960 320<406.917 633.083> 2520 320<406.917 633.083>
VStem: 80 320<2286.92 2513.08> 640 320<2286.92 2513.08>
LayerCount: 2
Fore
SplineSet
960 2400 m 16
 960 2157 763 1960 520 1960 c 0
 277 1960 80 2157 80 2400 c 0
 80 2643 277 2840 520 2840 c 0
 763 2840 960 2643 960 2400 c 16
520 2520 m 0
 454 2520 400 2466 400 2400 c 0
 400 2334 454 2280 520 2280 c 0
 586 2280 640 2334 640 2400 c 0
 640 2466 586 2520 520 2520 c 0
EndSplineSet
EndChar
StartChar: tilde
Encoding: 732 732 70
Width: 1736
VWidth: 0
Flags: W
HStem: 1984 640<167.064 549.357 1178.31 1564.01>
VStem: 80 560<2069.55 2292.17> 1096 560<2323.83 2546.45>
LayerCount: 2
Fore
SplineSet
1096 2344 m 2
 1096 2498 1222 2624 1376 2624 c 0
 1530 2624 1656 2498 1656 2344 c 0
 1656 2236 1632 2134 1563 2070 c 0
 1494 2006 1423 1984 1296 1984 c 0
 1116 1984 934 2089 819 2186 c 0
 762 2234 700 2293 640 2293 c 1
 640 2272 l 2
 640 2118 514 1992 360 1992 c 0
 206 1992 80 2118 80 2272 c 0
 80 2380 104 2482 173 2546 c 0
 242 2610 313 2632 440 2632 c 0
 620 2632 802 2527 917 2430 c 0
 974 2382 1036 2323 1096 2323 c 1
 1096 2344 l 2
EndSplineSet
Validated: 1
EndChar
StartChar: uni0327
Encoding: 807 807 585
Width: 0
VWidth: 0
Flags: HW
HStem: -800 240<553.091 876.357> -280 360<720 862.501>
VStem: 80 560<-447.243 -237.186> 720 200<-102.29 80> 883 377<-549.846 -304.574>
AnchorPoint: "cedilla" -533 80 mark 0
LayerCount: 2
Fore
SplineSet
-1257 -440 m 4xe0
 -1257 -285 -1132 -160 -977 -160 c 4
 -822 -160 -697 -285 -697 -440 c 4
 -697 -595 -822 -720 -977 -720 c 4
 -1132 -720 -1257 -595 -1257 -440 c 4xe0
-1257 -440 m 5
 -787 -508 l 5
 -787 -546 -716 -560 -617 -560 c 4xf0
 -484 -560 -454 -497 -454 -440 c 4xe8
 -454 -385 -499 -281 -655 -280 c 5
 -617 80 l 5
 -417 80 l 5
 -417 -80 l 5xf0
 -217 -120 -77 -200 -77 -480 c 4xe8
 -77 -669 -257 -800 -577 -800 c 4
 -1114 -800 -1257 -640 -1257 -440 c 5
EndSplineSet
Validated: 5
EndChar
StartChar: uni0345
Encoding: 837 837 586
Width: 0
Flags: HW
HStem: -800 153<-1377.43 -1201.84>
VStem: -1440 510<-453 -216> -1168 208<-453 -187>
AnchorPoint: "ogonek" -80 80 mark 0
LayerCount: 2
Fore
SplineSet
-440 100 m 5x7c
 -80 100 l 5
 -80 -530 l 5
 -440 -530 l 5
 -440 100 l 5x7c
EndSplineSet
Validated: 1
EndChar
StartChar: uni0402
Encoding: 1026 1026 496
Width: 2700
UnlinkRmOvrlpSave: 1
Flags: HW
HStem: -50 290<2060.35 2219.74> 0 320<400 1430> 1200 360<1641.74 2144.31> 1680 800<100 460 1840 2200> 2160 50<720 1360>
VStem: 100 360<1680 2130.52> 720 640<320 640 1050 2210> 1498 640<343.509 580.885> 1840 360<1680 2130.52> 2280 700<291.835 1066.71>
LayerCount: 2
Fore
SplineSet
100 2480 m 1
 2180 2480 l 1
 2180 1680 l 1
 1940 1680 l 1
 1940 1920 l 2
 1940 2039.25683594 1900 2240 1780 2240 c 2
 500 2240 l 2
 380 2240 340 2039.25683594 340 1920 c 2
 340 1680 l 1
 100 1680 l 1
 100 2480 l 1
1410 0 m 1
 450 0 l 1
 450 240 l 1
 770 240 l 1
 770 2240 l 1
 1090 2240 l 1
 1090 240 l 1
 1410 240 l 1
 1410 0 l 1
1623.72363281 93.7255859375 m 1
 1565.80078125 151.649414062 1529.95410156 231.649414062 1529.95410156 319.956054688 c 0
 1529.95410156 385.580078125 1549.98535156 446.984375 1583.92773438 497.782226562 c 0
 1641.33300781 583.696289062 1739.20019531 640.323242188 1850.18945312 640.323242188 c 0
 1893.4765625 640.323242188 1934.78710938 631.24609375 1972.45996094 615.641601562 c 0
 2088.49609375 567.577148438 2170.2109375 453.185546875 2170.2109375 319.859375 c 0
 2170.2109375 298.411132812 2167.88378906 277.841796875 2163.8515625 257.571289062 c 0
 2134.68164062 110.923828125 2005.1640625 0 1850 0 c 1
 1623.72363281 93.7255859375 l 1
1930 224 m 1
 2210 224 2290 416 2290 704 c 0
 2290 1104 2090 1280 1810 1280 c 0
 1410 1280 1210 1024 1090 528 c 1
 970 728 l 1
 1090 1224 1370 1544 1850 1544 c 0
 2370 1544 2610 1224 2610 704 c 0
 2610 296 2410 -16 1930 -16 c 0
 1810 -16 1690 27.451171875 1623.72363281 93.7255859375 c 1
 1930 224 l 1
EndSplineSet
EndChar
StartChar: uni0404
Encoding: 1028 1028 490
Width: 2240
VWidth: 0
UnlinkRmOvrlpSave: 1
Flags: HW
HStem: -40 320<938.53 1527.34> 960 320<220 1476> 2200 320<900.78 1538.29>
VStem: -180 720<766.786 1713.21> 1900 320<706.061 927.168>
AnchorPoint: "top" 1380 2560 basechar 0
AnchorPoint: "cedilla" 1384 80 basechar 0
LayerCount: 2
Fore
SplineSet
1476 960 m 1
 220 960 l 1
 220 1280 l 1
 1476 1280 l 1
 1476 960 l 1
EndSplineSet
Refer: 35 67 N 1 0 0 1 0 0 2
EndChar
StartChar: uni040A
Encoding: 1034 1034 498
Width: 3780
VWidth: 0
UnlinkRmOvrlpSave: 1
Flags: W
HStem: 0 320<120 440 1080 1300 1540 2896.44> 960 320<1000 1840 1968 2885.24> 2160 320<120 440 1080 1300 1540 1760 2400 2720>
VStem: 1000 80<960 1280> 1760 80<960 1280> 1968 432<960 1280> 2980 720<399.001 865.817>
AnchorPoint: "cedilla" 2084 80 basechar 0
AnchorPoint: "top" 1420 2560 basechar 0
LayerCount: 2
Fore
SplineSet
1968 1280 m 1
 2460 1280 l 2
 3216 1280 3700 1160 3700 680 c 0
 3700 440 3612 275 3476 167 c 0
 3282 12 3060 0 2380 0 c 2
 1540 0 l 1
 1540 320 l 1
 2540 320 l 2
 2858 320 2980 400 2980 640 c 0
 2980 880 2851 960 2460 960 c 2
 1968 960 l 1
 1968 1280 l 1
120 2480 m 1
 1300 2480 l 1
 1300 2160 l 1
 1080 2160 l 1
 1080 320 l 1
 1300 320 l 1
 1300 0 l 1
 120 0 l 1
 120 320 l 1
 440 320 l 1
 440 2160 l 1
 120 2160 l 1
 120 2480 l 1
1760 320 m 1
 1760 2160 l 1
 1540 2160 l 1
 1540 2480 l 1
 2720 2480 l 1
 2720 2160 l 1
 2400 2160 l 1
 2400 320 l 1
 1760 320 l 1
1000 1280 m 1
 1840 1280 l 1
 1840 960 l 1
 1000 960 l 1
 1000 1280 l 1
EndSplineSet
EndChar
StartChar: uni040B
Encoding: 1035 1035 495
Width: 2990
UnlinkRmOvrlpSave: 1
Flags: HW
HStem: 0 320<390 1670 1910 2230 2870 3190> 1200 360<1594.67 2098.29> 1680 800<90 450 1830 2190> 2160 50<710 1350>
VStem: 90 360<1680 2130.52> 710 640<320 640 1050 2210> 1830 360<1680 2130.52> 2230 640<320 1072.88>
AnchorPoint: "top" 1490 2560 basechar 0
AnchorPoint: "cedilla" 1214 80 basechar 0
LayerCount: 2
Fore
SplineSet
100 2480 m 5
 2180 2480 l 5
 2180 1680 l 5
 1940 1680 l 5
 1940 1920 l 6
 1940 2039.25683594 1900 2240 1780 2240 c 6
 500 2240 l 6
 380 2240 340 2039.25683594 340 1920 c 6
 340 1680 l 5
 100 1680 l 5
 100 2480 l 5
2930 0 m 1
 1970 0 l 1
 1970 240 l 1
 2290 240 l 1
 2290 704 l 2
 2290 1104 2090 1280 1810 1280 c 0
 1410 1280 1210 1024 1090 528 c 1
 970 728 l 1
 1090 1224 1370 1544 1850 1544 c 0
 2370 1544 2610 1224 2610 704 c 2
 2610 240 l 1
 2930 240 l 1
 2930 0 l 1
1410 0 m 5
 450 0 l 5
 450 240 l 5
 770 240 l 5
 770 2240 l 5
 1090 2240 l 5
 1090 240 l 5
 1410 240 l 5
 1410 0 l 5
EndSplineSet
EndChar
StartChar: uni0411
Encoding: 1041 1041 407
Width: 2280
UnlinkRmOvrlpSave: 1
Flags: HW
HStem: 0 320<120 1676.44> 960 320<748 1665.24> 2160 320<120 440 1080 1952.16>
VStem: 748 332<960 1280> 1760 720<399.001 865.817> 2000 360<1680 2130.52>
AnchorPoint: "ogonek" 1740 80 basechar 0
AnchorPoint: "top" 1140 2560 basechar 0
AnchorPoint: "cedilla" 1144 80 basechar 0
LayerCount: 2
Fore
SplineSet
1680 2240 m 1
 1840 2240 l 1
 1840 1920 l 1
 1840 2039.25683594 1800 2240 1680 2240 c 1
120 2480 m 1
 2080 2480 l 1
 2080 1680 l 1
 1840 1680 l 1
 1840 2240 l 1
 120 2240 l 1
 120 2480 l 1
6750 2480 m 5
 6870 2480 6910 2680.74316406 6910 2800 c 5
 6910 2480 l 5
 6750 2480 l 5
5270 2240 m 5
 5270 2480 l 5
 6910 2480 l 5
 6910 3040 l 5
 7150 3040 l 5
 7150 2240 l 5
 5270 2240 l 5
5270 240 m 5
 6470 240 l 5
 6470 0 l 5
 5270 0 l 5
 5270 240 l 5
5590 200.31640625 m 5
 5590 2280 l 5
 5910 2280 l 5
 5910 200.31640625 l 5
 5590 200.31640625 l 5
587.546875 1240 m 1
 1160 1240 l 2
 1767.44726562 1240 2160 1076.92871094 2160 640 c 0
 2160 111.78515625 1794.85644531 0 1000 0 c 2
 120 0 l 1
 120 240 l 1
 1000 240 l 2
 1680 240 1840 320 1840 640 c 0
 1840 880 1720 1000 1160 1000 c 2
 587.546875 1000 l 1
 587.546875 1240 l 1
440 200.31640625 m 1
 440 2280 l 1
 760 2280 l 1
 760 200.31640625 l 1
 440 200.31640625 l 1
EndSplineSet
EndChar
StartChar: uni0413
Encoding: 1043 1043 409
Width: 2120
Flags: HW
HStem: 0 320<120 440 1080 1640> 2160 320<120 440 1080 1872.16>
VStem: 440 640<320 2160> 1920 360<1680 2130.52>
AnchorPoint: "ogonek" 1320 80 basechar 0
AnchorPoint: "top" 1090 2560 basechar 0
AnchorPoint: "cedilla" 614 80 basechar 0
LayerCount: 2
Fore
SplineSet
440 200.31640625 m 1
 440 2280 l 1
 760 2280 l 1
 760 200.31640625 l 1
 440 200.31640625 l 1
120 2480 m 1
 2000 2480 l 1
 2000 1680 l 1
 1760 1680 l 1
 1760 2240 l 1
 120 2240 l 1
 120 2480 l 1
120 240 m 1
 1320 240 l 1
 1320 0 l 1
 120 0 l 1
 120 240 l 1
1600 2240 m 1
 1760 2240 l 1
 1760 1920 l 1
 1760 2039.25683594 1720 2240 1600 2240 c 1
EndSplineSet
EndChar
StartChar: uni0414
Encoding: 1044 1044 410
Width: 2638
Flags: HW
AnchorPoint: "top" 1280 2560 basechar 0
AnchorPoint: "cedilla" 1284 80 basechar 0
LayerCount: 2
Fore
SplineSet
1840 160.31640625 m 1
 1840 2240 l 1
 2160 2240 l 1
 2160 160.31640625 l 1
 1840 160.31640625 l 1
120 240 m 1
 2520 240 l 1
 2520 -480 l 1
 2280 -480 l 1
 2280 0 l 1
 360 0 l 1
 360 -480 l 1
 120 -480 l 1
 120 240 l 1
400 2480 m 1
 2160 2480 l 1
 2160 2240 l 1
 400 2240 l 1
 400 2480 l 1
2120 0 m 1
 2280 0 l 1
 2280 -320 l 1
 2280 -200.743164062 2240 0 2120 0 c 1
520 0 m 1
 400 0 360 -200.743164062 360 -320 c 1
 360 0 l 1
 520 0 l 1
662 240 m 5
 382 240 l 5
 590 656 670 1056 670 1600 c 6
 670 2240 l 5
 910 2240 l 5
 910 1600 l 6
 910 976 856.9765625 644.059570312 662 240 c 5
EndSplineSet
EndChar
StartChar: uni0415
Encoding: 1045 1045 411
Width: 2480
VWidth: 0
Flags: HW
AnchorPoint: "top" 1240 2560 basechar 0
AnchorPoint: "cedilla" 1244 80 basechar 0
AnchorPoint: "ogonek" 2100 80 basechar 0
LayerCount: 2
Fore
SplineSet
120 2480 m 1xfa
 2280 2480 l 1
 2280 1680 l 1
 1920 1680 l 1
 1920 1840 l 2xfc
 1920 1959 1880 2160 1760 2160 c 2
 1080 2160 l 1
 1080 1280 l 1
 1440 1280 l 1
 1440 1640 l 1
 1760 1640 l 1
 1760 600 l 1
 1440 600 l 1
 1440 960 l 1
 1080 960 l 1
 1080 320 l 1
 1800 320 l 2
 1920 320 1960 521 1960 640 c 2
 1960 800 l 1
 2320 800 l 1
 2320 0 l 1
 120 0 l 1
 120 320 l 1
 440 320 l 1
 440 2160 l 1
 120 2160 l 1
 120 2480 l 1xfa
EndSplineSet
EndChar
StartChar: uni0416
Encoding: 1046 1046 412
Width: 4240
UnlinkRmOvrlpSave: 1
Flags: W
HStem: -40 320<455.684 870 3370 3784.32> 0 320<1480 1800 2440 2760> 960 320<1480 1960 2280 2760> 1080 80<1200 1480 2760 3040> 2160 320<1600 1800 2440 2640> 2232 288<518.271 818.725 3421.27 3721.73>
VStem: 120 282<300.49 613.949> 148 676<1520.42 1931.48> 1800 160<960 1280> 2280 160<960 1280> 3416 676<1520.42 1931.48> 3838 282<300.49 613.949>
AnchorPoint: "ogonek" 3920 80 basechar 0
AnchorPoint: "top" 2120 2560 basechar 0
AnchorPoint: "cedilla" 2124 80 basechar 0
LayerCount: 2
Fore
SplineSet
1600 2480 m 1x48c0
 2640 2480 l 1
 2640 2160 l 1
 2440 2160 l 1
 2440 320 l 1
 2760 320 l 1
 2760 0 l 1
 1480 0 l 1
 1480 320 l 1
 1800 320 l 1
 1800 2160 l 1
 1600 2160 l 1
 1600 2480 l 1x48c0
1960 1280 m 1x20c0
 1960 960 l 1
 1480 960 l 1
 1480 1280 l 1
 1960 1280 l 1x20c0
1480 1160 m 0x92c0
 1640 960 l 0x22c0
 1440 960 1387 878 1320 640 c 0
 1187 166 1095 -40 645 -40 c 0
 195 -40 158 251 120 611 c 1
 402 640 l 1
 421 481 439 280 532 280 c 0
 600 280 609 438 640 640 c 0
 714 1120 1040 1160 1480 1160 c 0x92c0
800 2520 m 0x15c0
 1000 2520 1131 2474 1240 2400 c 0
 1360 2319 1451 2152 1480 1912 c 0
 1523 1554 1571 1284 1720 1280 c 1x25c0
 1600 1080 l 1
 1200 1080 920 1352 880 1912 c 0
 865 2115 794 2232 668 2232 c 0
 569 2232 481 2159 504 2032 c 1
 681 2032 824 1888 824 1712 c 0
 824 1535 681 1392 504 1392 c 0
 327 1392 148 1512 148 1832 c 0
 148 2151 240 2323 376 2412 c 0
 480 2480 600 2520 800 2520 c 0x15c0
2280 1280 m 1
 2760 1280 l 1
 2760 960 l 1
 2280 960 l 1
 2280 1280 l 1
2760 1160 m 0x10d0
 3200 1160 3526 1120 3600 640 c 0
 3631 438 3640 280 3708 280 c 0
 3801 280 3819 481 3838 640 c 1
 4120 611 l 1
 4082 251 4045 -40 3595 -40 c 0
 3145 -40 3053 166 2920 640 c 0
 2853 878 2800 960 2600 960 c 0xa0d0
 2760 1160 l 0x10d0
3440 2520 m 0x24e0
 3640 2520 3760 2480 3864 2412 c 0
 4000 2323 4092 2151 4092 1832 c 0
 4092 1512 3913 1392 3736 1392 c 0
 3559 1392 3416 1535 3416 1712 c 0
 3416 1888 3559 2032 3736 2032 c 1
 3759 2159 3671 2232 3572 2232 c 0
 3446 2232 3375 2115 3360 1912 c 0
 3320 1352 3040 1080 2640 1080 c 1x14e0
 2520 1280 l 1
 2669 1284 2717 1554 2760 1912 c 0
 2789 2152 2880 2319 3000 2400 c 0
 3109 2474 3240 2520 3440 2520 c 0x24e0
EndSplineSet
EndChar
StartChar: uni0417
Encoding: 1047 1047 413
Width: 1954
UnlinkRmOvrlpSave: 1
Flags: HW
HStem: -40 320<552.54 1327.45> 960 320<904 1056.58> 1080 64<1264 1584> 2200 320<659.762 1251.82>
VStem: 120 664<463 817 1543 1897> 144 306<360 560 1644 2087.5> 1424 680<1449.92 2034.81> 1464 680<401.766 841.411>
AnchorPoint: "ogonek" 1520 80 basechar 0
AnchorPoint: "top" 990 2560 basechar 0
AnchorPoint: "cedilla" 994 80 basechar 0
LayerCount: 2
Fore
SplineSet
150 1720 m 0
 150 1896.73144531 293.268554688 2040 470 2040 c 0
 646.731445312 2040 790 1896.73144531 790 1720 c 0
 790 1543.26855469 646.731445312 1400 470 1400 c 0
 293.268554688 1400 150 1543.26855469 150 1720 c 0
192.872070312 1560 m 17
 -24.2119140625 1936 270 2520 950 2520 c 0
 1590 2520 1790 2176 1790 1720 c 4
 1790 1296 1406 1096 1046 1096 c 1
 750 1240 l 1
 1310 1240 1470 1420 1470 1720 c 4
 1470 2136 1270 2280 910 2280 c 0
 670 2280 390 2080 390 1920 c 9
 192.872070312 1560 l 17
150 600 m 0
 150 776.731445312 293.268554688 920 470 920 c 0
 646.731445312 920 790 776.731445312 790 600 c 0
 790 423.268554688 646.731445312 280 470 280 c 0
 293.268554688 280 150 423.268554688 150 600 c 0
192.872070312 760 m 13
 390 496 l 21
 390 296 590 200 910 200 c 0
 1198.43554688 200 1510 272 1510 632 c 0
 1510 912 1270 1000 750 1000 c 1
 750 1240 l 1
 1070 1176 l 1
 1550 1176 1830 1032 1830 632 c 0
 1830 176 1550 -40 950 -40 c 0
 270 -40 -28.830078125 376 192.872070312 760 c 13
EndSplineSet
EndChar
StartChar: uni0418
Encoding: 1048 1048 414
Width: 2720
Flags: HW
HStem: 0 320<120 440 1640 1960 2600 2920> 2160 320<120 440 1080 1400 2600 2920>
VStem: 440 640<878 2160> 1960 640<320 1602>
AnchorPoint: "ogonek" 2600 80 basechar 0
AnchorPoint: "top" 1386 2560 basechar 0
AnchorPoint: "cedilla" 1390 80 basechar 0
LayerCount: 2
Fore
SplineSet
120 2240 m 1
 120 2480 l 1
 1080 2480 l 1
 1080 2240 l 1
 120 2240 l 1
1960 240 m 1
 1960 2240 l 1
 2280 2240 l 1
 2280 240 l 1
 1960 240 l 1
1960 2240 m 1
 1960 2480 l 1
 2600 2480 l 1
 2600 2240 l 1
 1960 2240 l 1
1640 0 m 1
 1640 240 l 1
 2600 240 l 1
 2600 0 l 1
 1640 0 l 1
760 2240 m 1
 760 240 l 1
 440 240 l 1
 440 2240 l 1
 760 2240 l 1
760 240 m 1
 760 0 l 1
 120 0 l 1
 120 240 l 1
 760 240 l 1
499.999023438 0 m 1
 1899.99902344 2480 l 1
 2219.99902344 2480 l 1
 819.999023438 0 l 1
 499.999023438 0 l 1
EndSplineSet
EndChar
StartChar: uni041A
Encoding: 1050 1050 416
Width: 2520
UnlinkRmOvrlpSave: 1
Flags: HW
HStem: -40 320<2010 2424.32> 0 320<120 440 1080 1400> 960 320<920 1400> 1392 640<2155.12 2380> 2160 320<120 440 1080 1280> 2232 288<2061.27 2364.73>
VStem: 920 160<960 1280> 2056 676<1520.42 1931.48> 2380 352<2032 2211.84> 2478 282<300.49 613.949>
AnchorPoint: "ogonek" 2190 80 basechar 0
AnchorPoint: "top" 1330 2560 basechar 0
AnchorPoint: "cedilla" 1214 80 basechar 0
LayerCount: 2
Fore
SplineSet
560 1240 m 1
 1040 1240 l 1
 1040 1000 l 1
 560 1000 l 1
 560 1240 l 1
1040 1160 m 21
 1320 1160 1602.82226562 1077.3125 1720 640 c 0
 1810.08105469 303.8125 1880 200 1947.5 200 c 0
 2080 200 2120 324.325195312 2157.91210938 640 c 1
 2360 619.329101562 l 1
 2322.5 259.329101562 2240 -40 1915 -40 c 0
 1640 -40 1487.41992188 164.463867188 1360 640 c 0
 1291.40527344 896 1080 1000 880 1000 c 13
 1040 1160 l 21
2371.97851562 1840 m 0
 2371.97851562 1496 2173.79492188 1391.59960938 2016 1391.59960938 c 1
 2096 2015.59960938 l 2
 2120 2176 1986.14648438 2276 1788.44726562 2276 c 0
 1662.31542969 2276 1516.49121094 2174.15039062 1480 1911.59960938 c 0
 1400 1336 1240 1080 920 1080 c 1
 800 1240 l 1
 1000 1240 1120 1416 1200 1911.59960938 c 0
 1238.54394531 2150.37695312 1299.70214844 2296.36425781 1400 2400 c 0
 1481.6328125 2484.34960938 1640 2520 1720 2520 c 0
 1920 2520 2040.00195312 2480 2144.1875 2411.921875 c 0
 2280.00195312 2323.17578125 2371.97851562 2159.47558594 2371.97851562 1840 c 0
1696 1711.59960938 m 0
 1696 1888.33105469 1839.26855469 2031.59960938 2016 2031.59960938 c 0
 2192.73144531 2031.59960938 2336 1888.33105469 2336 1711.59960938 c 0
 2336 1534.86914062 2192.73144531 1391.59960938 2016 1391.59960938 c 0
 1839.26855469 1391.59960938 1696 1534.86914062 1696 1711.59960938 c 0
400 240 m 1
 400 2240 l 1
 720 2240 l 1
 720 240 l 1
 400 240 l 1
120 2240 m 1
 120 2480 l 1
 1000 2480 l 1
 1000 2240 l 1
 120 2240 l 1
80 0 m 1
 80 240 l 1
 1040 240 l 1
 1040 0 l 1
 80 0 l 1
EndSplineSet
EndChar
StartChar: uni041B
Encoding: 1051 1051 417
Width: 2720
UnlinkRmOvrlpSave: 1
Flags: HW
HStem: -40 360<411.623 862.247> 0 320<1640 1960 2600 2920> 2160 320<600 1000 1400 1960 2600 2920> 2160 80<1000 1400>
VStem: 160 280<463 594.688> 1000 400<492.947 2240> 1960 640<320 2160>
AnchorPoint: "ogonek" 2600 80 basechar 0
AnchorPoint: "top" 1510 2560 basechar 0
AnchorPoint: "cedilla" 1514 80 basechar 0
LayerCount: 2
Fore
SplineSet
1000 2240 m 1
 1240 2240 l 1
 1240 1280 l 2
 1240 296 1080 -40 600 -40 c 0
 309.286132812 -40 125.21484375 120 120 480 c 0
 117.682617188 640 160 772.547851562 253.725585938 866.274414062 c 1
 400 640 l 1
 360 480 l 1
 360 336 392 200 592 200 c 0
 880 200 1000 416 1000 1280 c 2
 1000 2240 l 1
600 2480 m 1
 2600 2480 l 1
 2600 2240 l 1
 2280 2240 l 1
 2280 240 l 1
 2600 240 l 1
 2600 0 l 1
 1640 0 l 1
 1640 240 l 1
 1960 240 l 1
 1960 2240 l 1
 600 2240 l 1
 600 2480 l 1
800 640 m 0
 800 463 657 320 480 320 c 0x8e
 303 320 160 463 160 640 c 0
 160 817 303 960 480 960 c 0
 657 960 800 817 800 640 c 0
EndSplineSet
EndChar
StartChar: uni041F
Encoding: 1055 1055 421
Width: 2720
Flags: HW
AnchorPoint: "ogonek" 2600 80 basechar 0
AnchorPoint: "top" 1360 2560 basechar 0
AnchorPoint: "cedilla" 1364 80 basechar 0
LayerCount: 2
Fore
SplineSet
120 2480 m 1
 2600 2480 l 1
 2600 2240 l 1
 2280 2240 l 1
 2280 240 l 1
 2600 240 l 1
 2600 0 l 1
 1640 0 l 1
 1640 240 l 1
 1960 240 l 1
 1960 2240 l 1
 760 2240 l 1
 760 240 l 1
 1080 240 l 1
 1080 0 l 1
 120 0 l 1
 120 240 l 1
 440 240 l 1
 440 2240 l 1
 120 2240 l 1
 120 2480 l 1
EndSplineSet
EndChar
StartChar: uni0423
Encoding: 1059 1059 425
Width: 2603
UnlinkRmOvrlpSave: 1
Flags: HW
HStem: -40 320<553.935 1180.67> 2160 320<120 1400 1720 2800>
VStem: 216 304<463 640>
AnchorPoint: "top" 1390 2560 basechar 0
AnchorPoint: "cedilla" 1424 80 basechar 0
AnchorPoint: "ogonek" 1720 80 basechar 0
LayerCount: 2
Fore
SplineSet
1174.54882812 560 m 1
 296.000976562 2240 l 1
 688.000976562 2240 l 1
 1388.77246094 816.4296875 l 1
 1174.54882812 560 l 1
120 2240 m 1
 120 2480 l 1
 1080 2480 l 1
 1080 2240 l 1
 120 2240 l 1
428.458984375 544.5390625 m 1
 380.729492188 346.936523438 515.161132812 198.3671875 703.005859375 198.3671875 c 0
 910.244140625 198.3671875 1088.421875 358.173828125 1466.24414062 1146.640625 c 2
 1990.16601562 2240 l 1
 2304.00195312 2240 l 1
 1649.77539062 960 l 2
 1239.04003906 156.388671875 1029.41601562 -39.84375 695.474609375 -39.84375 c 0
 418.98828125 -39.84375 154.288085938 138.55859375 154.288085938 472.50390625 c 0
 154.288085938 612.823242188 191.551757812 712.646484375 241.986328125 800 c 1
 428.458984375 544.5390625 l 1
839.111328125 640 m 0
 839.111328125 463.268554688 695.842773438 320 519.111328125 320 c 0
 342.379882812 320 199.111328125 463.268554688 199.111328125 640 c 0
 199.111328125 816.731445312 342.379882812 960 519.111328125 960 c 0
 695.842773438 960 839.111328125 816.731445312 839.111328125 640 c 0
2480 2480 m 1
 2480 2240 l 1
 1680 2240 l 1
 1680 2480 l 1
 2480 2480 l 1
EndSplineSet
EndChar
StartChar: uni0424
Encoding: 1060 1060 426
Width: 2480
Flags: HW
AnchorPoint: "ogonek" 1722.78 80 basechar 0
AnchorPoint: "top" 1242.78 2560 basechar 0
AnchorPoint: "cedilla" 1246.78 80 basechar 0
LayerCount: 2
Fore
SplineSet
762.778320312 0 m 1
 762.778320312 240 l 1
 1722.77832031 240 l 1
 1722.77832031 0 l 1
 762.778320312 0 l 1
762.778320312 2240 m 1
 762.778320312 2480 l 1
 1722.77832031 2480 l 1
 1722.77832031 2240 l 1
 762.778320312 2240 l 1
1082.77832031 216.31640625 m 1
 1082.77832031 2296 l 1
 1402.77832031 2296 l 1
 1402.77832031 216.31640625 l 1
 1082.77832031 216.31640625 l 1
400 1200 m 0
 400 880 543.5 760 920 760 c 0
 1560.00097656 760 l 3
 1936.5 760 2080.00097656 880 2080.00097656 1200 c 0
 2080.00097656 1520 1936.5 1640 1560.00097656 1640 c 0
 920 1640 l 3
 543.5 1640 400 1520 400 1200 c 0
920 520 m 3
 475.158203125 520 80 671.78515625 80 1200 c 0
 80 1728.21484375 498.778320312 1880 920 1880 c 24
 1560.00097656 1880 l 3
 2004.84277344 1880 2400.00097656 1728.21484375 2400.00097656 1200 c 0
 2400.00097656 671.78515625 2004.84277344 520 1560.00097656 520 c 0
 920 520 l 3
EndSplineSet
EndChar
StartChar: uni0426
Encoding: 1062 1062 428
Width: 2720
Flags: HW
AnchorPoint: "top" 1360 2560 basechar 0
AnchorPoint: "cedilla" 1364 80 basechar 0
LayerCount: 2
Fore
SplineSet
120 0 m 1
 120 240 l 1
 440 240 l 1
 440 2240 l 1
 120 2240 l 1
 120 2480 l 1
 1080 2480 l 1
 1080 2240 l 1
 760 2240 l 1
 760 240 l 1
 1960 240 l 1
 1960 2240 l 1
 1640 2240 l 1
 1640 2480 l 1
 2600 2480 l 1
 2600 2240 l 1
 2280 2240 l 1
 2280 240 l 1
 2600 240 l 1
 2467.87011719 0 l 1
 120 0 l 1
2200 0 m 1
 2360 0 l 1
 2360 -320 l 1
 2360 -200.743164062 2320 0 2200 0 c 1
2360 0 m 1
 2600 240 l 1
 2600 -480 l 1
 2360 -480 l 1
 2360 0 l 1
EndSplineSet
EndChar
StartChar: uni0427
Encoding: 1063 1063 429
Width: 2660
UnlinkRmOvrlpSave: 1
Flags: HW
HStem: 0 320<1340 1900 2540 2860> 640 360<1158.84 1637.12> 2160 320<60 380 1020 1340 1580 1900 2540 2860>
VStem: 380 640<1168.23 2160> 1900 640<320 2160>
AnchorPoint: "ogonek" 2540 80 basechar 0
AnchorPoint: "top" 1360 2560 basechar 0
AnchorPoint: "cedilla" 1364 80 basechar 0
LayerCount: 2
Fore
SplineSet
60 2480 m 1
 1020 2480 l 1
 1020 2240 l 1
 700 2240 l 1
 700 1536 l 2
 700 1136 900 960 1180 960 c 0
 1580 960 1780 1216 1900 1712 c 1
 2020 1512 l 1
 1900 1016 1620 696 1140 696 c 0
 620 696 380 1016 380 1536 c 2
 380 2240 l 1
 60 2240 l 1
 60 2480 l 1
1580 2480 m 1
 2540 2480 l 1
 2540 2240 l 1
 2220 2240 l 1
 2220 240 l 1
 2540 240 l 1
 2540 0 l 1
 1580 0 l 1
 1580 240 l 1
 1900 240 l 1
 1900 2240 l 1
 1580 2240 l 1
 1580 2480 l 1
EndSplineSet
EndChar
StartChar: uni0428
Encoding: 1064 1064 430
Width: 4080
Flags: HW
AnchorPoint: "ogonek" 3960 80 basechar 0
AnchorPoint: "top" 2040 2560 basechar 0
AnchorPoint: "cedilla" 2044 80 basechar 0
LayerCount: 2
Fore
SplineSet
120 2480 m 1
 1080 2480 l 1
 1080 2240 l 1
 760 2240 l 1
 760 240 l 1
 1880 240 l 1
 1880 2240 l 1
 1560 2240 l 1
 1560 2480 l 1
 2520 2480 l 1
 2520 2240 l 1
 2200 2240 l 1
 2200 240 l 1
 3320 240 l 1
 3320 2240 l 1
 3000 2240 l 1
 3000 2480 l 1
 3960 2480 l 1
 3960 2240 l 1
 3640 2240 l 1
 3640 240 l 1
 3960 240 l 1
 3960 0 l 1
 120 0 l 1
 120 240 l 1
 440 240 l 1
 440 2240 l 1
 120 2240 l 1
 120 2480 l 1
EndSplineSet
EndChar
StartChar: uni0429
Encoding: 1065 1065 431
Width: 4080
Flags: HW
AnchorPoint: "cedilla" 2044 80 basechar 0
AnchorPoint: "top" 2040 2560 basechar 0
AnchorPoint: "ogonek" 3960 80 basechar 0
LayerCount: 2
Fore
SplineSet
120 2480 m 1
 1080 2480 l 1
 1080 2240 l 1
 760 2240 l 1
 760 240 l 1
 1880 240 l 1
 1880 2240 l 1
 1560 2240 l 1
 1560 2480 l 1
 2520 2480 l 1
 2520 2240 l 1
 2200 2240 l 1
 2200 240 l 1
 3320 240 l 1
 3320 2240 l 1
 3000 2240 l 1
 3000 2480 l 1
 3960 2480 l 1
 3960 2240 l 1
 3640 2240 l 1
 3640 240 l 1
 3960 240 l 1
 3827.87597656 0 l 1
 120 0 l 1
 120 240 l 1
 440 240 l 1
 440 2240 l 1
 120 2240 l 1
 120 2480 l 1
3560 0 m 1
 3720 0 l 1
 3720 -320 l 1
 3720 -200.743164062 3680 0 3560 0 c 1
3720 0 m 1
 3960 240 l 1
 3960 -480 l 1
 3720 -480 l 1
 3720 0 l 1
EndSplineSet
EndChar
StartChar: uni042A
Encoding: 1066 1066 432
Width: 2790
UnlinkRmOvrlpSave: 1
Flags: HW
HStem: 0 320<632 2186.44> 960 320<1260 2175.24> 2160 320<507.836 952 1592 1980>
VStem: 100 360<1680 2130.52> 952 640<320 960 1280 2160> 1260 332<960 1280> 2270 720<399.001 865.817>
AnchorPoint: "ogonek" 2290 80 basechar 0
AnchorPoint: "cedilla" 1464 80 basechar 0
AnchorPoint: "top" 1460 2560 basechar 0
LayerCount: 2
Fore
SplineSet
980 200.31640625 m 1
 980 2280 l 1
 1300 2280 l 1
 1300 200.31640625 l 1
 980 200.31640625 l 1
1127.54785156 1240 m 1
 1700 1240 l 2
 2307.44824219 1240 2700 1076.92871094 2700 640 c 0
 2700 111.78515625 2334.85644531 0 1540 0 c 2
 660 0 l 1
 660 240 l 1
 1540 240 l 2
 2220 240 2380 320 2380 640 c 0
 2380 880 2260 1000 1700 1000 c 2
 1127.54785156 1000 l 1
 1127.54785156 1240 l 1
1700 2480 m 1
 1700 2240 l 1
 340 2240 l 1
 340 1680 l 1
 100 1680 l 1
 100 2480 l 1
 1700 2480 l 1
500 2240 m 1
 380 2240 340 2039.25683594 340 1920 c 1
 340 2240 l 1
 500 2240 l 1
EndSplineSet
EndChar
StartChar: uni042B
Encoding: 1067 1067 433
Width: 3440
UnlinkRmOvrlpSave: 1
Flags: HW
HStem: 0 320<120 1676.44 2680 3000 3640 3960> 960 320<748 1665.24> 2160 320<120 440 1080 1480 2680 3000 3640 3960>
VStem: 440 640<320 960 1280 2160> 748 332<960 1280> 1760 720<399.001 865.817> 3000 640<320 2160>
AnchorPoint: "ogonek" 3320 80 basechar 0
AnchorPoint: "cedilla" 1784 80 basechar 0
AnchorPoint: "top" 1780 2560 basechar 0
LayerCount: 2
Fore
SplineSet
2360 0 m 1
 2360 240 l 1
 3320 240 l 1
 3320 0 l 1
 2360 0 l 1
2360 2240 m 1
 2360 2480 l 1
 3320 2480 l 1
 3320 2240 l 1
 2360 2240 l 1
2680 240 m 1
 2680 2240 l 1
 3000 2240 l 1
 3000 240 l 1
 2680 240 l 1
120 2480 m 1
 1160 2480 l 1
 1160 2240 l 1
 120 2240 l 1
 120 2480 l 1
587.547851562 1240 m 1
 1160 1240 l 2
 1760 1240 2080 1076.92871094 2080 640 c 0
 2080 111.78515625 1760 0 1000 0 c 2
 120 0 l 1
 120 240 l 1
 1000 240 l 2
 1640 240 1760 320 1760 640 c 0
 1760 880 1680 1000 1160 1000 c 2
 587.547851562 1000 l 1
 587.547851562 1240 l 1
440 200.31640625 m 1
 440 2280 l 1
 760 2280 l 1
 760 200.31640625 l 1
 440 200.31640625 l 1
EndSplineSet
EndChar
StartChar: uni042C
Encoding: 1068 1068 434
Width: 2250
UnlinkRmOvrlpSave: 1
Flags: HW
HStem: 0 320<120 1676.44> 960 320<748 1665.24> 2160 320<120 440 1080 1480>
VStem: 440 640<320 960 1280 2160> 748 332<960 1280> 1760 720<399.06 865.817>
AnchorPoint: "ogonek" 1740 80 basechar 0
AnchorPoint: "cedilla" 1124 80 basechar 0
AnchorPoint: "top" 590 2560 basechar 0
LayerCount: 2
Fore
SplineSet
120 2480 m 1
 1160 2480 l 1
 1160 2240 l 1
 120 2240 l 1
 120 2480 l 1
587.547851562 1240 m 1
 1160 1240 l 2
 1767.44824219 1240 2160 1076.92871094 2160 640 c 0
 2160 111.78515625 1794.85644531 0 1000 0 c 2
 120 0 l 1
 120 240 l 1
 1000 240 l 2
 1680 240 1840 320 1840 640 c 0
 1840 880 1720 1000 1160 1000 c 2
 587.547851562 1000 l 1
 587.547851562 1240 l 1
440 200.31640625 m 1
 440 2280 l 1
 760 2280 l 1
 760 200.31640625 l 1
 440 200.31640625 l 1
EndSplineSet
EndChar
StartChar: uni042D
Encoding: 1069 1069 435
Width: 2240
VWidth: 0
UnlinkRmOvrlpSave: 1
Flags: HW
HStem: -40 320<3178.53 3767.34> 960 320<2460 3716> 2200 320<3140.78 3778.29>
VStem: 2060 720<766.786 1713.21> 4140 320<706.061 927.168>
LayerCount: 2
Fore
SplineSet
764 960 m 5
 764 1280 l 5
 2020 1280 l 5
 2020 960 l 5
 764 960 l 5
90.9033203125 1802.82226562 m 5
 202.97265625 2221.06738281 573.729492188 2520 1120 2520 c 4
 1896.47167969 2520 2200 1880 2200 1240 c 4
 2200 600 1896.47167969 -40 1120 -40 c 4
 478.723632812 -40 169.922851562 425.325195312 80 944 c 5
 320 984 l 5
 396.983398438 535.5 624.956054688 200 1120 200 c 4
 1680 200 1880 668.698242188 1880 1240 c 4
 1880 1811.30175781 1640 2265.64257812 1040 2265.64257812 c 4
 600 2265.64257812 416.436523438 2013.09375 288 1720 c 5
 90.9033203125 1802.82226562 l 5
720 1720 m 4
 720 1543.26855469 576.731445312 1400 400 1400 c 4
 223.268554688 1400 80 1543.26855469 80 1720 c 4
 80 1896.73144531 223.268554688 2040 400 2040 c 4
 576.731445312 2040 720 1896.73144531 720 1720 c 4
EndSplineSet
EndChar
StartChar: uni042F
Encoding: 1071 1071 437
Width: 2420
VWidth: 0
UnlinkRmOvrlpSave: 1
Flags: HW
HStem: -40 320<1614 2028.32> 0 320<-236 1044> 960 320<724 1240> 960 280<1004 1444> 2160 320<724 1231.05 -236 84>
VStem: 2082 282<300.49 613.949> 1364 720<1428.62 2039.72> 84 640<320 2160>
LayerCount: 2
Fore
SplineSet
1980 200.31640625 m 5
 1660 200.31640625 l 5
 1660 2280 l 5
 1980 2280 l 5
 1980 200.31640625 l 5
2300 2480 m 5
 2300 2240 l 5
 1380 2240 l 6
 860 2240 620 2160 620 1720 c 4
 620 1400 700 1240 1260 1240 c 6
 1780 1240 l 5
 1780 1080 l 5
 1180 1080 l 6
 497.927734375 1080 300 1358.06445312 300 1740 c 4
 300 2306.46386719 660 2480 1420 2480 c 6
 2300 2480 l 5
1660 1160 m 5
 1660 1000 l 5
 1300 1000 l 6
 1060 1000 990.219726562 760.873046875 940 560 c 4
 820 80 740 -40 460 -40 c 4
 220 -40 81.6640625 77.685546875 20 640 c 5
 180 640 l 5
 211.211914062 398.700195312 260 200 403.080078125 200 c 4
 500 200 545.715820312 320 660 720 c 4
 740 1000 900 1160 1140 1160 c 6
 1660 1160 l 5
2300 0 m 5
 1340 0 l 5
 1340 240 l 5
 2300 240 l 5
 2300 0 l 5
EndSplineSet
EndChar
StartChar: uni0431
Encoding: 1073 1073 439
Width: 2120
UnlinkRmOvrlpSave: 1
Flags: W
HStem: -46 320<839.957 1278.66> 1394 320<879.372 1311.52> 1790 240<1349.13 1680> 1930 550<681.873 1141.62> 2000 30<1523 1680>
VStem: 100 370<784.268 1661.56> 1380 640<2247.65 2540.88> 1422 595<431.413 1263.31>
AnchorPoint: "ogonek" 1570 80 basechar 0
AnchorPoint: "top" 1060 2560 basechar 0
AnchorPoint: "cedilla" 1084 80 basechar 0
LayerCount: 2
Fore
SplineSet
100 1170 m 0xc5
 430 874 l 0
 474 1525 780 1714 1220 1714 c 0
 1690 1714 2017 1367 2017 834 c 0
 2017 257 1598 -46 1058 -46 c 3
 529 -46 100 349 100 1170 c 0xc5
1138 1394 m 0
 860 1394 694 1189 694 834 c 0
 694 480 820 274 1058 274 c 3
 1300 274 1422 480 1422 832 c 0
 1422 1185 1340 1394 1138 1394 c 0
1380 2320 m 0xce
 1380 2497 1523 2640 1700 2640 c 0
 1877 2640 2020 2497 2020 2320 c 0
 2020 2143 1877 2000 1700 2000 c 0
 1523 2000 1380 2143 1380 2320 c 0xce
860 2480 m 0xd6
 1094 2480 1160 2390 1236 2264 c 0
 1332.779785 2103.54930382 1424 2030 1490 2030 c 2
 1680 2030 l 1
 2020 2320 l 1
 2020 1991 1832 1790 1500 1790 c 0xe6
 1180 1790 1171 1930 916 1930 c 0
 646 1930 470 1700 470 1080 c 0
 470 859 482 880 510 760 c 1
 430 874 l 1
 100 1170 l 1
 100 1850 380 2480 860 2480 c 0xd6
EndSplineSet
EndChar
StartChar: uni0432
Encoding: 1074 1074 440
Width: 2120
UnlinkRmOvrlpSave: 1
Flags: HW
HStem: 0 320<80 1360.78> 800 320<760 1280> 920 200<680 760 1080 1278.59> 920 80<760 1640> 1520 320<80 280 846 1280.78>
VStem: 280 560<320 800 1120 1520> 680 166<1000 1120> 760 80<800 1000> 1320 640<1146.28 1486.67> 1400 640<358.911 762.103>
AnchorPoint: "ogonek" 1680 80 basechar 0
AnchorPoint: "top" 1090 1920 basechar 0
AnchorPoint: "cedilla" 1094 80 basechar 0
LayerCount: 2
Fore
SplineSet
846 1560 m 1x8a
 840 320 l 1
 280 320 l 1
 280 1520 l 1x8c
 701 1520 l 1
 846 1560 l 1x8a
1080 1120 m 19xca80
 1280 1120 1320 1200 1320 1320 c 0
 1320 1440 1280 1520 1080 1520 c 2
 80 1520 l 1
 80 1840 l 1
 1240 1840 l 2
 1680 1840 1960 1760 1960 1360 c 0
 1960 960 1640 920 1080 920 c 2
 680 920 l 1
 680 1120 l 1xaa80
 1080 1120 l 19xca80
760 1000 m 1x9940
 1160 1000 l 2
 1720 1000 2040 960 2040 560 c 3x9940
 2040 161 1760 0 1320 0 c 2x9880
 80 0 l 1
 80 320 l 1
 1160 320 l 2
 1360 320 1400 440 1400 560 c 0
 1400 680 1360 800 1160 800 c 2
 760 800 l 1xc940
 760 1000 l 1x9940
EndSplineSet
EndChar
StartChar: uni0435
Encoding: 1077 1077 443
Width: 2096
VWidth: 0
Flags: HW
HStem: -52 332<881.817 1472.7> 800 320<704.805 1411.09> 1560 320<839.061 1277.94>
VStem: 100 597.947<491.52 800 1120 1326.57>
AnchorPoint: "top" 1080 1920 basechar 0
AnchorPoint: "cedilla" 1124 80 basechar 0
AnchorPoint: "ogonek" 1560 80 basechar 0
LayerCount: 2
Fore
SplineSet
1058 -52 m 0
 529 -52 100 328 100 908 c 0
 100 1488 529 1880 1058 1880 c 0
 1587 1880 2016 1488 2016 908 c 1
 1991 800 l 1
 697.947265625 800 l 1
 728.435546875 401.428710938 930.821289062 280 1140 280 c 0
 1433 280 1569 398 1659 613 c 1
 1925 521 l 1
 1808 201 1513 -52 1058 -52 c 0
704.8046875 1120 m 1
 1411.09082031 1120 l 1
 1374.76855469 1436.76464844 1249.41210938 1560 1060 1560 c 0
 869.909179688 1560 741.52734375 1442.890625 704.8046875 1120 c 1
EndSplineSet
EndChar
StartChar: uni043E
Encoding: 1086 1086 452
Width: 2117
VWidth: 0
Flags: HW
AnchorPoint: "top" 1058 1914 basechar 0
AnchorPoint: "cedilla" 1064 80 basechar 0
AnchorPoint: "ogonek" 1500 80 basechar 0
LayerCount: 2
Fore
SplineSet
1058 1874 m 3
 1587 1874 2017 1494 2017 914 c 0
 2017 334 1587 -46 1058 -46 c 3
 529 -46 100 334 100 914 c 0
 100 1494 529 1874 1058 1874 c 3
1058 1554 m 3
 831 1554 694 1399 694 914 c 0
 694 429 831 274 1058 274 c 3
 1285 274 1422 439 1422 914 c 0
 1422 1389 1285 1554 1058 1554 c 3
EndSplineSet
EndChar
StartChar: uni0449
Encoding: 1097 1097 463
Width: 3520
UnlinkRmOvrlpSave: 1
Flags: W
HStem: -760 430<2890.4 3163.38> -260 200<1905.45 2357.56> 0 320<80 280 840 1440 2000 2600 3000 3088> 50 270<280 840 1440 2000 2600 3160> 1520 320<80 280 840 1040 1240 1440 2000 2200 2400 2600 3160 3360>
VStem: 280 560<50 1520> 1440 560<50 1520> 1476 640<-700.885 -463.509> 2600 560<50 1520> 3180 300<-316.943 -29.6995>
AnchorPoint: "top" 1740 1920 basechar 0
LayerCount: 2
Fore
SplineSet
80 320 m 1xedc0
 3100 320 l 2xddc0
 3365 320 3480 87 3480 -178 c 0
 3480 -507 3225 -760 2920 -760 c 0
 2635 -760 2474 -676 2290 -470 c 0
 2168 -334 2102 -260 2048 -260 c 0
 1960 -260 1926 -325 1926 -396 c 1
 1476 -480 l 1
 1476 -294 1610 -60 2170 -60 c 0
 2537 -60 2710 -100 2884 -239 c 0
 2952 -293 2990 -330 3053 -330 c 0
 3129 -330 3180 -250 3180 -170 c 0
 3180 -72 3088 0 3000 0 c 2
 80 0 l 1
 80 320 l 1xedc0
1476 -480 m 0
 1476 -303 1619 -160 1796 -160 c 0
 1973 -160 2116 -303 2116 -480 c 0
 2116 -657 1973 -800 1796 -800 c 0
 1619 -800 1476 -657 1476 -480 c 0
80 1520 m 1
 80 1840 l 1
 1040 1840 l 1
 1040 1520 l 1
 840 1520 l 1
 840 50 l 1
 280 50 l 1
 280 1520 l 1
 80 1520 l 1
1240 1520 m 1
 1240 1840 l 1
 2200 1840 l 1
 2200 1520 l 1
 2000 1520 l 1
 2000 50 l 1
 1440 50 l 1
 1440 1520 l 1xdec0
 1240 1520 l 1
2400 1520 m 1
 2400 1840 l 1
 3360 1840 l 1
 3360 1520 l 1
 3160 1520 l 1
 3160 50 l 1
 2600 50 l 1
 2600 1520 l 1
 2400 1520 l 1
EndSplineSet
EndChar
StartChar: uni044E
Encoding: 1102 1102 468
Width: 3040
UnlinkRmOvrlpSave: 1
Flags: HW
HStem: -46 320<1758.37 2200.2> 0 320<80 280 840 990> 800 320<520 1483> 1520 320<80 280 840 990> 1554 320<1758.37 2200.2>
VStem: 80 910<0 320 1520 1840> 520 320<800 1120> 1023 594<491.896 1336.1> 2345 595<494.072 1333.93>
AnchorPoint: "ogonek" 2440 80 basechar 0
AnchorPoint: "cedilla" 1444 80 basechar 0
AnchorPoint: "top" 1460 1920 basechar 0
LayerCount: 2
Fore
SplineSet
990 0 m 1x7580
 80 0 l 1
 80 320 l 1
 280 320 l 1
 280 1520 l 1
 80 1520 l 1
 80 1840 l 1
 990 1840 l 1
 990 1520 l 1x7580
 840 1520 l 1
 840 320 l 1x7380
 990 320 l 1
 990 0 l 1x7580
520 800 m 1x2380
 520 1120 l 1
 1483 1120 l 1
 1483 800 l 1
 520 800 l 1x2380
EndSplineSet
Refer: 82 111 N 1 0 0 1 923 0 2
EndChar
StartChar: uni045A
Encoding: 1114 1114 499
Width: 3010
UnlinkRmOvrlpSave: 1
Flags: W
HStem: 0 320<80 280 840 990 1190 1340 1900 2259.36> 800 320<840 1340 1900 2259.36> 1520 320<80 280 840 990 1190 1340 1900 2100>
VStem: 80 910<0 320 1520 1840> 280 560<320 800 1120 1520> 1340 560<320 800 1120 1520> 2300 640<354.187 765.813>
AnchorPoint: "top" 1640 1920 basechar 0
AnchorPoint: "cedilla" 1624 80 basechar 0
LayerCount: 2
Fore
SplineSet
1820 1120 m 1xe6
 2100 1120 l 2
 2700 1120 2940 960 2940 560 c 0
 2940 160 2700 0 2100 0 c 2
 1190 0 l 1
 1190 320 l 1
 2100 320 l 2
 2260 320 2300 440 2300 560 c 0
 2300 680 2260 800 2100 800 c 2
 1900 800 l 1
 1820 1120 l 1xe6
1340 320 m 1
 1340 800 l 1
 840 800 l 1
 840 320 l 1xee
 990 320 l 1
 990 0 l 1
 80 0 l 1
 80 320 l 1xf6
 280 320 l 1
 280 1520 l 1xee
 80 1520 l 1
 80 1840 l 1
 990 1840 l 1
 990 1520 l 1xf6
 840 1520 l 1
 840 1120 l 1xee
 1340 1120 l 1
 1340 1520 l 1
 1190 1520 l 1
 1190 1840 l 1
 2100 1840 l 1
 2100 1520 l 1
 1900 1520 l 1
 1900 320 l 1
 1340 320 l 1
EndSplineSet
EndChar
StartChar: uni0472
Encoding: 1138 1138 503
Width: 2400
VWidth: 0
UnlinkRmOvrlpSave: 1
Flags: HW
HStem: -40 320<918.91 1461.09> 797 325<1347.45 1776.56> 1132 325<585.443 1014.55> 2200 320<916.12 1463.88>
VStem: -130 720<766.786 1713.21> 1790 720<766.786 1713.21>
AnchorPoint: "top" 1360 2560 basechar 0
AnchorPoint: "cedilla" 1364 80 basechar 0
LayerCount: 2
Back
SplineSet
1990 960 m 5
 734 960 l 5
 734 1280 l 5
 1990 1280 l 5
 1990 960 l 5
EndSplineSet
Fore
SplineSet
1319.5 1199.79980469 m 4
 1427.5 1114.75 1516.59960938 1020.25 1659.70019531 1020.25 c 4
 1809.54980469 1020.25 1993.15039062 1101.25 2041.75 1186.29980469 c 5
 2026.40039062 911.099609375 l 1
 1933.25 824.700195312 1796.90039062 781.5 1625.45019531 781.5 c 0
 1382.45019531 781.5 1221.79980469 928.650390625 1062.5 1054.20019531 c 0
 954.5 1139.25 865.400390625 1233.75 722.299804688 1233.75 c 0
 572.450195312 1233.75 388.849609375 1152.75 340.25 1067.70019531 c 1
 355.599609375 1342.90039062 l 5
 448.75 1429.29980469 585.099609375 1472.5 756.549804688 1472.5 c 4
 999.549804688 1472.5 1160.20019531 1325.34960938 1319.5 1199.79980469 c 4
EndSplineSet
Refer: 47 79 N 1 0 0 1 0 0 2
EndChar
StartChar: uni0473
Encoding: 1139 1139 504
Width: 1957
VWidth: 0
UnlinkRmOvrlpSave: 1
Flags: HW
HStem: -46 320<835.366 1277.2> 618 325<1121.88 1417.68> 818 325<667.61 964.123> 1554 320<835.366 1277.2>
VStem: 100 594<491.896 1336.1> 1422 595<494.072 1333.93>
AnchorPoint: "top" 1058 1914 basechar 0
AnchorPoint: "cedilla" 1064 80 basechar 0
LayerCount: 2
Back
SplineSet
570 720 m 5
 570 1040 l 5
 1533 1040 l 5
 1533 720 l 5
 570 720 l 5
EndSplineSet
Fore
SplineSet
1084.95019531 985.674804688 m 4xbc
 1153.09960938 930.575195312 1211.09960938 871.125 1302.45019531 871.125 c 4
 1399.59960938 871.125 1517.04980469 921.875 1548.95019531 976.974609375 c 5
 1548.20019531 726.025390625 l 5
 1488.75 670.924804688 1343.75 599.875 1233.54980469 599.875 c 4xdc
 1076.95019531 599.875 974 694.125 871.049804688 775.325195312 c 4
 801.450195312 830.424804688 744.900390625 889.875 652.099609375 889.875 c 4
 556.400390625 889.875 437.5 839.125 407.049804688 784.025390625 c 5
 406.349609375 1034.97460938 l 5
 467.25 1090.07519531 612.25 1161.125 722.450195312 1161.125 c 4
 879.049804688 1161.125 982 1066.875 1084.95019531 985.674804688 c 4xbc
EndSplineSet
Refer: 82 111 N 1 0 0 1 0 0 2
EndChar
StartChar: uni0490
Encoding: 1168 1168 501
Width: 2120
Flags: HWO
HStem: 0 320<120 440 1080 1640> 2160 320<120 440 1080 1872.16>
VStem: 440 640<320 2160> 1920 360<1680 2130.52>
AnchorPoint: "ogonek" 1320 80 basechar 0
AnchorPoint: "top" 1090 2560 basechar 0
AnchorPoint: "cedilla" 614 80 basechar 0
LayerCount: 2
Fore
SplineSet
1600 2480 m 1
 1720 2480 1760 2680.74316406 1760 2800 c 1
 1760 2480 l 1
 1600 2480 l 1
120 2240 m 1
 120 2480 l 1
 1760 2480 l 1
 1760 3040 l 1
 2000 3040 l 1
 2000 2240 l 1
 120 2240 l 1
440 200.31640625 m 1
 440 2280 l 1
 760 2280 l 1
 760 200.31640625 l 1
 440 200.31640625 l 1
120 240 m 1
 1320 240 l 1
 1320 0 l 1
 120 0 l 1
 120 240 l 1
EndSplineSet
EndChar
StartChar: uni0491
Encoding: 1169 1169 502
Width: 1800
Flags: HW
AnchorPoint: "top" 980 1920 basechar 0
AnchorPoint: "cedilla" 564 80 basechar 0
LayerCount: 2
Fore
SplineSet
80 1840 m 1
 1400 1840 l 1
 1400 2320 l 1
 1720 2320 l 1
 1720 1520 l 1
 840 1520 l 1
 840 320 l 1
 1280 320 l 1
 1280 0 l 1
 80 0 l 1
 80 320 l 1
 280 320 l 1
 280 1520 l 1
 80 1520 l 1
 80 1840 l 1
EndSplineSet
Validated: 1
EndChar
StartChar: uni04AF
Encoding: 1199 1199 508
Width: 2320
VWidth: 0
UnlinkRmOvrlpSave: 1
Flags: W
HStem: -640 950<870 1430> -640 320<670 870 1430 1630> 0 21G<927.211 1368.79> 1520 320<80 268 871 1200 1400 1680 2028 2240>
VStem: 870 560<-320 310>
AnchorPoint: "top" 1130 1920 basechar 0
AnchorPoint: "cedilla" 1924 80 basechar 0
AnchorPoint: "ogonek" 1920 80 basechar 0
LayerCount: 2
Fore
SplineSet
870 310 m 1x98
 1430 310 l 1x98
 1430 -320 l 1
 1630 -320 l 1
 1630 -640 l 1
 670 -640 l 1
 670 -320 l 1
 870 -320 l 1x58
 870 310 l 1x98
EndSplineSet
Refer: 95 118 N 1 0 0 1 0 0 2
EndChar
StartChar: uni04C0
Encoding: 1216 1216 538
Width: 1120
VWidth: 0
Flags: HW
HStem: 0 320<-30 290 930 1250> 2160 320<-30 290 930 1250>
VStem: 290 640<320 2160>
AnchorPoint: "top" 560 2560 basechar 0
AnchorPoint: "cedilla" 604 80 basechar 0
AnchorPoint: "ogonek" 820 80 basechar 0
LayerCount: 2
Fore
SplineSet
80 0 m 1
 80 240 l 1
 400 240 l 1
 400 2240 l 1
 80 2240 l 1
 80 2480 l 1
 1040 2480 l 1
 1040 2240 l 1
 720 2240 l 1
 720 240 l 1
 1040 240 l 1
 1040 0 l 1
 80 0 l 1
EndSplineSet
EndChar
StartChar: uni04E8
Encoding: 1256 1256 505
Width: 2400
VWidth: 0
UnlinkRmOvrlpSave: 1
Flags: HW
HStem: -40 320<918.91 1461.09> 960 320<564 1820> 2200 320<916.12 1463.88>
VStem: -130 720<766.786 1713.21> 1790 720<766.786 1713.21>
AnchorPoint: "top" 1360 2560 basechar 0
AnchorPoint: "cedilla" 1364 80 basechar 0
LayerCount: 2
Fore
SplineSet
1820 960 m 1
 564 960 l 1
 564 1280 l 1
 1820 1280 l 1
 1820 960 l 1
EndSplineSet
Refer: 47 79 N 1 0 0 1 0 0 2
EndChar
StartChar: uni04E9
Encoding: 1257 1257 506
Width: 1957
VWidth: 0
UnlinkRmOvrlpSave: 1
Flags: HW
HStem: -46 320<835.366 1277.2> 720 320<570 1533> 1554 320<835.366 1277.2>
VStem: 100 594<491.896 1336.1> 1422 595<494.072 1333.93>
AnchorPoint: "top" 1058 1914 basechar 0
AnchorPoint: "cedilla" 1064 80 basechar 0
LayerCount: 2
Fore
SplineSet
370 760 m 1
 370 1000 l 1
 1593 1000 l 5
 1593 760 l 5
 370 760 l 1
EndSplineSet
Refer: 82 111 N 1 0 0 1 0 0 2
EndChar
StartChar: Germandbls
Encoding: 7838 7838 293
Width: 2519
VWidth: 0
UnlinkRmOvrlpSave: 1
Flags: HW
HStem: -40 320<1432.93 1935.28> 0 320<-80 880> 320 320<1183 1360> 2200 320<1161.57 1812.15>
VStem: 240 640<320 1910.39> 1040 640<463 860.885> 1040 320<463 640> 2000 640<364.072 884.191>
LayerCount: 2
Fore
SplineSet
1439.99609375 2520 m 4
 1880 2520 2101.15625 2291.31835938 2256.28417969 1952.4375 c 5
 1716.85644531 1551.77929688 l 5
 1393.20800781 1583.76757812 l 5
 1966.79199219 1980.37207031 l 5
 1846.79199219 2180.37207031 1673.56445312 2280 1480 2280 c 4
 1040 2280 720 2087.35546875 720 1560 c 6
 720 240 l 5
 400 240 l 5
 400 1560 l 6
 400 2200 800 2520 1439.99609375 2520 c 4
80 0 m 5
 80 240 l 5
 720 240 l 5
 720 0 l 5
 80 0 l 5
1393.20800781 1583.76757812 m 5
 1680 1680 l 5
 1840 1280 2479.99609375 1200 2479.99609375 680 c 4
 2479.99609375 239.830078125 2142.22363281 -40 1677.77636719 -40 c 4
 1382.21972656 -40 960 131.478515625 960 640 c 5
 1200 640 l 5
 1200 320 1492.171875 200 1700.86816406 200 c 4
 1951.30371094 200 2160 400 2160 640 c 4
 2160 1160 1680 1040 1393.20800781 1583.76757812 c 5
1600.0078125 640 m 4
 1600.0078125 463.26953125 1456.73925781 320 1280.0078125 320 c 4
 1103.27734375 320 960.0078125 463.26953125 960.0078125 640 c 4
 960.0078125 816.731445312 1103.27734375 960 1280.0078125 960 c 4
 1456.73925781 960 1600.0078125 816.731445312 1600.0078125 640 c 4
EndSplineSet
EndChar
StartChar: figuredash
Encoding: 8210 8210 356
Width: 2240
VWidth: 0
Flags: HW
HStem: 1080 320<160 2080>
LayerCount: 2
Fore
SplineSet
160 1120 m 5
 160 1360 l 1
 2080 1360 l 1
 2080 1120 l 5
 160 1120 l 5
EndSplineSet
EndChar
StartChar: endash
Encoding: 8211 8211 357
Width: 2000
VWidth: 0
Flags: HW
HStem: 800 320<40 1960>
LayerCount: 2
Fore
SplineSet
40 840 m 5
 40 1080 l 1
 1960 1080 l 1
 1960 840 l 5
 40 840 l 5
EndSplineSet
EndChar
StartChar: emdash
Encoding: 8212 8212 358
Width: 3200
VWidth: 0
Flags: HW
HStem: 800 320<40 3160>
LayerCount: 2
Fore
SplineSet
40 840 m 5
 40 1080 l 1
 3160 1080 l 1
 3160 840 l 5
 40 840 l 5
EndSplineSet
EndChar
StartChar: quoteleft
Encoding: 8216 8216 265
Width: 840
VWidth: 0
Flags: HW
HStem: 1291 1260
VStem: 61 649<1401.47 1823.47>
LayerCount: 2
Fore
SplineSet
390 1291 m 4
 245.23046875 1291.17480469 118.595703125 1388.51757812 81.0703125 1528.28125 c 4
 67.4111328125 1579.15625 60.9619140625 1630.60839844 60.9619140625 1682.11230469 c 4
 60.9619140625 2018.05761719 335.33203125 2356.22363281 672.6953125 2551 c 5
 744.4140625 2479.88769531 l 5
 447.41015625 2241.80273438 428.190429688 2061.34863281 424.4140625 1928.765625 c 5
 586.733398438 1911.20703125 709.807617188 1774.26660156 710 1611 c 4
 710 1434.26855469 566.731445312 1291 390 1291 c 4
EndSplineSet
EndChar
StartChar: quotereversed
Encoding: 8219 8219 268
Width: 840
VWidth: 0
Flags: HW
HStem: 1280 1260
VStem: 61 649<2007.53 2429.53>
LayerCount: 2
Fore
SplineSet
390 2540 m 4
 245.23046875 2539.82519531 118.595703125 2442.48242188 81.0703125 2302.71875 c 4
 67.4111328125 2251.84375 60.9619140625 2200.39160156 60.9619140625 2148.88769531 c 4
 60.9619140625 1812.94238281 335.33203125 1474.77636719 672.6953125 1280 c 5
 744.4140625 1351.11230469 l 5
 447.41015625 1589.19726562 428.190429688 1769.65136719 424.4140625 1902.234375 c 5
 586.733398438 1919.79296875 709.807617188 2056.73339844 710 2220 c 4
 710 2396.73144531 566.731445312 2540 390 2540 c 4
EndSplineSet
EndChar
StartChar: guilsinglleft
Encoding: 8249 8249 366
Width: 1040
VWidth: 0
Flags: HW
HStem: 240 1360
VStem: 80 880<680 800 1040 1160>
LayerCount: 2
Fore
SplineSet
80 1100 m 1
 960 1560 l 1
 960 1120 l 1
 320 920 l 1
 960 720 l 1
 960 280 l 1
 80 740 l 5
 80 1100 l 1
EndSplineSet
EndChar
StartChar: fraction
Encoding: 8260 8260 309
Width: 1013
VWidth: 0
Flags: HW
HStem: 0 21G<-640 -167> 1820 20G<1180 1653>
LayerCount: 2
Fore
SplineSet
1230 1840 m 5
 1623 1840 l 1
 -217 0 l 1
 -610 0 l 5
 1230 1840 l 5
EndSplineSet
EndChar
StartChar: uni2074
Encoding: 8308 8308 314
Width: 1440
VWidth: 0
Flags: HW
HStem: 1040 320<640 1000 1480 1680> 1440 320<520 1000 1480 1680>
VStem: 1000 480<1360 1440 1760 2110.72>
LayerCount: 2
Fore
SplineSet
719.9921875 2640 m 1
 1080 2640 l 1
 960 2240 600 1840 360 1680 c 1
 840 1680 l 1
 840 2040 l 1
 840 2040.0078125 l 1
 840 1966.84375 l 1
 927.522460938 2073.671875 1009.41699219 2193.09277344 1076.390625 2320 c 1
 1160 2320 l 1
 1160 1680 l 1
 1360 1680 l 1
 1360 1440 l 1
 1160 1440 l 1
 1160 1280 l 1
 1360 1280 l 1
 1360 1040 l 1
 640 1040 l 1
 640 1280 l 1
 839.9921875 1280 l 1
 839.9921875 1440 l 1
 80 1440 l 1
 80 1680 l 1
 320 1920 640.000976562 2320 719.9921875 2640 c 1
EndSplineSet
EndChar
StartChar: Euro
Encoding: 8364 8364 305
Width: 2535
VWidth: 0
UnlinkRmOvrlpSave: 1
Flags: HW
HStem: -40 320<1404.53 1993.34> 880 320<166 1537> 1360 320<166 1666> 2200 320<1366.78 2004.29>
VStem: 286 720<766.786 1523.81> 2366 320<706.061 927.168>
LayerCount: 2
Fore
SplineSet
1800 1720 m 0
 1800 1896.73144531 1943.26855469 2040 2120 2040 c 0
 2296.73144531 2040 2440 1896.73144531 2440 1720 c 0
 2440 1543.26855469 2296.73144531 1400 2120 1400 c 0
 1943.26855469 1400 1800 1543.26855469 1800 1720 c 0
2429.09570312 1802.82226562 m 1
 2232 1720 l 1
 2103.56445312 2013.09375 1920 2265.64257812 1480 2265.64257812 c 0
 880 2265.64257812 640 1811.30175781 640 1240 c 0
 640 668.698242188 840 200 1400 200 c 0
 1895.04394531 200 2123.015625 535.5 2200 984 c 1
 2440 944 l 1
 2350.07617188 425.325195312 2041.27636719 -40 1400 -40 c 0
 623.528320312 -40 320 600 320 1240 c 0
 320 1880 623.528320312 2520 1400 2520 c 0
 1946.27246094 2520 2317.02832031 2221.06738281 2429.09570312 1802.82226562 c 1
1288.44042969 1158.51855469 m 1
 1224.52832031 919.999023438 l 1
 80 920 l 1
 143.912109375 1158.52050781 l 1
 1288.44042969 1158.51855469 l 1
1417.05566406 1638.51855469 m 1
 1353.14355469 1399.99902344 l 1
 80 1400 l 1
 143.912109375 1638.52050781 l 1
 1417.05566406 1638.51855469 l 1
EndSplineSet
EndChar
StartChar: uni20B7
Encoding: 8375 8375 322
Width: 2580
VWidth: 0
UnlinkRmOvrlpSave: 1
Flags: HW
HStem: 0 280<1040 1280 1440 1760> 760 320<404.367 549.224 844.631 1123.5 1334.63 1640> 1840 320<2560 2737> 2200 320<2010.83 2453.03>
VStem: 80 320<484.896 750.895> 1280 160<0 254.862> 1320 640<1671.77 2133.12> 1513 325<404.743 755.962> 2240 640<1619.12 2017> 2280 640<411.03 808.228>
LayerCount: 2
Fore
SplineSet
1200 1080 m 0
 1448.78808594 1080 1543.81640625 922.79296875 1521 720 c 2
 1440 0 l 1
 1200 0 l 1
 1281 720 l 2
 1290.06835938 800.594726562 1272.97167969 864 1224 864 c 0
 1160 864 1133.63183594 832.288085938 1112 640 c 1
 960 760 l 1
 960 960 1080 1080 1200 1080 c 0
1760 1840 m 0
 1760 2016.73144531 1903.26855469 2160 2080 2160 c 0
 2256.73144531 2160 2400 2016.73144531 2400 1840 c 0
 2400 1663.26855469 2256.73144531 1520 2080 1520 c 0
 1903.26855469 1520 1760 1663.26855469 1760 1840 c 0
1400 1864 m 0
 1400 1420.82910156 2439.99609375 1374.36230469 2439.99609375 640 c 0
 2439.99609375 199.830078125 2040 -40 1319.99609375 -40 c 0
 680 -40 80 131.478515625 80 640 c 1
 320 640 l 1
 320 400 680 200 1240 200 c 0
 1840 200 2120 320 2120 640 c 0
 2120 1224.00878906 1079.99609375 1159.91113281 1079.99609375 1840 c 3
 1079.99609375 2280.16992188 1398.09570312 2520 1720 2520 c 0
 2080 2520 2399.99609375 2286.09863281 2399.99609375 1840 c 1
 2160 1999.58300781 l 1
 2160 2180.37207031 2018.88769531 2280 1760.00390625 2280 c 0
 1518.92382812 2280 1400 2142.9140625 1400 1864 c 0
799 1080 m 2
 799.040039062 1080 l 2
 799.751953125 1080 800.448242188 1079.97949219 801.15625 1079.9765625 c 0
 806.99609375 1079.96289062 812.719726562 1079.86621094 818.288085938 1079.6484375 c 1
 818.288085938 1079.6484375 818.288085938 1079.6484375 818.288085938 1079.6484375 c 1
 818.288085938 1079.6484375 818.288085938 1079.6484375 818.288085938 1079.6484375 c 1
 1002.45996094 1072.41796875 1040 953.747070312 1040 760 c 1
 1121.22753906 732.921875 l 2
 1120.84765625 728.625976562 1120.48828125 724.338867188 1120 720 c 2
 1039 0 l 1
 799 0 l 1
 880 720 l 2
 889.068359375 800.594726562 871.971679688 864 823 864 c 0
 760 864 732.631835938 832.288085938 711 640 c 1
 559 760 l 1
 559 960 679 1080 799 1080 c 2
399 1080 m 2
 399.040039062 1080 l 2
 399.751953125 1080 400.448242188 1079.97949219 401.15625 1079.9765625 c 0
 406.99609375 1079.96289062 412.719726562 1079.86621094 418.288085938 1079.6484375 c 1
 418.288085938 1079.6484375 418.288085938 1079.6484375 418.288085938 1079.6484375 c 1
 418.288085938 1079.6484375 418.288085938 1079.6484375 418.288085938 1079.6484375 c 1
 602.459960938 1072.41796875 640 953.747070312 640 760 c 1
 721.227539062 732.921875 l 2
 720.84765625 728.625976562 720.48828125 724.338867188 720 720 c 2
 639 0 l 1
 399 0 l 1
 480 720 l 2
 489.068359375 800.594726562 471.971679688 864 423 864 c 0
 383 864 320 800 320 640 c 1
 80 640 l 1
 80 960 280 1080 399 1080 c 2
EndSplineSet
EndChar
StartChar: trademark
Encoding: 8482 8482 353
Width: 4160
VWidth: 0
Flags: HW
HStem: 640 320<400 720 1200 1520 2080 2320 2720 2960 3680 3920 4400 4640> 1680 800<80 400 1520 1840> 2160 320<400 720 1200 1520 2080 2320 4400 4640>
VStem: 80 320<1680 2160> 720 480<960 2160> 1520 320<1680 2160> 2320 400<960 1768> 3920 480<960 1763>
LayerCount: 2
Fore
SplineSet
1920 2480 m 1
 2480 2480 l 1
 3040 1600 l 1
 3600 2480 l 1
 4080 2480 l 1
 4080 2240 l 1
 3840 2240 l 1
 3840 880 l 1
 4080 880 l 1
 4080 640 l 1
 3280 640 l 1
 3280 880 l 1
 3520 880 l 1
 3520 1843.078125 l 1
 3000 1120 l 1
 2900.80761719 1120 l 1
 2400 1880 l 1
 2400 880 l 1
 2720 880 l 1
 2720 640 l 1
 1920 640 l 1
 1920 880 l 1
 2160 880 l 1
 2160 2240 l 1
 1920 2240 l 1
 1920 2480 l 1
80 2480 m 1
 1680 2480 l 1
 1680 1680 l 1
 1440 1680 l 1
 1440 2240 l 1
 1040 2240 l 1
 1040 880 l 1
 1440 880 l 1
 1440 640 l 1
 320 640 l 1
 320 880 l 1
 720 880 l 1
 720 2240 l 1
 320 2240 l 1
 320 1680 l 1
 80 1680 l 1
 80 2480 l 1
EndSplineSet
EndChar
StartChar: arrowup
Encoding: 8593 8593 346
Width: 2400
VWidth: 0
Flags: HW
HStem: -640 21G<1024 1376> 2460 20G<1120 1280>
VStem: 1024 352<-640 378.543> 1064 272<713.577 1640>
LayerCount: 2
Fore
SplineSet
1200 2480 m 1
 1280 2467.39355469 l 1
 2280 1400 l 1
 2200 1320 l 1
 1320 2040 l 1
 1326.56445312 1559.4453125 1344 501.76171875 1344 -640 c 1
 1200 -640 l 1
 1056 -640 l 1
 1056 501.76171875 1073.43554688 1559.4453125 1080 2040 c 1
 200 1320 l 1
 120 1400 l 1
 1120 2467.39355469 l 1
 1200 2480 l 1
EndSplineSet
EndChar
StartChar: uniE100
Encoding: 57600 57600 334
Width: 2160
VWidth: 0
UnlinkRmOvrlpSave: 1
Flags: HW
HStem: 0 320<160 360 920 1280 1520 1720 2280 2480> 1520 320<80 1720> 2351 289<748.531 1100>
VStem: 360 560<320 1992.57> 360 373<2002.44 2339.78> 840 640<2059.12 2457> 1720 560<320 1520>
AnchorPoint: "top" 1720 1920 basechar 0
LayerCount: 2
Fore
SplineSet
560 2280 m 4
 560 2456.73144531 703.268554688 2600 880 2600 c 4
 1056.73144531 2600 1200 2456.73144531 1200 2280 c 4
 1200 2103.26855469 1056.73144531 1960 880 1960 c 4
 703.268554688 1960 560 2103.26855469 560 2280 c 4
1360 1840 m 1
 1880 1840 l 1
 1880 240 l 1
 2080 240 l 1
 2080 0 l 1
 1360 0 l 1
 1360 240 l 1
 1560 240 l 1
 1560 1600 l 1
 1360 1600 l 1
 1360 1840 l 1
80 1600 m 1
 80 1840 l 1
 1360 1840 l 1
 1360 1600 l 1
 80 1600 l 1
800 2640 m 4
 1040 2640 1200 2480 1200 2280 c 5
 760 2480 l 5
 600 2480 504 2400 504 2280 c 4
 504 2004.34863281 680 2000 680 1840 c 6
 680 240 l 5
 360 240 l 5
 360 1840 l 6
 360 1960 320 2000 320 2200 c 4
 320 2480 531.66796875 2640 800 2640 c 4
160 0 m 1
 160 240 l 1
 1040 240 l 1
 1040 0 l 1
 160 0 l 1
EndSplineSet
LCarets2: 1 1168
Ligature2: "'liga' +ahluljBuVAhbVwAA in +MOkwxjDzZYdbVwAA lookup 0-1" f dotlessi
EndChar
